<svg xmlns="http://www.w3.org/2000/svg" width="176" height="176" viewBox="0 0 176 176"><defs><style>.a{fill:#fcf481;}.b{fill:none;}.c{fill:#d1dae7;}.d{fill:#1e73d4;}.e{fill:#ec7632;}.f{fill:#13d12d;}.g{fill:#0d5385;}</style></defs><circle class="a" cx="88" cy="88" r="88"/><path class="b" d="M192.687,178.856c-.111-1.725-.182-3.452-.347-5.171-.1-1.007-.554-1.779-1.765-1.68-1.033.083-1.335.849-1.416,1.682-.16,1.72-.236,3.447-.347,5.171-3.452.059-6.906.066-10.357.191-5.129.184-7.948,2.9-8.073,7.937-.087,3.565.087,7.137.146,10.7q-.087,28.717-.17,57.436c-.014,6.972,2.458,9.418,9.437,9.423q33.6.014,67.2,0c4.063,0,8.128.071,12.186-.028,4.582-.113,7.613-2.857,7.625-7.314.054-19.839-.038-39.68-.078-59.521.09-3.452.352-6.91.236-10.355-.191-5.464-3.053-8.146-8.522-8.3-3.336-.092-6.674-.12-10.013-.179-.111-1.725-.182-3.452-.347-5.171-.1-1.007-.552-1.779-1.765-1.68-1.033.083-1.335.849-1.416,1.682-.16,1.72-.236,3.447-.344,5.171Z" transform="translate(-130.167 -131.416)"/><path class="c" d="M266.726,280.9c.04,19.841.132,39.683.078,59.521,0,4.457-3.043,7.2-7.625,7.314-4.058.1-8.123.028-12.186.028H179.8c-6.969,0-9.437-2.451-9.437-9.423q.057-28.719.17-57.436Zm-81.63,26c.925-3.178-.757-3.775-3.669-3.81-2.831-.038-3.9.753-3.808,3.7.078,2.6.385,4.138,3.555,3.973,2.619-.139,4.789-.172,3.914-3.86Zm22.455-.29c-.517,2.831.215,4.317,3.539,4.162,2.6-.12,4.195-.389,3.956-3.562-.177-2.326.113-4.442-3.362-4.093C209.328,303.358,206.709,302.806,207.551,306.613Zm22.12.262c.965-3.263-.868-3.7-3.709-3.775s-3.831.84-3.775,3.732c.057,2.642.472,4.07,3.593,3.94C228.48,310.65,230.526,310.483,229.672,306.875Zm26.188-3.61c-3.192-.708-3.869.826-3.879,3.775,0,2.9.944,3.7,3.775,3.756,3.1.059,3.989-.97,3.923-3.987-.08-2.831-.809-4.232-3.831-3.553Zm-74.26,22.1c3.341.965,3.577-1.036,3.678-3.775.111-2.984-1.043-3.7-3.817-3.69s-3.926.679-3.86,3.68C177.669,324.4,178.127,326.172,181.6,325.362Zm44.672-7.325c-2.664-.408-4.232.137-4.081,3.362.123,2.631.236,4.412,3.678,4.171,2.491-.175,4.192-.217,3.99-3.482-.153-2.574-.071-4.8-3.579-4.051Zm29.3,7.366c2.944.583,4.188-.415,4.089-3.617-.085-2.69-.583-4.051-3.647-3.886-2.454.13-4.291.116-4.011,3.452.2,2.477-.094,4.888,3.577,4.051Zm-47.68-4.119c-1.18-.052-1.923.377-2.067,1.243-.347,2.109,1.562,2.885,2.7,4.067a1.969,1.969,0,0,0,3.048-.1q2.227-2.156,4.4-4.367a1.835,1.835,0,0,0,.2-2.756c-.849-.922-1.84-.639-2.756.068C211.713,320.755,210.6,323.94,207.889,321.283Zm-.337-29.526c-.451,2.633.172,4.122,3.324,4.011,2.64-.087,4.341-.25,4.211-3.647-.1-2.73-.72-3.973-3.69-3.808C208.967,288.452,206.855,288.412,207.551,291.757Zm22.165.285c.658-3.017-.812-3.735-3.577-3.735-2.631,0-3.954.472-3.956,3.553,0,3.025.915,4.011,3.952,3.921,2.737-.085,4.242-.7,3.579-3.739Zm26.011,3.567c2.581.5,4.011-.212,3.919-3.331-.08-2.546-.352-4.11-3.515-3.975-2.633.111-4.348.269-4.157,3.671C252.125,294.633,252.547,296.285,255.727,295.61Zm-55.808,11.445c.444-2.5-.071-4.011-3.282-3.971-2.831.042-4.183.564-4.048,3.791.111,2.661.58,4.011,3.624,3.886C198.822,310.65,200.6,310.3,199.919,307.055Zm-7.174,14.5c-.406,2.633.191,4.056,3.352,4.027,2.933-.026,4.086-.727,4.011-3.857-.075-2.746-.741-3.907-3.695-3.829C193.714,317.964,192.091,318.5,192.745,321.555Zm51.774.311c.5-2.749-.375-4.032-3.416-3.971-2.633.054-4.011.5-3.921,3.584.083,2.72.411,4.258,3.735,4.1C243.648,325.445,245.155,324.869,244.518,321.866Zm-62.881,11.162c-2.68-.472-4.11.26-4.011,3.364.078,2.56.378,4.1,3.539,3.968,2.649-.111,4.332-.3,4.145-3.688C185.15,334.007,184.69,332.379,181.637,333.028ZM195.5,297.5c2-.892,3.289-2.9,4.973-4.445.932-.854,2.076-1.887.908-3.225-1.3-1.477-2.477-.441-3.525.559-1.364,1.3-2.416,3.19-4.822,1.265-.9-.72-1.961.337-2.163,1.512C190.642,294.466,193.9,297.615,195.5,297.5Zm42.063,8.854c-1.746.25-2.529,1.017-1.906,2.628,1.319,3.4,4.289,3.985,6.957,1.387.993-.97,1.982-1.946,2.942-2.947.892-.927,1.359-1.958.215-3-.989-.9-1.909-.422-2.765.314C241.378,306.127,240.17,308.921,237.559,306.352Zm3.525-17.878c-2.612-.519-3.964.269-3.9,3.393.054,2.694.59,4.058,3.647,3.907,2.4-.118,3.982-.359,3.813-3.376C244.5,289.978,244.591,287.794,241.083,288.473Zm-41.15,48.065c.656-3.185-1.128-3.579-3.758-3.645-2.779-.068-3.539.967-3.572,3.633-.026,2.812.8,3.879,3.73,3.834C199.169,340.32,200.53,339.506,199.933,336.538Zm-16.595-44.394c.028-1.161-.236-2.041-1.677-2.02-1.144.017-2.027.182-2.057,1.637-.031,1.342.255,2.206,1.85,2.2C182.76,293.963,183.376,293.442,183.338,292.144Zm42.728,46.373c1.338.139,1.861-.545,1.861-1.814,0-1.18-.283-1.984-1.708-2.005s-2.074.519-2.043,2.017C224.205,338.053,224.774,338.6,226.067,338.518Zm-13.023-1.944c.125-1.312-.486-1.854-1.793-1.873s-1.887.472-1.906,1.793c-.031,1.437.472,2.109,2,2.053C212.706,338.489,213.164,337.824,213.044,336.574Zm27.724-1.668c-1.031-.127-1.541.382-1.576,1.567-.04,1.276.366,1.935,1.751,1.887,1.116-.028,1.706-.413,1.739-1.6C242.7,335.5,242.27,334.781,240.767,334.906Zm16.859,1.807c.109-1.224-.271-1.989-1.666-2.008-1.194-.017-2.005.236-2.027,1.651-.021,1.321.236,2.234,1.859,2.18C257.072,338.5,257.749,338.048,257.626,336.713Z" transform="translate(-130.168 -214.629)"/><path class="d" d="M266.752,219.873H170.566c-.059-3.567-.236-7.139-.146-10.7.118-5.032,2.949-7.75,8.073-7.934,3.452-.125,6.906-.132,10.357-.191a4.7,4.7,0,0,1-1.836,5.662c-2.482,1.932-2.359,5.44-.236,7.679a5.488,5.488,0,0,0,7.767.236c2.359-2.192,2.6-5.9.012-7.922a4.736,4.736,0,0,1-1.838-5.662H244.58a4.7,4.7,0,0,1-1.838,5.662c-2.48,1.93-2.359,5.443-.236,7.679a5.485,5.485,0,0,0,7.764.236c2.359-2.194,2.583-5.9,0-7.922a4.736,4.736,0,0,1-1.838-5.662c3.338.059,6.677.087,10.013.179,5.469.151,8.33,2.831,8.522,8.3C267.1,212.963,266.842,216.422,266.752,219.873Z" transform="translate(-130.194 -153.602)"/><path class="c" d="M240.546,178.879a4.736,4.736,0,0,0,1.838,5.662c2.572,2.022,2.338,5.731-.012,7.922a5.488,5.488,0,0,1-7.767-.236c-2.123-2.239-2.248-5.747.236-7.679a4.694,4.694,0,0,0,1.836-5.662c.111-1.725.186-3.452.347-5.171.078-.833.38-1.6,1.415-1.682,1.21-.1,1.668.672,1.765,1.68C240.371,175.427,240.442,177.154,240.546,178.879Z" transform="translate(-178.026 -131.439)"/><path class="c" d="M476.832,178.879a4.736,4.736,0,0,0,1.838,5.662c2.572,2.02,2.338,5.728,0,7.922a5.485,5.485,0,0,1-7.764-.236c-2.123-2.237-2.248-5.749.236-7.679a4.7,4.7,0,0,0,1.838-5.662c.109-1.725.184-3.452.344-5.171.078-.833.38-1.6,1.416-1.682,1.213-.1,1.668.672,1.765,1.68C476.65,175.427,476.721,177.154,476.832,178.879Z" transform="translate(-358.577 -131.439)"/><path class="e" d="M208.561,378.776c.875,3.688-1.3,3.721-3.921,3.86-3.171.165-3.478-1.38-3.555-3.973-.087-2.944.984-3.735,3.808-3.7C207.8,375.006,209.485,375.6,208.561,378.776Z" transform="translate(-153.64 -286.501)"/><path class="e" d="M327.473,378.451c-.847-3.808,1.772-3.256,4.133-3.494,3.475-.349,3.185,1.767,3.362,4.093.236,3.173-1.371,3.442-3.956,3.562C327.692,382.769,326.961,381.273,327.473,378.451Z" transform="translate(-250.089 -286.466)"/><path class="e" d="M397.537,378.778c.854,3.617-1.191,3.789-3.883,3.9-3.117.13-3.539-1.3-3.593-3.94-.064-2.892.894-3.8,3.775-3.732S398.5,375.506,397.537,378.778Z" transform="translate(-298.033 -286.531)"/><path class="e" d="M520.133,375.1c3.022-.679,3.751.722,3.815,3.539.066,3.017-.823,4.046-3.923,3.987-2.831-.052-3.775-.852-3.775-3.756C516.264,375.929,516.941,374.393,520.133,375.1Z" transform="translate(-394.454 -286.476)"/><path class="e" d="M205.04,445.154c-3.48.809-3.938-.963-4-3.794-.066-3,1.106-3.673,3.86-3.68s3.928.708,3.817,3.69C208.624,444.125,208.388,446.119,205.04,445.154Z" transform="translate(-153.609 -334.42)"/><path class="e" d="M394.129,437.834c3.508-.748,3.426,1.477,3.586,4.051.2,3.265-1.5,3.3-3.989,3.482-3.445.236-3.555-1.541-3.678-4.171C389.9,437.971,391.466,437.426,394.129,437.834Z" transform="translate(-298.018 -334.426)"/><path class="e" d="M519.877,445.189c-3.673.838-3.381-1.574-3.581-4.051-.269-3.336,1.569-3.322,4.011-3.452,3.067-.165,3.562,1.2,3.647,3.886C524.064,444.774,522.812,445.772,519.877,445.189Z" transform="translate(-394.468 -334.415)"/><path class="f" d="M322.6,443.959c2.711,2.657,3.824-.528,5.523-1.84.915-.708,1.887-1.019,2.756-.068a1.821,1.821,0,0,1-.2,2.756q-2.166,2.215-4.4,4.367a1.966,1.966,0,0,1-3.048.1c-1.135-1.18-3.043-1.958-2.7-4.067C320.68,444.337,321.425,443.907,322.6,443.959Z" transform="translate(-244.882 -337.305)"/><path class="e" d="M327.566,315.733c-.694-3.345,1.416-3.3,3.846-3.44,2.97-.165,3.586,1.078,3.69,3.808.13,3.4-1.571,3.56-4.211,3.647C327.736,319.854,327.113,318.366,327.566,315.733Z" transform="translate(-250.183 -238.604)"/><path class="e" d="M397.543,316.035c.663,3.029-.842,3.654-3.581,3.739-3.036.1-3.956-.9-3.952-3.921,0-3.067,1.326-3.551,3.956-3.553C396.731,312.3,398.2,313.017,397.543,316.035Z" transform="translate(-297.997 -238.621)"/><path class="e" d="M520,319.561c-3.18.675-3.6-.977-3.754-3.636-.191-3.4,1.524-3.56,4.157-3.671,3.164-.134,3.435,1.43,3.515,3.975C524.014,319.348,522.578,320.063,520,319.561Z" transform="translate(-394.437 -238.579)"/><path class="e" d="M271.881,378.9c.684,3.249-1.1,3.6-3.706,3.706-3.043.123-3.513-1.224-3.624-3.886-.134-3.227,1.21-3.749,4.048-3.791C271.81,374.877,272.324,376.394,271.881,378.9Z" transform="translate(-202.129 -286.471)"/><path class="e" d="M264.772,441.357c-.654-3.067.97-3.586,3.659-3.659,2.954-.078,3.619,1.083,3.695,3.829.085,3.131-1.069,3.831-4.011,3.857C264.963,445.413,264.366,443.99,264.772,441.357Z" transform="translate(-202.195 -334.431)"/><path class="e" d="M460.913,441.674c.637,3-.863,3.579-3.6,3.711-3.324.16-3.652-1.378-3.735-4.1-.092-3.081,1.288-3.539,3.921-3.584C460.538,437.642,461.413,438.925,460.913,441.674Z" transform="translate(-346.563 -334.437)"/><path class="e" d="M205.113,501.386c3.053-.649,3.513.967,3.659,3.645.186,3.388-1.5,3.577-4.145,3.687-3.152.13-3.452-1.416-3.539-3.968C201,501.658,202.433,500.926,205.113,501.386Z" transform="translate(-153.644 -382.987)"/><path class="f" d="M261.873,324.023c-1.6.118-4.853-3.032-4.629-4.334.2-1.18,1.265-2.232,2.163-1.512,2.406,1.925,3.459.038,4.822-1.265,1.047-1,2.225-2.036,3.525-.559,1.168,1.331.024,2.371-.908,3.225C265.162,321.133,263.871,323.131,261.873,324.023Z" transform="translate(-196.546 -241.154)"/><path class="f" d="M448.33,380.931c2.612,2.569,3.82-.224,5.443-1.618.856-.736,1.777-1.215,2.765-.314,1.144,1.043.677,2.074-.215,3-.96,1-1.949,1.977-2.942,2.947-2.668,2.6-5.639,2.017-6.957-1.387C445.8,381.948,446.584,381.181,448.33,380.931Z" transform="translate(-340.939 -289.208)"/><path class="e" d="M457.493,312.512c3.513-.672,3.421,1.512,3.56,3.923.17,3.017-1.416,3.258-3.812,3.376-3.067.151-3.593-1.213-3.647-3.907C453.529,312.774,454.881,311.986,457.493,312.512Z" transform="translate(-346.577 -238.668)"/><path class="e" d="M271.968,504.915c.6,2.968-.764,3.775-3.6,3.822-2.935.045-3.756-1.021-3.73-3.834.026-2.666.793-3.7,3.572-3.633C270.841,501.336,272.624,501.73,271.968,504.915Z" transform="translate(-202.203 -383.005)"/><path class="f" d="M213.247,322.014c.04,1.3-.576,1.824-1.887,1.826-1.595,0-1.887-.861-1.85-2.2.031-1.456.913-1.621,2.057-1.637C213.011,319.978,213.278,320.858,213.247,322.014Z" transform="translate(-160.079 -244.503)"/><path class="f" d="M400.364,512.748c-1.283.08-1.861-.472-1.887-1.8-.031-1.5.6-2.036,2.043-2.017s1.708.83,1.708,2.005C402.225,512.2,401.7,512.887,400.364,512.748Z" transform="translate(-304.465 -388.859)"/><path class="f" d="M339.3,510.811c.12,1.25-.337,1.92-1.7,1.972-1.517.057-2.027-.616-2-2.053.028-1.328.616-1.812,1.906-1.793S339.42,509.5,339.3,510.811Z" transform="translate(-256.419 -388.867)"/><path class="g" d="M463.677,509.748c1.5-.125,1.946.6,1.913,1.869-.033,1.18-.623,1.569-1.739,1.6-1.385.035-1.791-.623-1.751-1.887C462.137,510.131,462.646,509.621,463.677,509.748Z" transform="translate(-353.078 -389.471)"/><path class="f" d="M528.286,510.993c.123,1.335-.554,1.788-1.833,1.833-1.63.054-1.887-.859-1.859-2.18.021-1.416.833-1.677,2.027-1.651C528.014,508.995,528.394,509.768,528.286,510.993Z" transform="translate(-400.827 -388.909)"/></svg>