<svg xmlns="http://www.w3.org/2000/svg" xmlns:xlink="http://www.w3.org/1999/xlink" width="28.581" height="33.45" viewBox="0 0 28.581 33.45"><defs><style>.a{fill:url(#a);}.b{fill:url(#b);}</style><linearGradient id="a" y1="0.5" x2="1" y2="0.5" gradientUnits="objectBoundingBox"><stop offset="0" stop-color="#ff7300"/><stop offset="0.16" stop-color="#f97c01"/><stop offset="0.42" stop-color="#ea9602"/><stop offset="0.5" stop-color="#e59e03"/><stop offset="0.78" stop-color="#e5c500"/><stop offset="0.99" stop-color="#ff9400"/></linearGradient><linearGradient id="b" x1="0" y1="0.495" x2="1" y2="0.495" xlink:href="#a"/></defs><g transform="translate(0)"><path class="a" d="M14.531,0a6.888,6.888,0,0,1,1.937,1.333,2.053,2.053,0,0,0,1.921.444c.347-.089.7-.17,1.048-.243.233-.049.47-.087.707-.113a1.3,1.3,0,0,1,1.431.845c.22.495.414,1,.592,1.514a2.06,2.06,0,0,0,1.469,1.393c.386.113.766.242,1.145.375A1.587,1.587,0,0,1,25.994,7.7c-.076.373-.137.749-.226,1.118a2.229,2.229,0,0,0,.446,1.989c.376.493.762.978,1.1,1.5a1.5,1.5,0,0,1-.057,1.9c-.3.385-.6.772-.927,1.139a2.161,2.161,0,0,0-.511,2.025,7.711,7.711,0,0,1,.3,1.861,1.291,1.291,0,0,1-.712,1.161,4.189,4.189,0,0,1-1.06.41c-.241.062-.28.123-.144.356q2,3.4,3.972,6.811a6.179,6.179,0,0,1,.3.542.569.569,0,0,1-.52.889c-.9.056-1.808.1-2.712.128a2.432,2.432,0,0,0-2.131,1.22q-.678,1.1-1.369,2.182c-.414.649-.868.641-1.257-.025q-2.1-3.6-4.195-7.21c-.238-.409-.237-.408-.594-.121-.113.088-.226.166-.339.252a1.622,1.622,0,0,1-1.946.087,5.72,5.72,0,0,1-.544-.359c-.36-.266-.358-.27-.592.133Q11.044,27.805,9.82,29.92l-1.7,2.933a3.052,3.052,0,0,1-.172.277.572.572,0,0,1-1.017.021,3.066,3.066,0,0,1-.19-.266L5.405,30.757a2.365,2.365,0,0,0-2.054-1.17c-.871-.025-1.74-.076-2.61-.113-.724-.033-.955-.432-.593-1.062q1.48-2.573,2.972-5.133l1.175-2.034c.182-.314.163-.359-.191-.475a5.584,5.584,0,0,1-.993-.4,1.364,1.364,0,0,1-.7-1.458,12.712,12.712,0,0,1,.307-1.633A2.069,2.069,0,0,0,2.239,15.4c-.339-.4-.667-.8-.989-1.215A1.541,1.541,0,0,1,1.2,12.25,13.356,13.356,0,0,1,2.25,10.878a2.2,2.2,0,0,0,.483-2.066,8.337,8.337,0,0,1-.287-1.537,1.374,1.374,0,0,1,.937-1.54,11.054,11.054,0,0,1,1.476-.51A2.114,2.114,0,0,0,6.343,3.8c.125-.37.262-.736.4-1.1A1.559,1.559,0,0,1,8.919,1.541c.477.113.953.219,1.432.318a1.356,1.356,0,0,0,1.214-.3,8.2,8.2,0,0,1,2.074-1.4c.13-.05.243-.108.37-.163Zm-.295,22.893a9.792,9.792,0,1,0-9.752-9.446,9.8,9.8,0,0,0,9.752,9.446Z" transform="translate(0.021)"/><path class="b" d="M69.666,52.293a8.27,8.27,0,1,1-8.34-8.2,8.225,8.225,0,0,1,8.34,8.2ZM58.012,56.628c-.017.583.253.777.706.565.557-.266,1.1-.571,1.646-.852a2.278,2.278,0,0,1,2.184,0c.522.267,1.037.545,1.558.813.206.105.426.212.642.04a.573.573,0,0,0,.142-.6c-.1-.579-.189-1.157-.288-1.736a2.272,2.272,0,0,1,.693-2.1c.41-.407.826-.806,1.236-1.211.167-.165.319-.353.226-.6s-.313-.286-.53-.32c-.472-.073-.945-.151-1.419-.2a2.645,2.645,0,0,1-1.64-.71,2.384,2.384,0,0,1-.464-.662c-.268-.545-.527-1.1-.819-1.627-.246-.452-.6-.44-.868,0-.051.084-.093.172-.136.26-.236.476-.464.956-.709,1.428a2.26,2.26,0,0,1-1.749,1.248c-.565.086-1.139.167-1.709.255-.241.036-.493.084-.574.354s.1.433.262.594c.409.407.829.8,1.243,1.21a2.3,2.3,0,0,1,.662,2.147C58.2,55.514,58.1,56.114,58.012,56.628Z" transform="translate(-47.121 -39.112)"/></g></svg>