<svg xmlns="http://www.w3.org/2000/svg" width="441.93" height="228.667" viewBox="0 0 441.93 228.667"><defs><style>.a{fill:#fff;}.a,.d,.e,.h,.j,.m,.n,.o,.q,.r,.s,.t,.u,.v,.w,.y{stroke:#707070;}.b{fill:#f8fafb;}.c,.y{fill:#56fc50;}.d,.p{fill:#f9fbfb;}.e,.f{fill:#fafcfc;}.g,.u{fill:#fcfdfd;}.h{fill:#fcb447;}.i{fill:#fdfefe;}.j{fill:#063a83;}.k,.q{fill:#f5fafc;}.l,.r{fill:#f7f9fa;}.m{fill:#0a3c84;}.n{fill:#fa6272;}.o{fill:#7ed0f0;}.s{fill:#164187;}.t,.x{fill:#2c4f90;}.v{fill:#86cfee;}.w{fill:#a1daf7;}</style></defs><g transform="translate(0.5 0.5)"><path class="a" d="M0,0V227.667H440.93V0ZM352.925,69.633a5.325,5.325,0,0,0,3.438-2.2c2.667-3.508,7.9-2.732,10.082,1.468.678,1.306,1.124,2.639,2.909,2.848.5.06,1.008.678,1.394,1.148s.813,1.031.465,1.677-.929.39-1.468.4H346.573c-.576,0-1.361.3-1.673-.39s.26-1.324.646-1.859c.3-.418.781-.971,1.2-.994C349.045,71.608,350.853,70.112,352.925,69.633ZM345.89,82.146a2.021,2.021,0,0,1-2.281,2.054,2.226,2.226,0,0,1-2.258-2.4c0-1.5,1-2.119,2.449-2.123A2.132,2.132,0,0,1,345.89,82.146ZM328.955,60.183c2.63-.028,5.26,0,7.9,0h7.9c.571,0,1.426-.167,1.394.734,0,.7-.767.637-1.287.637H328.843c-.52,0-1.278.074-1.292-.632C327.561,60.016,328.393,60.188,328.955,60.183Zm-19.979-4.976,2.4,2.123c-.771.767-1.431,1.979-2.226,2.077-.985.116-2.193-1.138-2.323-1.933-.144-1.041,1.57-1.343,2.174-2.267Zm-6.2,20.648a2.543,2.543,0,0,1,2.36-2.226c5-.929,10-1.886,15.017-2.7a3.1,3.1,0,0,1,3.889,2.713c.441,2.272.929,4.535,1.292,6.816s-.869,3.866-3.2,4.275c-2.049.362-4.1.711-6.156,1.018-3.094.465-6.133.994-7.643,4.549-.335-1.975-1-3.252-2.9-3.592a1.858,1.858,0,0,1-1.11-1.115,26.656,26.656,0,0,1-1.524-9.734Zm-12.252-6.5c-.07,5.771-2.746,9.934-7.806,12.624a13.8,13.8,0,0,1-15.755-1.984c-4.814-4.419-6.189-10.329-3.777-16.239a14.219,14.219,0,0,1,27.362,5.617ZM291.32,142c1.687-.167,3.382-.386,5.074-.418,3.494-.06,7.062.172,9.167-3.782.344,1.812.293,3.331,2.3,3.666a1.858,1.858,0,0,1,1.1,1.12c1.12,3.252.929,6.681.8,10.036-.051,1.394-1.487,2.147-2.9,2.258-4.851.372-9.706.739-14.561.976-2.765.135-3.513-.674-4.038-3.35a36.925,36.925,0,0,1-.4-6.709A3.424,3.424,0,0,1,291.32,142ZM237.052,43.912q14.143-.051,28.277,0c.683,0,1.891-.386,1.858.7s-1.222.655-1.919.66c-4.711.033-9.427,0-14.139,0H237.224c-.729,0-1.91.279-1.97-.66C235.175,43.456,236.4,43.916,237.052,43.912Zm16.727,36.952a2.034,2.034,0,0,1,2.156-2.216,2.141,2.141,0,0,1,2.323,2.072c-.056,1.394-.706,2.267-2.072,2.351a2.059,2.059,0,0,1-2.4-2.226Zm16.229,69.517c1.143.167,2.212.395,1.859,2.458-.674,4.446-1.426,9.4-2.174,14.362-.929,6.18-1.9,12.35-2.751,18.539-.2,1.454-.7,1.756-2.1,1.538q-13.26-2.068-26.544-3.968c-1.575-.223-2.161-.711-1.9-2.356,1.691-10.9,3.359-21.8,4.939-32.719.232-1.6.646-2.016,2.323-1.752,8.791,1.389,17.577,2.62,26.354,3.9ZM210.745,35.065h16.262c.465,0,1.045,0,1.106.59.088.795-.6.781-1.12.785H210.731c-.534,0-1.25,0-1.241-.7S210.215,35.065,210.745,35.065Zm4.261,15.007c11.021-1.859,21.452,6.324,22.664,17.753.033.307.1.613.149.929,2.007-2.718,4.823-1.556,7.666-1.7-.595,1.668-2.133,3.094-.465,4.711.288.274-.028.65-.465.813-2.026.748-5.478-.269-6.686-2-.706,6.1-3.2,11.179-8.205,14.975-11.179,8.47-28.017,2.2-30.944-11.616a19.7,19.7,0,0,1,16.285-23.868Zm11.774,50.133c-.121.832-1.273,1.505-2.1,2.388-.655-1.106-2.151-1.547-1.993-2.555.135-.855,1.217-2.128,2.17-1.979C225.631,98.18,226.923,99.253,226.779,100.206ZM161.225,48.674c1.236,1.12,2.486,1.714,2.634,2.514.209,1.162-1.612,1.306-2.1,2.323-.771-.674-2.021-1.227-2.212-2.035C159.218,50.18,161.518,50.537,161.225,48.674Zm-.906,25.09c3.675-.214,3.68-.265,3.675,3.443,0,1.77-.023,3.545-.037,5.315,1.742.465,2.323-.2,2.221-1.984-.135-3,0-6.012-.06-9.018-.033-1.264.3-1.724,1.649-1.738,3.471-.037,3.471-.107,3.471,3.359,0,2.546.074,5.111-.033,7.629-.065,1.543.39,2.188,1.956,1.756,0-6.254.1-12.512-.056-18.766-.056-2.253,1.166-2.054,2.607-2.049s2.672-.232,2.616,2.035c-.153,6.254-.051,12.512-.046,18.771a2.946,2.946,0,0,0,1.858-.046,5.889,5.889,0,0,0,.376-2.955c0-7.192.074-14.4-.042-21.568-.037-2.077.818-2.4,2.6-2.4s2.625.311,2.6,2.393c-.1,8.191-.023,16.387,0,24.579.86,1.742-.748.929-1.12.929-4.01.07-8.019.042-12.034.042-3.935,0-7.871.028-11.806-.037-.576,0-1.7.65-1.677-.8-.051-2.458-.079-4.92-.163-7.383-.084-1.083.316-1.464,1.422-1.524Zm-18.8-11.081c-.037,1.756-.929,2.481-2.216,2.481A2.151,2.151,0,0,1,137,62.8a2.254,2.254,0,0,1,4.493-.135Zm-27.4-16.6c.242-.288.59-.711.883-.7,2.607.051,4.512-1.928,6.9-2.346a3.671,3.671,0,0,0,2.579-1.617c2.918-3.921,7.959-3.587,10.222.7.771,1.454,1.357,2.881,3.252,3.164.706.1,1.069.827,1.422,1.44.7,1.217.53,1.812-1.036,1.789-3.94-.051-7.9,0-11.825,0H115.157c-.65,0-1.552.311-1.826-.548C113.122,47.248,113.657,46.616,114.112,46.086Zm22.353,32.129c-.265,1.6-.465,3.206-.748,4.8-.344,1.942-.776,3.791-3.146,4.363-1.292.311-.929,1.858-1.858,3.048-2.737-5.98-8.535-4.223-13.037-5.548-2.988-.873-3.866-1.394-3.582-4.535a47.45,47.45,0,0,1,1.134-6.844,3.269,3.269,0,0,1,4.084-2.541q7.076,1.2,14.12,2.588c2.7.534,3.494,1.9,3.034,4.665ZM107.1,83.456a13.586,13.586,0,0,1-5.915-.046,11.862,11.862,0,0,1,5.915.046Zm-5.264-11.946c.344.386.042.59-.265.781l-3.02,3.5c-.2.158-.33.637-.637.339s0-.534.307-.669l3.015-3.513a6.778,6.778,0,0,1,.6-.441ZM98.5,55.137c1.431,0,2.174.929,2.472,2.291-.358,1.329-1.078,2.291-2.537,2.23a2.113,2.113,0,0,1-2.253-2.147A2.233,2.233,0,0,1,98.5,55.137ZM86.007,78.986A7.948,7.948,0,0,1,97.557,89.868a13.441,13.441,0,0,0-2.291,3.173c4.182.033,8.363-.033,12.545.116,10.933.381,17.679,11.671,12.615,21.136-2.644,4.934-7.1,7.206-12.5,7.606a75.529,75.529,0,0,1-9.511.028c-2.119-.107-2.667.678-2.569,2.667.144,3.09,0,6.189.06,9.293.033,1.468-.432,2.016-1.979,2.058-7.295.2-7.295.246-7.295-6.932V95.583c0-.892-.52-2.114.957-2.5-.4-1.31-1.431-2.17-2.235-3.2A7.9,7.9,0,0,1,86.007,78.986Zm27.311,54.691c-.149.869-1.1,2.323-2.021,2.24a3.075,3.075,0,0,1-1.993-2.272c-.07-.669,1.236-1.478,2-2.291.785.869,2.119,1.728,2.016,2.342Zm17.029,74.661H114.354c-.609,0-1.394,0-1.394-.832s.767-.864,1.366-.869c2.63-.028,5.255,0,7.9,0h8.112c.664,0,1.58-.065,1.505.929C131.758,208.347,130.959,208.338,130.346,208.338Zm2.5-15.765c-8.651,0-17.3-.033-25.949,0-1.58,0-1.705-.836-1.705-2.058,0-4.646-.07-9.265-.112-13.9-6.04,0-12.038-.033-18.06.042-1.859.023-2.7-.525-2.667-2.5.074-4.786.037-9.571,0-14.357,0-1.394.265-2.458,1.886-2.62,0-2.323.07-4.646.028-6.969-.028-1.292.465-1.775,1.77-1.766,7.573.037,15.142.051,22.716,0,1.589,0,1.975.655,1.933,2.091-.07,2.235,0,4.479,0,6.718a1.477,1.477,0,0,1,1.612,1.589c-.042,3.578.2,7.16.07,10.733,0,.5-.037,1-.074,1.5a5.287,5.287,0,0,1-.056.767c-.046.5-.1,1-.163,1.5h0l4.182.042,8.414.084,4.2.051c.892,0,1.859-.279,2.648.437.99-.3.971.353.971,1.013,0,5.329-.023,10.658,0,15.988.046,1.25-.511,1.617-1.649,1.612ZM128.2,160.589c.023-1.352.929-2.054,2.253-2.235,1.278.2,2.207.841,2.207,2.235a2.075,2.075,0,0,1-2.346,2.277,2.018,2.018,0,0,1-2.082-2.277Zm19.2,41.654c-.734-.678-1.933-1.259-2.091-2.049-.214-1.087,1.728-1.171,1.919-2.384,1.106.353,1.185,1.859,2.323,1.928Zm10.965-19.565a2.22,2.22,0,0,1-2.411-2.272,2.291,2.291,0,0,1,4.535-.516c.046,1.993-.85,2.732-2.109,2.788Zm8.168-37.519a12.545,12.545,0,0,1-10.185,9.293c-1.445.218-3.252-.348-3.782,1.821-.028.112-.571.1-.874.139-1.064,4.995-2.95,9.757-4.446,14.6a1.765,1.765,0,0,1-2.528,1.3,1.919,1.919,0,0,1-1.073-2.676q1.858-5.72,3.666-11.476c.3-.952.465-1.942.72-2.913.353-2.43-1.626-3.42-2.932-4.874a12.429,12.429,0,0,1,2.565-18.752c.581-.376,1.171-.734,1.756-1.1-1.687-2.49-3.35-5-5.078-7.462-.781-1.12-6.268-1.566-7.127-.637-.53.571-.367,1.315-.367,1.993,0,3.173-.065,6.347,0,9.516.037,1.491-.465,2.109-1.993,2.026-1.775-.093-3.559-.074-5.339,0-1.338.056-1.965-.353-1.961-1.817q.056-19.621,0-39.228c0-1.287.465-1.78,1.775-1.77,6.732.051,13.474-.116,20.193.107a14.714,14.714,0,0,1,13.5,11.216,13.911,13.911,0,0,1-7.113,15.491c-1.961,1.073-2.03,1.789-.683,3.355a48.446,48.446,0,0,1,3.345,4.73c.465.711,1.185,1.366.976,2.346.52-.06.729.33.929.706,5.39,3.866,7.439,8.623,6.073,14.064Zm1.859-30.586c0-12.294,10.291-22.265,22.86-22.358,11.616-.084,22.976,9.293,22.943,22.344-.033,13.367-11.959,22.451-23.036,22.3-12.331-.181-22.739-10.217-22.729-22.288Zm31.26,32.738c-1.682.093-1.789,1.961-2.82,1.807-.762-.112-1.993-1.445-1.886-2.021.158-.855,1.324-1.519,2.063-2.263a10.353,10.353,0,0,0,2.681,2.476Zm4.349,64.773c-.246.66-.892.506-1.394.511H179.7c-.581,0-1.394.279-1.687-.362-.358-.808.335-1.422.846-1.993a1.951,1.951,0,0,1,1.566-.874c1.752.218,2.955-1.022,4.386-1.454,2.411-.729,4.014-2.216,5.831-3.717,2.983-2.458,7.113-1.055,8.86,2.881.562,1.264,1.031,2.323,2.62,2.462.516.051,1.041.627,1.44,1.069a1.459,1.459,0,0,1,.483,1.478Zm6.677-32.059c-.079,5.041-.079,5.041-5.2,5.041h-25.9c-3.141,0-3.141,0-3.146-3.252V163.771c0-3.132,0-3.127,3.252-3.141h2.546c.251-.716-.1-1.859,1.129-1.9s.827,1.231,1.241,1.858a18.12,18.12,0,0,0,4.484-.074c.311-.678-.033-1.882,1.25-1.793,1.073.07.785,1.115,1.045,1.761a17.122,17.122,0,0,0,4.493.125c.3-.548.046-1.315.683-1.733l.678-.144a.5.5,0,0,1,.581.386c.581.548.172,1.3.4,1.924H202.8c.232-.874-.26-2.323,1.176-2.323s.929,1.454,1.157,2.323a44,44,0,0,1,4.7.033c.367.042.734.1,1.1.172l6.7,18.678a51.369,51.369,0,0,1-6.9.125Zm16.257,22.553a2.086,2.086,0,0,1-2.226,1.859,2.184,2.184,0,0,1-2.2-2.453,2.216,2.216,0,0,1,2.449-2.216C226.273,199.826,227.063,200.63,226.942,202.577Zm.725-45.045a2.262,2.262,0,0,1-2.467-2.226,2.133,2.133,0,0,1,2.258-2.379,2.2,2.2,0,0,1,2.3,2.36A1.942,1.942,0,0,1,227.667,157.531Zm1.394-20.908a20.741,20.741,0,0,1-9.757-4.59c-2.035-1.738-2.1-2.384-.251-4.233.985-.985,2.03-1.914,2.946-2.955,1-1.143,1.677-.952,2.5.223a7.364,7.364,0,0,0,6.807,3.206c3.647-.228,5.826-3.025,5.85-7.327q.065-12.87,0-25.745c0-1.622.506-2.323,2.119-2.082.065-1.719.135-3.438.2-5.157a10.825,10.825,0,0,1,1.668-4.451,9.186,9.186,0,0,1,1.3-3.4c.465,1.491.818,2.551,1.152,3.605a9.678,9.678,0,0,1,1.71,4.33l.167,5.074c1.12.13,1,.994,1,1.752,0,9.664.158,19.333-.074,28.993-.177,8.317-8.73,14.436-17.312,12.768Zm42.564,68.416h-35.7c-.618-.07-1.361-.111-1.394-.929-.028-.906.776-.8,1.366-.808,2.007-.028,4.014,0,6.04,0h29.69c.762,0,2-.321,1.933.929-.051,1.027-1.18.818-1.914.818Zm-14.454-69.09c-1.831,0-2.4-.534-2.37-2.374.1-6.347.037-12.7.037-19.05,0-6.426.042-12.856-.028-19.282,0-1.6.465-2.16,2.109-2.151q14.4.1,28.807,0c1.6,0,2.128.465,2.151,2.119.088,6.249.144,6.249-6.128,6.249-5.111,0-10.222.079-15.333-.037-1.858-.046-2.356.609-2.346,2.4,0,6.04-.046,6.04,6.091,6.04,4.414,0,8.828.056,13.242-.028,1.589-.028,2.142.465,2.17,2.1.093,6.263.149,6.263-6.124,6.263-4.414,0-8.828.056-13.242-.028-1.617-.033-2.24.5-2.123,2.128a28.142,28.142,0,0,1,0,4.646c-.191,2.012.465,2.7,2.565,2.653,6.272-.135,12.545,0,18.817-.084,1.761-.023,2.439.414,2.43,2.323,0,6.04.056,6.04-6.091,6.04-8.2.042-16.4-.009-24.611.079Zm35.66,65.373c-1.008.2-1.162-1.626-2.323-1.858.288-1.1,1.821-1.092,2.012-2.277,1.12.3,1.106,1.858,2.5,1.858-.808.957-1.371,2.137-2.161,2.286Zm11.035-14.8c-2.62.023-5.241,0-7.857,0h-7.857c-.585,0-1.394.056-1.394-.808.033-.729.8-.572,1.306-.572h15.709c.576,0,1.45-.177,1.487.66S304.46,186.515,303.865,186.519Zm10.222-18.557c-.3.59-.929.362-1.459.427a1.942,1.942,0,0,1-.232,0H289.188c-.5,0-1.171.232-1.445-.409a1.442,1.442,0,0,1,.465-1.459c.516-.562,1.254-1.561,1.677-1.459,2.89.688,4.539-2.356,7.174-2.212.957.051,1.264-.711,1.738-1.315,3.373-4.3,8.363-3.782,10.686,1.166.553,1.171,1,2.17,2.476,2.323a2.383,2.383,0,0,1,1.612,1.245C313.934,166.8,314.417,167.312,314.087,167.962ZM301.17,131.28c-5-4.521-7.94-10-7.82-17.344-.437-8.326,5.952-16.727,13.939-19.932,8.754-3.522,16.805-1.914,24.082,3.977,1.129.929,1.394,1.817.084,2.788-.307.232-.558.534-.85.785-1.343,1.162-2.523,2.848-4.079,3.341-1.784.562-2.816-1.719-4.326-2.555-7.6-4.233-17.191.325-19.022,9.167a13.825,13.825,0,0,0,12.108,16.8,11.616,11.616,0,0,0,9.293-3.4c1.134-1.1,1.919-1.245,3.053-.06a42.629,42.629,0,0,0,3.8,3.4c1.227,1.008,1.013,1.812-.065,2.816C323.352,138.542,309.334,138.663,301.17,131.28Zm20.1-10.222c.655,1.622-.181,2.788-1.807,2.467-1-.181-1.3.042-1.7.929-.674,1.487-2.1,1.677-2.969.367-.646-.98-1.05-.892-2.016-.465a1.528,1.528,0,0,1-2.258-1.626c.144-1.273.121-1.654-1.148-2.17a1.487,1.487,0,0,1-.223-2.741c1.055-.678,1.185-1.115.567-2.161s.613-2.323.994-2.165c2.281.813,2.607-1.254,3.675-2.2a6.112,6.112,0,0,0-.339-1.784c-1.213-2.244.177-5.641,2.648-5.8,1.1-.074,3.141.655,3.224,1.25.19,1.254,2.611,1.8.994,3.763-.646.785-.553,2.137-2.049,2.379-.4.065-.386.771-.386,1.236,1.431.339,2.788.7,2.068,2.718-.288.795.358.976.929,1.273,1.584.8,1.705,1.942.293,3.071-.623.474-.85.785-.5,1.645ZM324.917,158a2.267,2.267,0,0,1-4.53,0,2.327,2.327,0,0,1,2.323-2.453,2.4,2.4,0,0,1,2.207,2.43ZM347.3,181.013a36.512,36.512,0,0,1-1.919,6.588c-4.688,2.992-9.757,5.264-14.659,7.9-.874.465-1.259-.07-1.608-.743-3.071-5.887-6.128-11.778-9.237-17.656-.65-1.222,0-1.622.929-2.091,4.047-2.091,8.075-4.219,12.108-6.328.813-5.645,1.645-11.29,2.416-16.945.167-1.227.716-1.487,1.858-1.31,6.324.985,12.656,1.9,18.98,2.885.725.111,1.924-.06,1.682,1.32-.929,5.385-1.371,10.849-2.634,16.183a26.484,26.484,0,0,1-5.5,4.21l-5.576-.548c1.078,2.151,2.472,4.177,3.159,6.523Zm-9.028-58.64c0-.716,1.227-2.04,1.886-2.026.8.023,1.575,1.166,2.458,1.9-.734.929-1.361,2.114-2.291,2.133A2.441,2.441,0,0,1,338.271,122.373Zm19.236,77.188c-1.91,0-2.672-.976-2.607-2.351a2.235,2.235,0,0,1,2.481-2.2,2.1,2.1,0,0,1,2.16,2.253,2.179,2.179,0,0,1-2.035,2.3Zm8.363-98.082h-3.926c-3.08,0-3.085,0-3.09,3,0,9.52-.088,19.05.06,28.561.037,2.43-.711,3.183-3.02,2.909-2.058-.246-4.707.836-6.077-.423-1.51-1.394-.507-4.107-.525-6.235q-.111-12.656,0-25.313c0-1.882-.465-2.634-2.462-2.532-2.936.149-5.882,0-8.828.056-1.394.033-1.965-.465-1.891-1.891a34.9,34.9,0,0,0,0-4.409c-.125-1.687.618-2.1,2.179-2.086,5.26.07,10.524.028,15.8.028s10.528.046,15.8-.028c1.608-.023,2.133.493,2.156,2.119.06,6.249.125,6.249-6.161,6.249Z"/><path class="b" d="M385.38,198.469c-12.568.093-22.855,10.064-22.86,22.358,0,12.08,10.4,22.107,22.767,22.3,11.077.158,23-8.925,23.036-22.3C408.355,207.743,397.018,198.386,385.38,198.469Zm-6.04,40.566c-.042.037-.367-.093-.376-.163a3.651,3.651,0,0,1,1.171-2.983,2.844,2.844,0,0,1-.8,3.146Zm12.183-.111c-.028.079-.349.144-.39.093a3.573,3.573,0,0,1-.85-3.067c.441.321.627.381.664.492.269.808.948,1.533.571,2.481Zm-6.091-3.754a14.018,14.018,0,1,1,13.878-14.1,14.018,14.018,0,0,1-13.878,14.1Z" transform="translate(-194.084 -106.255)"/><path class="c" d="M548.5,221.823c0-6.426.042-12.856-.028-19.282,0-1.6.465-2.16,2.109-2.151q14.4.1,28.807,0c1.6,0,2.128.465,2.151,2.119.088,6.249.144,6.249-6.128,6.249-5.111,0-10.222.079-15.333-.037-1.859-.046-2.356.609-2.346,2.4,0,6.04-.046,6.04,6.091,6.04,4.414,0,8.828.056,13.242-.028,1.589-.028,2.142.465,2.17,2.1.093,6.263.149,6.263-6.124,6.263-4.414,0-8.828.056-13.242-.028-1.617-.033-2.24.5-2.123,2.128a28.119,28.119,0,0,1,0,4.646c-.19,2.012.465,2.7,2.565,2.653,6.272-.135,12.545,0,18.817-.084,1.761-.023,2.439.414,2.43,2.323,0,6.04.056,6.04-6.091,6.04-8.21,0-16.415-.051-24.625.037-1.831,0-2.4-.534-2.37-2.374C548.557,234.521,548.5,228.17,548.5,221.823Z" transform="translate(-293.636 -107.284)"/><path class="c" d="M302.971,227.219a13.911,13.911,0,0,0,7.113-15.491,14.714,14.714,0,0,0-13.5-11.216c-6.723-.223-13.474-.056-20.193-.107-1.3,0-1.775.465-1.775,1.77q.042,19.612,0,39.228c0,1.464.623,1.858,1.961,1.817,1.78-.07,3.564-.088,5.339,0,1.538.084,2.03-.534,1.993-2.026-.079-3.169-.033-6.342,0-9.516,0-.678-.163-1.422.367-1.993.86-.929,6.347-.465,7.127.637,1.728,2.463,3.392,4.971,5.078,7.462a15.091,15.091,0,0,1,10.106,0,.322.322,0,0,0,0-.065.836.836,0,0,0,.023-.088c.209-.98-.5-1.635-.976-2.346a48.455,48.455,0,0,0-3.345-4.73C300.941,229.017,301.011,228.292,302.971,227.219Zm-6.245-7c-3.9,1.338-7.954.5-11.946.609-.813,0-.878-.734-.883-1.394V214.79c0-6.04,0-6.04,6.04-6.012,2.221,0,4.474-.269,6.644.562,2.69,1.036,4.024,2.727,4.07,5.278C300.69,217.527,299.608,219.26,296.727,220.222Z" transform="translate(-147.025 -107.285)"/><path class="d" d="M542.377,319.083c-8.777-1.278-17.563-2.509-26.321-3.9-1.7-.265-2.109.149-2.323,1.752-1.58,10.919-3.252,21.837-4.939,32.719-.256,1.645.33,2.133,1.9,2.356q13.284,1.858,26.544,3.968c1.394.218,1.9-.084,2.1-1.538.846-6.189,1.817-12.359,2.751-18.539.748-4.958,1.5-9.915,2.174-14.362C544.588,319.478,543.52,319.241,542.377,319.083ZM515.452,323.1l25.141,3.717-.153,1.041-25.127-3.717Zm20.355,11.342c1.152.2,2.291.465,3.434.674-.056.265-.112.525-.163.79-1.12-.1-2.235-.181-3.35-.307-.376-.042-.808-.218-.79-.674S535.454,334.378,535.807,334.443Zm-8.145-.511c1.724-.929,2.992.153,4.316.395-1.38.669-2.676.414-4.3-.395Zm4.223,2.788a4.6,4.6,0,0,1-4.312-.716,4.693,4.693,0,0,1,4.33.7Zm-2.788-6.793c-.3-.046-.59-.214-.544-.585a.488.488,0,0,1,.669-.418c1.273.4,2.741,0,4.344,1.2a10.708,10.708,0,0,1-4.442-.2ZM526.514,329c-1.775.553-3.132.051-4.488-.172-.321-.051-.572-.3-.4-.65a.613.613,0,0,1,.5-.316C523.462,328.166,524.949,327.934,526.514,329Zm-11.9-1.784c.07-.4.386-.427.688-.376,1.3.223,2.69.116,4.34,1.152-1.9.59-3.2-.088-4.53-.163a.492.492,0,0,1-.5-.6Zm-.06,2.147c2.588-.237,5.111.627,7.638.86,2.142.19,4.265.6,6.4.929.381.06.8.158.813.646a.511.511,0,0,1-.641.492c-4.767-.716-9.534-1.454-14.3-2.184.033-.232.06-.479.093-.729Zm6.087,5.543a6.731,6.731,0,0,1,4.879.8,5.75,5.75,0,0,1-4.879-.79Zm4.154,2.56c-1.993.79-2.49.748-4.646-.465,1.835-.506,3.118.139,4.646.479Zm-3.852-4.66a5.264,5.264,0,0,1,4.433.7A5.3,5.3,0,0,1,520.939,332.8Zm-7.838,5.422c.116-.855,1.022-.074,1.6-.228.818.344,2.574-.293,2.444.776-.158,1.329-1.612.177-2.49.191-.59,0-1.687.218-1.561-.739Zm-1.673,8.484c1.826-.488,3.08.079,4.521.465-1.756.873-2.216.818-4.525-.465Zm1.189-1.436c-.3-.033-.613-.2-.548-.581a.552.552,0,0,1,.725-.376c1.236.274,2.579.139,3.661,1.018-1.357.59-2.588.079-3.842-.074Zm-.023-2.862a5.854,5.854,0,0,1,4.237.646c-1.9.711-2.769.567-4.256-.646Zm.088-2.086a5.445,5.445,0,0,1,4.59.855c-1.877.065-3.206.451-4.6-.855Zm.441-4.354c1.793-.465,3.215.056,4.962.52-1.793.79-3,.646-4.967-.525Zm.674-1.914a3.994,3.994,0,0,1,4.209.767c-1.584.084-2.918.181-4.214-.767Zm.358-2.161a4.494,4.494,0,0,1,4.3.6,5.57,5.57,0,0,1-4.307-.6Zm5.339,16.7c-.367-.051-.8-.214-.762-.692s.558-.567.878-.465c1.092.39,2.555-.116,3.6,1.529-1.6-.144-2.667-.232-3.717-.372Zm-.437-2.913c1.454-.172,2.941-.437,4.521.79a5.577,5.577,0,0,1-4.525-.79Zm.107-2.082c1.858-.688,3.146,0,4.419.581a5.1,5.1,0,0,1-4.423-.581Zm4.107-1.1a2.726,2.726,0,0,1-.892-.158c-.813-.321-1.9.242-2.472-.776-.042-.084.246-.506.344-.493,1.12.139,2.24.325,3.35.525.1,0,.177.228.26.348-.065.335-.237.576-.6.553Zm-3.3-3.252a6.325,6.325,0,0,1,4.883.683,5.752,5.752,0,0,1-4.888-.669Zm9.729,10.524a7,7,0,0,1-4.256-.8c.7-.274.929-.465,1.078-.4,1.059.358,2.3-.139,3.252.669.074.07-.009.548-.079.553Zm-3.531-2.936c1.394-.711,2.676-.093,3.973.465-1.422.739-2.7.209-3.977-.451Zm.367-2.193c1.436-.548,2.732-.139,4.7.437-2.1.595-3.448.506-4.721-.423Zm.516-2.04a4.562,4.562,0,0,1,4.488.6,5.81,5.81,0,0,1-4.493-.59Zm-.167-1.956c1.6-.929,1.826-.892,4.558.316-1.794.637-3.043-.07-4.563-.3Zm-.274-2.291a6.472,6.472,0,0,1,5.515.511c-1.979.511-3.415.009-5.52-.5Zm6.077,11.578a7.22,7.22,0,0,1,4.846.627c-2.068.729-3.466.019-4.851-.613Zm.153-2.054c1.659-.966,2.941.051,4.256.409a4.381,4.381,0,0,1-4.261-.395Zm4.182-1.138a2.157,2.157,0,0,1-.9-.149c-.864-.441-2.081.246-2.7-.86-.042-.079.256-.5.353-.465,1.2.167,2.407.376,3.6.6.107,0,.177.228.265.348a.558.558,0,0,1-.613.534Zm-3.336-3.215a6.105,6.105,0,0,1,4.307.488c-1.543.771-2.923.1-4.307-.474Zm4.484-1.487c-.056.153-.344.367-.465.335-1.231-.3-2.672.06-3.987-1.124,1.594-.6,2.788.177,4.005.167a.465.465,0,0,1,.446.637Zm-3.847-2.765a3.962,3.962,0,0,1,4.182.65,6.24,6.24,0,0,1-4.182-.637Zm.465-1.947c1.44-.781,1.645-.767,4.544.4a6.492,6.492,0,0,1-4.539-.381ZM536,330.949a.5.5,0,0,1-.465-.646c.079-.386.372-.437.7-.362,1.3.3,2.737.046,4.386,1.208-1.97.5-3.276-.135-4.618-.186Zm4.823-5.8-25.118-3.717c.056-.348.116-.7.172-1.055l25.09,3.768Z" transform="translate(-272.364 -168.702)"/><path class="c" d="M207.5,200.406c-4.182-.149-8.363-.084-12.545-.116l-1.208,2.323h0a2.621,2.621,0,0,0,.042,1.134.79.79,0,0,1,0,.1c.046.232.1.465.139.692.153.883.088,1.724-1.417,2.212-.637.2-1.227,1.622-1.97.874-.929-.929-3.006-1.129-2.346-3.252a8.669,8.669,0,0,0,.172-1.817l-1.1-2.258c-1.478.386-.929,1.608-.957,2.5-.033,11.151,0,22.3,0,33.43,0,7.178,0,7.132,7.295,6.932,1.547-.042,2.012-.59,1.979-2.058-.074-3.094.084-6.193-.06-9.293-.1-1.989.465-2.788,2.569-2.667a75.532,75.532,0,0,0,9.511-.028c5.4-.4,9.855-2.672,12.5-7.606C225.182,212.078,218.435,200.787,207.5,200.406Zm-.976,20.276c-3.3.3-6.644.116-9.966.153-1.041,0-1.3-.609-1.3-1.5,0-3.015.028-6.04,0-9.046,0-1.259.627-1.584,1.738-1.547,1.468.042,2.936,0,4.409,0v.06a47.175,47.175,0,0,1,4.865.028c3.461.358,6.04,2.983,6.04,5.938a6.121,6.121,0,0,1-5.78,5.915Z" transform="translate(-99.705 -107.23)"/><path class="c" d="M631.346,220.122c-.437-8.326,5.952-16.727,13.939-19.932,8.754-3.522,16.806-1.914,24.082,3.977,1.129.929,1.394,1.817.084,2.788-.307.232-.557.534-.85.785-1.343,1.162-2.523,2.848-4.079,3.341-1.784.562-2.816-1.719-4.326-2.555-7.6-4.233-17.191.325-19.022,9.167a13.825,13.825,0,0,0,12.108,16.8,11.616,11.616,0,0,0,9.292-3.4c1.134-1.1,1.919-1.245,3.053-.06a42.616,42.616,0,0,0,3.8,3.4c1.227,1.008,1.013,1.812-.065,2.816-8.043,7.476-22.06,7.6-30.2.214C634.161,232.945,631.225,227.453,631.346,220.122Z" transform="translate(-337.995 -106.186)"/><path class="c" d="M741.319,200.427c5.264,0,10.528.046,15.8-.028,1.608-.023,2.133.493,2.156,2.119.093,6.249.144,6.249-6.128,6.249h-3.926c-3.08,0-3.085,0-3.09,3,0,9.52-.088,19.05.06,28.561.037,2.43-.711,3.183-3.02,2.909-2.058-.246-4.707.836-6.077-.423-1.51-1.394-.506-4.107-.525-6.235q-.111-12.656,0-25.313c0-1.882-.465-2.634-2.462-2.532-2.936.149-5.882,0-8.828.056-1.394.033-1.965-.465-1.891-1.891a34.893,34.893,0,0,0,0-4.409c-.125-1.687.618-2.1,2.179-2.086C730.809,200.469,736.073,200.427,741.319,200.427Z" transform="translate(-387.274 -107.288)"/><path class="e" d="M414.254,346.031a10.95,10.95,0,0,0-1.1-.167,44.012,44.012,0,0,0-4.7-.033c0,.9.033,1.812-.037,2.709-.06.711-.321,1.394-1.231,1.315-.762-.06-.962-.683-1-1.31-.06-.9-.042-1.807-.06-2.713h-4.581c-.033.776-.07,1.557-.107,2.323.256.929-.135,1.64-1.087,1.478-1.208-.2-1.2-1.162-.8-2.128l-.07-2.1-.139.033-.139-.056a17.118,17.118,0,0,1-4.493-.125c-.033.832-.112,1.663-.093,2.49s-.3,1.394-1.148,1.315c-.7-.046-.971-.562-.952-1.287.023-.827-.06-1.659-.1-2.486a18.121,18.121,0,0,1-4.484.074,4.679,4.679,0,0,0-.167,2.476,1,1,0,0,1-1.018,1.227c-.715.023-1.092-.418-1.106-1.152,0-.832-.051-1.663-.079-2.5h0l-1.273.023h-1.273c-3.252,0-3.252,0-3.252,3.141v18.069c0,3.252,0,3.252,3.146,3.252h25.94c5.111,0,5.111,0,5.2-5.041,0-6.286-.4-12.568.2-18.85Zm-30.294,7.685c1.064,0,1.306.59,1.231,1.5.088.971-.372,1.361-1.347,1.394-1.078,0-1.51-.414-1.51-1.5-.014-1.2.627-1.4,1.612-1.394Zm-.153,4.228c1.138,0,1.51.539,1.394,1.57.116,1.022-.223,1.589-1.394,1.594s-1.738-.353-1.733-1.57.585-1.6,1.719-1.594Zm-.13,7.388c-1.241.181-1.6-.465-1.589-1.58,0-1.213.627-1.552,1.724-1.556s1.422.511,1.426,1.543c-.014,1.129-.348,1.77-1.575,1.594Zm5.264-11.616c1.078,0,1.594.4,1.473,1.5.1,1.2-.632,1.394-1.6,1.394-1.069,0-1.236-.627-1.25-1.505-.028-1,.395-1.375,1.366-1.385Zm.358,11.653c-1.022,0-1.784-.111-1.766-1.436,0-1.055.177-1.766,1.468-1.742,1.12.023,1.752.4,1.663,1.594.06.99-.223,1.6-1.38,1.584Zm-.3-4.261c-1.106,0-1.552-.465-1.431-1.533-.093-1,.181-1.622,1.357-1.631s1.747.316,1.761,1.543-.544,1.631-1.7,1.622Zm5.278,4.265c-1.027,0-1.524-.321-1.547-1.431-.023-1.292.525-1.766,1.775-1.752,1.134,0,1.473.576,1.361,1.612C396,364.993,395.413,365.383,394.275,365.374Zm-.065-4.3c-1.111,0-1.436-.465-1.45-1.51,0-1.152.348-1.626,1.57-1.617s1.691.465,1.51,1.622c.19,1.324-.585,1.491-1.649,1.505Zm.06-4.488c-1.036.107-1.524-.325-1.533-1.417s.465-1.468,1.505-1.478,1.682.325,1.649,1.556-.66,1.417-1.617,1.338Zm5.306-2.9c.957.028,1.584.139,1.58,1.338,0,1.11-.246,1.7-1.51,1.635-1.018-.051-1.659-.274-1.394-1.347-.191-1.138.163-1.659,1.306-1.626Zm.042,11.681c-1.361.028-1.394-.79-1.394-1.789-.023-1.171.623-1.394,1.6-1.394,1.176,0,1.394.72,1.282,1.687.065,1.087-.441,1.473-1.505,1.5Zm.135-4.284c-1.241,0-1.557-.465-1.58-1.649,0-1.357.688-1.445,1.742-1.477,1.292-.042,1.333.725,1.273,1.677.135,1.073-.344,1.445-1.454,1.45Zm5-7.378c.985,0,1.858,0,1.8,1.394-.033,1.008-.3,1.649-1.329,1.487-1.055.074-1.8-.065-1.812-1.259-.033-.966.153-1.645,1.32-1.622Zm.13,11.616c-1.1.135-1.477-.4-1.482-1.478,0-1.185.465-1.673,1.659-1.659,1.273,0,1.5.739,1.5,1.812-.019,1.227-.711,1.426-1.7,1.343Zm.139-4.27c-1.394.163-1.626-.59-1.626-1.673s.506-1.436,1.543-1.459c1.176-.023,1.649.414,1.635,1.6s-.469,1.761-1.57,1.547Zm5.38-7.36c1,0,1.422.432,1.329,1.417.125,1.12-.437,1.487-1.505,1.468-.994,0-1.343-.465-1.366-1.417-.046-1.106.46-1.464,1.524-1.45Zm-.107,4.237c1.078,0,1.561.432,1.45,1.487.074.971-.121,1.64-1.306,1.668s-1.622-.465-1.6-1.622c0-1.018.335-1.519,1.436-1.515Zm0,7.434c-1.347.023-1.394-.776-1.431-1.784,0-1.176.646-1.394,1.617-1.394,1.171,0,1.394.7,1.273,1.594.084,1.189-.432,1.57-1.5,1.584Z" transform="translate(-203.314 -184.843)"/><path class="f" d="M466.35,127.934c-.706,6.1-3.2,11.179-8.205,14.975-11.179,8.47-28.017,2.2-30.944-11.616a19.692,19.692,0,0,1,16.262-23.877c11.021-1.858,21.452,6.324,22.664,17.753.033.307.1.613.149.929-1.547,1.073-3.215.5-4.851.372.237-9.376-9.464-16.727-18.757-14.18-7.587,2.068-12.545,9.516-11.253,16.926a15.3,15.3,0,0,0,16.164,12.907,15,15,0,0,0,13.939-14.71C463.135,127.572,464.854,126.647,466.35,127.934Z" transform="translate(-228.462 -57.367)"/><path class="g" d="M713.66,378.706c-4.688,2.992-9.757,5.264-14.659,7.9-.874.465-1.259-.07-1.608-.743-3.071-5.887-6.128-11.778-9.237-17.656-.651-1.222,0-1.622.929-2.091,4.047-2.091,8.075-4.219,12.108-6.328,1.594-.767,3.252-1.431,4.767-2.323,1.264-.743,1.951-.725,2.63.734,1.166,2.509,2.542,4.925,3.828,7.383,1.078,2.17,2.453,4.182,3.164,6.542-4.786,1.557-4.786,1.557-2.439,5.859A7.18,7.18,0,0,0,713.66,378.706Z" transform="translate(-368.281 -191.118)"/><path class="h" d="M727.735,347.712c-1.287-2.458-2.662-4.874-3.829-7.383-.678-1.459-1.366-1.478-2.63-.734-1.519.892-3.173,1.556-4.767,2.323.813-5.645,1.645-11.29,2.416-16.945.167-1.227.716-1.487,1.859-1.31,6.324.985,12.656,1.9,18.98,2.885.725.112,1.924-.06,1.682,1.32-.929,5.385-1.371,10.849-2.634,16.183-4.646-1.51-4.646-1.51-5.427,3.29-.046.3-.051.613-.074.929Z" transform="translate(-383.601 -173.254)"/><path class="i" d="M254.636,373.845c.99-.3.971.353.971,1.013,0,5.329-.023,10.659,0,15.988,0,1.231-.553,1.6-1.691,1.594-8.651,0-17.3-.033-25.949,0-1.58,0-1.705-.836-1.705-2.058,0-4.646-.07-9.265-.112-13.9.413-1.013-.465-2.286.627-3.164,4.242,3.336,8.916,6.04,13.4,9.023.869.581,1.44.037,2.077-.376Z" transform="translate(-121.075 -199.866)"/><path class="j" d="M202.913,354.6c-1.106.878-.214,2.151-.627,3.164-6.04,0-12.038-.033-18.06.042-1.859.023-2.7-.525-2.667-2.5.074-4.786.037-9.571,0-14.357,0-1.394.265-2.458,1.886-2.62.06,2.077,1.394,3.145,3.011,4.158q4.5,2.843,8.828,5.924a2.061,2.061,0,0,0,2.834,0q5.041-3.717,10.259-7.141a2.992,2.992,0,0,0,1.515-2.839,1.477,1.477,0,0,1,1.612,1.589c-.056,4.832.395,9.674-.218,14.5A57.227,57.227,0,0,0,202.913,354.6Z" transform="translate(-97.202 -181.133)"/><path class="g" d="M584.693,145.529a13.8,13.8,0,0,1-15.755-1.984c-4.814-4.419-6.189-10.329-3.777-16.239a14.008,14.008,0,0,1,13.112-8.623c.093,4.758-.311,9.529.214,14.283Z" transform="translate(-301.949 -63.536)"/><path class="c" d="M496.394,200.386c1.12.13,1,.994,1,1.752,0,9.664.158,19.333-.074,28.993-.2,8.307-8.754,14.427-17.335,12.759a20.741,20.741,0,0,1-9.757-4.59c-2.035-1.738-2.1-2.384-.251-4.233.985-.985,2.03-1.914,2.946-2.955,1-1.143,1.677-.952,2.5.223a7.364,7.364,0,0,0,6.807,3.206c3.647-.228,5.826-3.025,5.85-7.327q.065-12.87,0-25.745c0-1.622.506-2.323,2.119-2.082.037,1,.107,2.007.112,3.011q.074,12.429.13,24.848c-.2,3.28.7,4.544,3.1,4.4,2.17-.125,2.913-1.329,2.713-4.4.028-.846.07-1.687.074-2.528Q496.362,213.052,496.394,200.386Z" transform="translate(-250.9 -107.257)"/><path class="k" d="M212.036,321.641c.042-1.436-.344-2.1-1.933-2.091-7.573.06-15.142.047-22.716,0-1.3,0-1.8.465-1.77,1.766.042,2.323,0,4.646-.028,6.969.06,2.077,1.394,3.146,3.011,4.158q4.5,2.843,8.828,5.924a2.061,2.061,0,0,0,2.834,0q5.041-3.717,10.259-7.141a2.992,2.992,0,0,0,1.515-2.839C212.041,326.12,211.967,323.875,212.036,321.641Zm-3.057.613v.86H189.033v-.794C195.677,322.184,202.33,322.282,208.979,322.254Zm-19.946,7.685v-.516H208.97v.516ZM207.8,326.9H190.143c-.516,0-1.268.079-1.255-.655s.762-.627,1.278-.627H207.8c.516,0,1.268-.093,1.255.65s-.725.627-1.241.632Z" transform="translate(-99.36 -171.079)"/><path class="b" d="M264.84,155.235q-7.039-1.394-14.12-2.588a3.269,3.269,0,0,0-4.084,2.541,47.443,47.443,0,0,0-1.124,6.844c-.283,3.132.595,3.661,3.582,4.535,4.5,1.324,10.3-.432,13.037,5.548.929-1.208.562-2.737,1.858-3.048,2.37-.571,2.788-2.421,3.146-4.363.283-1.6.465-3.206.748-4.8C268.339,157.135,267.549,155.769,264.84,155.235Zm-1.045,9.028-15.76-2.727c.051-.316.107-.637.158-.952l15.769,2.69c-.06.33-.13.65-.167.99Zm.558-3.211L248.63,158.31c.056-.311.112-.618.163-.929l15.7,2.7C264.441,160.406,264.4,160.727,264.353,161.052Z" transform="translate(-131.414 -81.684)"/><path class="l" d="M674.255,162.1c-.367-2.281-.85-4.544-1.292-6.816a3.093,3.093,0,0,0-3.889-2.713c-5.018.818-10.017,1.78-15.017,2.7a2.527,2.527,0,0,0-2.36,2.226,26.656,26.656,0,0,0,1.547,9.757,1.859,1.859,0,0,0,1.11,1.115c1.9.353,2.565,1.617,2.9,3.592,1.51-3.554,4.549-4.084,7.643-4.549,2.058-.307,4.107-.655,6.156-1.018C673.386,165.97,674.6,164.376,674.255,162.1Zm-19.486-4L670.5,155.4l.167.929-15.732,2.732Zm1.245,7.3-.167-.878,12.382-2.184c.065.307.13.613.19.929Zm-.539-3.122c-.06-.325-.116-.646-.177-.971l15.737-2.723c.06.316.116.637.172.952Z" transform="translate(-348.896 -81.65)"/><path class="l" d="M640.6,301.366a1.859,1.859,0,0,0-1.1-1.12c-2-.335-1.951-1.858-2.3-3.666-2.1,3.954-5.673,3.717-9.167,3.782-1.691.033-3.387.251-5.074.418-2.286.228-3.489,1.505-3.462,3.8a36.653,36.653,0,0,0,.4,6.709c.525,2.676,1.273,3.485,4.038,3.35,4.855-.237,9.711-.6,14.561-.976,1.394-.111,2.848-.873,2.9-2.258C641.527,308.047,641.718,304.632,640.6,301.366Zm-3.043,2.811-12.21.9c-.028-.246-.051-.5-.079-.743C629.243,303.419,633.359,303.8,637.555,304.177Zm-15.5,3.378,15.951-1.1c0,.274.042.548.065.822-5.269.711-10.584.85-15.881,1.222A8.086,8.086,0,0,0,622.055,307.554Zm.307,4.107c0-.279-.037-.553-.06-.832l15.932-1.124c0,.283.042.567.065.85-5.278.581-10.589.925-15.918,1.087Z" transform="translate(-331.664 -158.781)"/><path class="m" d="M324.127,280.459c-.381-.125-.827-.158-.976-.618v.065a15.091,15.091,0,0,0-10.106,0c-.585.367-1.176.725-1.756,1.1a12.429,12.429,0,0,0-2.565,18.752c1.306,1.454,3.285,2.444,2.932,4.874l3.661,1.162c.3-.042.846-.028.874-.139.53-2.17,2.323-1.6,3.782-1.821a12.545,12.545,0,0,0,10.185-9.293C331.51,289.106,329.461,284.348,324.127,280.459Zm2.123,16.415a9.813,9.813,0,0,1-18.018-5.311,9.294,9.294,0,0,1,6.5-9.111c3.926-1.687,7.9-.637,10.779,2.862a9.557,9.557,0,0,1,.734,11.56Z" transform="translate(-163.589 -149.388)"/><path class="h" d="M191.426,181.563l-1.2,2.323c-.966.093-1.357-.112-1.12-1.278.395-1.947,1.045-3.884.729-5.947a52.327,52.327,0,0,0-1.445,5.919c-.153.743-.107,1.784-1.338.874a63.93,63.93,0,0,0-2.5-11.049c-.516.771-.107,1.394-.028,2.082.358,3.178,1.826,6.17,1.533,9.455l-1.2-.1-1.1-2.258c-.4-1.31-1.431-2.17-2.235-3.2a7.95,7.95,0,1,1,12.192-.009A15.011,15.011,0,0,0,191.426,181.563Z" transform="translate(-96.178 -88.503)"/><path class="h" d="M521.228,194.5q-.033,12.666-.065,25.336c0,.841-.046,1.682-.074,2.528h-5.817q-.061-12.424-.13-24.848c0-1-.074-2.007-.112-3.011.065-1.719.135-3.438.2-5.157l5.831.084Z" transform="translate(-275.734 -101.373)"/><path class="n" d="M594.863,132.969c-.525-4.753-.121-9.525-.214-14.283a13.939,13.939,0,0,1,14.227,14.222Z" transform="translate(-318.327 -63.54)"/><path class="f" d="M755.231,150.152H743.89c-.576,0-1.361.3-1.673-.39s.26-1.324.646-1.858c.3-.418.781-.971,1.2-.994,2.3-.107,4.1-1.6,6.175-2.082a5.325,5.325,0,0,0,3.438-2.2c2.667-3.508,7.9-2.732,10.082,1.468.678,1.306,1.124,2.639,2.909,2.848.5.06,1.008.678,1.394,1.148s.813,1.031.464,1.677-.929.39-1.468.4h-6.04Z" transform="translate(-397.316 -75.171)"/><path class="f" d="M257.071,93.074H245.716c-.65,0-1.552.311-1.826-.548-.223-.688.311-1.32.767-1.858.242-.288.59-.711.883-.7,2.607.051,4.512-1.928,6.9-2.346A3.671,3.671,0,0,0,255.022,86c2.918-3.921,7.959-3.587,10.222.7.771,1.454,1.357,2.881,3.252,3.164.706.1,1.069.827,1.422,1.44.7,1.217.53,1.812-1.036,1.789C264.956,93.036,261.011,93.074,257.071,93.074Z" transform="translate(-130.544 -44.576)"/><path class="f" d="M632.283,351.165H620.691c-.5,0-1.171.232-1.445-.409a1.443,1.443,0,0,1,.465-1.459c.516-.562,1.255-1.561,1.677-1.459,2.89.688,4.539-2.356,7.174-2.212.957.051,1.264-.711,1.738-1.315,3.373-4.3,8.363-3.782,10.686,1.166.553,1.171,1,2.17,2.477,2.323a2.384,2.384,0,0,1,1.612,1.245c.311.511.794,1.041.465,1.691s-.929.362-1.459.427a1.954,1.954,0,0,1-.232,0Z" transform="translate(-331.489 -182.775)"/><path class="i" d="M395.877,446.494H384.763c-.581,0-1.394.279-1.687-.362-.358-.808.335-1.422.846-1.993a1.951,1.951,0,0,1,1.566-.873c1.752.218,2.955-1.022,4.386-1.454,2.411-.729,4.014-2.216,5.831-3.717,2.983-2.458,7.113-1.055,8.86,2.881.562,1.264,1.031,2.323,2.62,2.463.516.051,1.041.627,1.44,1.069a1.459,1.459,0,0,1,.465,1.478c-.246.66-.892.506-1.394.511Q401.773,446.5,395.877,446.494Z" transform="translate(-205.036 -233.891)"/><path class="g" d="M387.63,146.45a5.889,5.889,0,0,0,.376-2.955c0-7.192.074-14.4-.042-21.568-.037-2.077.818-2.4,2.6-2.4s2.625.311,2.6,2.393c-.1,8.191-.023,16.387,0,24.579A24.406,24.406,0,0,1,387.63,146.45Z" transform="translate(-207.527 -63.993)"/><path class="o" d="M227.52,373.113a58.436,58.436,0,0,1,8.363-.093c5.608.051,11.216.1,16.824.172.892,0,1.859-.279,2.648.437l-12.364,8.154c-.637.413-1.208.957-2.077.376C236.436,379.144,231.762,376.449,227.52,373.113Z" transform="translate(-121.808 -199.649)"/><path class="j" d="M676.791,244.482c-.59-.3-1.236-.465-.929-1.273.725-2.016-.637-2.379-2.068-2.718-.395.362-.7.962-1.394.525-.4-.065-.5-.321-.437-.683-.465-1.064-1.464-.716-2.267-.883-1.069.929-1.394,3.011-3.675,2.2-.381-.135-1.626,1.1-.994,2.165s.465,1.482-.567,2.161a1.485,1.485,0,0,0,.223,2.741c1.268.516,1.287.929,1.148,2.17a1.536,1.536,0,0,0,2.258,1.626c.966-.409,1.394-.5,2.016.465.864,1.31,2.3,1.12,2.969-.367.4-.878.7-1.1,1.7-.929,1.626.3,2.462-.846,1.807-2.467-.348-.86-.121-1.171.52-1.687C678.5,246.424,678.375,245.281,676.791,244.482Zm-5.98,4.646a2.323,2.323,0,0,1-2.4-2.56,2.494,2.494,0,0,1,2.5-2.467c1.552.274,2.5,1.069,2.439,2.634a2.284,2.284,0,0,1-2.542,2.407Z" transform="translate(-355.298 -128.195)"/><path class="j" d="M595.18,149.36l14.013-.06c-.07,5.771-2.746,9.934-7.806,12.624Z" transform="translate(-318.644 -79.931)"/><path class="n" d="M372.574,153.6c0-6.254.1-12.512-.056-18.766-.056-2.253,1.166-2.054,2.607-2.049s2.672-.232,2.616,2.035c-.153,6.254-.051,12.512-.046,18.771Z" transform="translate(-199.436 -71.085)"/><path class="m" d="M356.343,162.905h5.111a2.946,2.946,0,0,0,1.859-.046,24.408,24.408,0,0,0,5.524.051c.86,1.742-.748.929-1.12.929-4.01.07-8.019.042-12.034.042-3.935,0-7.871.028-11.806-.037-.576,0-1.7.65-1.677-.8l4.944-.135c1.742.465,2.323-.2,2.221-1.984-.135-3,0-6.012-.06-9.018-.033-1.264.3-1.724,1.649-1.738,3.471-.037,3.471-.107,3.471,3.359,0,2.546.074,5.111-.033,7.629C354.322,162.692,354.777,163.337,356.343,162.905Z" transform="translate(-183.205 -80.393)"/><path class="k" d="M524.283,437.518H541.9c.762,0,2-.321,1.933.929-.051.985-1.18.776-1.914.776h-35.7c-.618-.07-1.361-.111-1.394-.929-.028-.906.776-.8,1.366-.808,2.007-.028,4.014,0,6.04,0Z" transform="translate(-270.272 -234.212)"/><path class="j" d="M453.381,365.774c0-6.286-.4-12.573.2-18.854,2.212,6.166,4.419,12.331,6.7,18.683A44.79,44.79,0,0,1,453.381,365.774Z" transform="translate(-242.659 -185.732)"/><path class="d" d="M313.4,334.1l3.661,1.162c-1.064,4.995-2.95,9.757-4.446,14.6a1.765,1.765,0,0,1-2.528,1.3,1.919,1.919,0,0,1-1.073-2.676q1.859-5.72,3.666-11.476C312.979,336.061,313.164,335.071,313.4,334.1Z" transform="translate(-165.348 -178.869)"/><path class="j" d="M489.091,147.677c-1.482-1.287-3.2-.362-4.8-.511h-11.2l-3.88-.209v-.376l3.866-.283a21.646,21.646,0,0,0,5.455,0,23.231,23.231,0,0,0,5.622-.07c1.635.125,3.3.7,4.851-.372,2.007-2.718,4.823-1.556,7.666-1.7-.595,1.668-2.133,3.094-.465,4.711.288.274-.028.65-.465.813C493.738,150.428,490.285,149.41,489.091,147.677Z" transform="translate(-251.203 -77.11)"/><path class="h" d="M346.943,167.4l-4.944.135c-.051-2.458-.079-4.92-.163-7.383-.037-1.069.362-1.45,1.468-1.51,3.675-.214,3.68-.265,3.675,3.443C346.981,163.874,346.957,165.626,346.943,167.4Z" transform="translate(-183.01 -84.888)"/><path class="p" d="M522.2,95.807H508.3c-.729,0-1.91.279-1.97-.66-.079-1.162,1.143-.7,1.8-.706q14.143-.051,28.277,0c.683,0,1.891-.386,1.859.7s-1.222.655-1.919.66C531.629,95.821,526.913,95.807,522.2,95.807Z" transform="translate(-271.072 -50.515)"/><path class="d" d="M681.27,224.364c-.084-.595-2.123-1.324-3.224-1.25-2.472.163-3.861,3.559-2.648,5.8a6.114,6.114,0,0,1,.339,1.784c.8.167,1.812-.181,2.267.883.144.228.288.465.437.683.692.437.994-.163,1.394-.525,0-.465,0-1.171.386-1.236,1.5-.242,1.394-1.594,2.049-2.379C683.881,226.162,681.479,225.618,681.27,224.364Zm-2.579,4.34a1.394,1.394,0,0,1-1.5-1.436,1.315,1.315,0,0,1,1.473-1.394,1.255,1.255,0,0,1,1.2,1.426C679.843,228.044,679.532,228.689,678.691,228.7Z" transform="translate(-361.352 -119.447)"/><path class="k" d="M252.357,444.67h8.112c.664,0,1.58-.065,1.505.929-.056.776-.855.767-1.468.767H244.514c-.609,0-1.394,0-1.394-.832s.767-.864,1.366-.869c2.63-.028,5.255,0,7.9,0Z" transform="translate(-130.16 -238.056)"/><path class="d" d="M714.282,129.486h7.9c.572,0,1.426-.167,1.394.734,0,.7-.767.637-1.287.637H706.272c-.52,0-1.278.074-1.292-.632,0-.9.836-.729,1.394-.734C709.022,129.472,711.652,129.486,714.282,129.486Z" transform="translate(-377.428 -69.317)"/><path class="q" d="M460.009,76.865h-7.9c-.534,0-1.25,0-1.241-.7s.725-.683,1.254-.683h16.262c.465,0,1.045,0,1.106.59.088.795-.6.781-1.12.785C465.58,76.874,462.792,76.865,460.009,76.865Z" transform="translate(-241.384 -40.41)"/><path class="p" d="M626.471,399.852h-7.857c-.585,0-1.394.056-1.394-.808.033-.729.8-.572,1.306-.572h15.709c.576,0,1.45-.177,1.487.66s-.841.72-1.417.725C631.707,399.866,629.087,399.852,626.471,399.852Z" transform="translate(-330.444 -213.323)"/><path class="r" d="M521.281,184.295l-5.831-.084a10.825,10.825,0,0,1,1.668-4.451,2.342,2.342,0,0,0,2.453.2A9.678,9.678,0,0,1,521.281,184.295Z" transform="translate(-275.959 -96.239)"/><path class="s" d="M740.982,396.148a7.18,7.18,0,0,1-.52-.729c-2.346-4.3-2.346-4.3,2.439-5.859A36.51,36.51,0,0,1,740.982,396.148Z" transform="translate(-395.603 -208.56)"/><path class="s" d="M752.67,370.773c.023-.307.028-.618.074-.929.8-4.8.8-4.8,5.427-3.29A26.48,26.48,0,0,1,752.67,370.773Z" transform="translate(-402.96 -195.767)"/><path class="t" d="M438.812,343.813c0,.9.033,1.812-.037,2.709-.06.711-.321,1.394-1.231,1.315-.762-.06-.962-.683-1-1.31-.06-.9-.042-1.807-.06-2.713.232-.874-.26-2.323,1.176-2.323S438.58,342.949,438.812,343.813Z" transform="translate(-233.68 -182.825)"/><path class="s" d="M548.365,169.269a2.013,2.013,0,0,0-2.156,2.216,2.05,2.05,0,0,0,2.393,2.207,2.215,2.215,0,0,0-.237-4.423Zm1.259,2.323a1.11,1.11,0,0,1-1.394,1.073,1.161,1.161,0,0,1-1.013-1.231c.177-.841.636-1.264,1.45-1.129a1.087,1.087,0,0,1,.957,1.278Z" transform="translate(-292.427 -90.621)"/><path class="s" d="M278.213,340.82c-1.329.181-2.23.883-2.253,2.235a2.036,2.036,0,0,0,2.114,2.277,2.074,2.074,0,0,0,2.346-2.277C280.42,341.661,279.491,341.024,278.213,340.82Zm.056,3.522A1.148,1.148,0,0,1,277,343.073c0-.7.465-1.078,1.157-1.176.757.079,1.292.465,1.259,1.273a1.134,1.134,0,0,1-1.148,1.171Z" transform="translate(-147.741 -182.466)"/><path class="s" d="M317.013,427.668l-2.151,2.5c-.734-.678-1.933-1.259-2.091-2.049-.214-1.087,1.728-1.171,1.919-2.384C315.8,426.093,315.875,427.589,317.013,427.668Z" transform="translate(-167.441 -227.93)"/><path class="q" d="M766.317,419.719a2.228,2.228,0,0,0-2.481,2.2c-.065,1.389.7,2.323,2.607,2.351a2.179,2.179,0,0,0,2.035-2.3,2.1,2.1,0,0,0-2.161-2.253Zm-.139,3.54a1.175,1.175,0,0,1-1.083-1.306.9.9,0,0,1,1.05-.929,1.064,1.064,0,0,1,1.162,1.129,1.092,1.092,0,0,1-1.129,1.106Z" transform="translate(-408.936 -224.706)"/><path class="q" d="M337.948,383.172a2.109,2.109,0,0,0-2.267,2.37,2.225,2.225,0,0,0,2.411,2.272c1.259-.056,2.156-.794,2.123-2.788a2.123,2.123,0,0,0-2.267-1.854Zm-.046,3.369c-.8-.056-1-.613-.929-1.306a.929.929,0,0,1,1.092-.929,1.162,1.162,0,0,1,1.148,1.143,1.148,1.148,0,0,1-1.31,1.092Z" transform="translate(-179.706 -205.136)"/><path class="q" d="M691.863,334.7a2.333,2.333,0,0,0-2.323,2.453,2.267,2.267,0,0,0,4.53,0A2.435,2.435,0,0,0,691.863,334.7Zm-.293,3.536a1.013,1.013,0,0,1-.99-1.259,1.1,1.1,0,0,1,1.338-.929c.664.065.86.53.874,1.083C692.662,337.836,692.309,338.31,691.57,338.236Z" transform="translate(-369.162 -179.19)"/><path class="q" d="M486.951,329.135a2.133,2.133,0,0,0-2.258,2.379,2.259,2.259,0,0,0,2.467,2.226,1.95,1.95,0,0,0,2.086-2.244A2.2,2.2,0,0,0,486.951,329.135Zm.093,3.392A.929.929,0,0,1,486,331.6a1.078,1.078,0,0,1,1.027-1.259,1.064,1.064,0,0,1,1.208,1.027,1.143,1.143,0,0,1-1.194,1.162Z" transform="translate(-259.484 -176.208)"/><path class="q" d="M481.349,429.916a2.216,2.216,0,0,0-2.449,2.216,2.184,2.184,0,0,0,2.2,2.453,2.086,2.086,0,0,0,2.226-1.858C483.445,430.789,482.655,429.986,481.349,429.916Zm-.13,3.466c-.734-.116-1.12-.516-1.064-1.231a.994.994,0,0,1,1.036-.98,1.022,1.022,0,0,1,1.157,1.1,1.078,1.078,0,0,1-1.129,1.115Z" transform="translate(-256.382 -230.159)"/><path class="q" d="M209.322,118.67A2.234,2.234,0,0,0,207,121.044a2.086,2.086,0,0,0,2.253,2.147c1.459.06,2.179-.9,2.537-2.23A2.475,2.475,0,0,0,209.322,118.67Zm-.065,3.536a1.148,1.148,0,0,1-1.045-1.287c.046-.808.609-1,1.3-.929a.929.929,0,0,1,.929,1.083,1.124,1.124,0,0,1-1.18,1.134Z" transform="translate(-110.822 -63.533)"/><path class="q" d="M297.028,130.52a2.034,2.034,0,0,0-2.23,2.147,2.151,2.151,0,0,0,2.3,2.36c1.278,0,2.179-.725,2.216-2.481A2.068,2.068,0,0,0,297.028,130.52Zm.046,3.252a.892.892,0,0,1-1.018-.962,1.152,1.152,0,0,1,1.041-1.268,1.087,1.087,0,0,1,1.171,1.129c0,.716-.5,1.078-1.194,1.092Z" transform="translate(-157.821 -69.877)"/><path class="q" d="M481.26,215.571c-.655-1.106-2.151-1.547-1.993-2.555.135-.855,1.217-2.128,2.17-1.979.776.121,2.068,1.194,1.924,2.147C483.239,214.014,482.087,214.688,481.26,215.571Z" transform="translate(-256.581 -112.977)"/><path class="k" d="M664.956,120.943c-.771.767-1.431,1.979-2.226,2.077-.985.116-2.193-1.138-2.323-1.933-.167-1.041,1.547-1.343,2.151-2.267Z" transform="translate(-353.559 -63.613)"/><path class="q" d="M345.03,104.76c1.236,1.12,2.486,1.714,2.634,2.514.209,1.162-1.612,1.306-2.1,2.323-.771-.674-2.021-1.227-2.212-2.035C343.023,106.265,345.323,106.623,345.03,104.76Z" transform="translate(-183.805 -56.086)"/><path class="q" d="M237.245,282.75c.785.85,2.119,1.71,2.017,2.323-.149.869-1.1,2.323-2.021,2.24a3.076,3.076,0,0,1-1.993-2.272C235.177,284.372,236.483,283.563,237.245,282.75Z" transform="translate(-125.944 -151.377)"/><path class="m" d="M424.369,314.2c-1.682.093-1.789,1.961-2.82,1.807-.762-.112-1.993-1.445-1.886-2.021.158-.855,1.324-1.519,2.063-2.263A9.557,9.557,0,0,0,424.369,314.2Z" transform="translate(-224.673 -166.887)"/><path class="q" d="M737.17,171.48c-1.45,0-2.444.623-2.449,2.123a2.226,2.226,0,0,0,2.258,2.4,2.021,2.021,0,0,0,2.281-2.054A2.156,2.156,0,0,0,737.17,171.48Zm-.112,3.489a1.12,1.12,0,0,1-1.268-1.055c-.084-.781.465-1.217,1.194-1.394a1.1,1.1,0,0,1,1.259,1.045,1.282,1.282,0,0,1-1.208,1.408Z" transform="translate(-393.347 -91.806)"/><path class="q" d="M732.394,260.925c-.734.929-1.361,2.114-2.291,2.133a2.441,2.441,0,0,1-2.054-2.012c0-.716,1.227-2.04,1.886-2.026C730.74,259.043,731.512,260.186,732.394,260.925Z" transform="translate(-389.779 -138.673)"/><path class="j" d="M394.58,343.4a4.679,4.679,0,0,0-.167,2.476,1,1,0,0,1-1.018,1.227c-.716.023-1.092-.418-1.106-1.152,0-.832-.051-1.668-.079-2.5.251-.716-.1-1.859,1.129-1.9S394.166,342.77,394.58,343.4Z" transform="translate(-209.979 -182.85)"/><path class="j" d="M409.255,343.276c-.033.832-.112,1.663-.093,2.49s-.3,1.394-1.148,1.315c-.7-.046-.971-.562-.952-1.287.023-.827-.06-1.659-.1-2.486.311-.678-.033-1.882,1.25-1.793C409.3,341.584,409,342.63,409.255,343.276Z" transform="translate(-217.876 -182.836)"/><path class="m" d="M629.785,426.311c-.85.929-1.426,2.1-2.2,2.244-1.008.2-1.161-1.626-2.323-1.858.288-1.1,1.821-1.092,2.012-2.277C628.429,424.736,628.415,426.288,629.785,426.311Z" transform="translate(-334.748 -227.224)"/><path class="m" d="M422.24,345.536l-.07-2.1a1.605,1.605,0,0,0,.4-1.756l.678-.144.581.386c.581.548.172,1.3.4,1.924-.033.776-.07,1.557-.107,2.323C423.383,346.316,422.477,346.9,422.24,345.536Z" transform="translate(-226.019 -182.852)"/><path class="s" d="M521.5,176.045a2.342,2.342,0,0,1-2.453-.2,9.187,9.187,0,0,1,1.3-3.4C520.83,173.931,521.169,174.991,521.5,176.045Z" transform="translate(-277.886 -92.32)"/><path class="t" d="M217.78,179.115a11.862,11.862,0,0,1,5.915.046A13.586,13.586,0,0,1,217.78,179.115Z" transform="translate(-116.594 -95.705)"/><path class="t" d="M214.75,155.2l-3.02,3.5-.33-.33,3.015-3.513Z" transform="translate(-113.178 -82.908)"/><path class="t" d="M422.213,341.85a1.613,1.613,0,0,1-.4,1.756l-.139.033-.139-.056C421.851,343.035,421.6,342.268,422.213,341.85Z" transform="translate(-225.676 -183.018)"/><path class="u" d="M344.374,281.279c-.4-.135-.878-.163-.994-.7C343.933,280.493,344.133,280.893,344.374,281.279Z" transform="translate(-183.837 -150.208)"/><path class="t" d="M217.89,154.325a6.784,6.784,0,0,1,.6-.465c.344.386.042.59-.265.781Z" transform="translate(-116.653 -82.373)"/><path class="t" d="M211.23,162.75c-.2.158-.33.637-.637.339s0-.534.307-.669Z" transform="translate(-112.678 -86.956)"/><path class="t" d="M425.081,341.915l-.581-.386A.5.5,0,0,1,425.081,341.915Z" transform="translate(-227.266 -182.841)"/><path class="s" d="M395.34,217.12a14.018,14.018,0,1,0,14.046,13.939A14.018,14.018,0,0,0,395.34,217.12Zm-.042,26.572a12.524,12.524,0,1,1,12.624-12.471A12.508,12.508,0,0,1,395.3,243.692Z" transform="translate(-204.165 -116.241)"/><path class="t" d="M399.05,279a2.844,2.844,0,0,1-.794,3.146c-.037.037-.367-.093-.376-.163A3.662,3.662,0,0,1,399.05,279Z" transform="translate(-213.004 -149.369)"/><path class="t" d="M422.185,279.14c.441.321.627.381.664.492.274.808.952,1.533.576,2.481-.028.079-.348.144-.39.093A3.573,3.573,0,0,1,422.185,279.14Z" transform="translate(-225.992 -149.444)"/><path class="a" d="M294.577,224.484c0-6.04,0-6.04,6.04-6.012,2.221,0,4.474-.269,6.644.562,2.69,1.036,4.024,2.727,4.07,5.278.047,2.871-1.036,4.581-3.917,5.576-3.9,1.338-7.954.5-11.945.609-.813,0-.878-.734-.883-1.394C294.568,227.569,294.577,226.027,294.577,224.484Z" transform="translate(-157.708 -116.942)"/><path class="v" d="M523.911,326.44,549,330.208l-.153,1.022-25.118-3.717C523.8,327.165,523.855,326.793,523.911,326.44Z" transform="translate(-280.392 -174.768)"/><path class="v" d="M523.029,332.31l25.141,3.717-.153,1.041-25.127-3.717Z" transform="translate(-279.942 -177.91)"/><path class="w" d="M521.143,345.763c2.588-.237,5.111.627,7.638.86,2.142.19,4.265.6,6.4.929.381.06.8.158.813.646a.511.511,0,0,1-.641.492c-4.767-.716-9.534-1.454-14.3-2.184C521.083,346.26,521.11,346.014,521.143,345.763Z" transform="translate(-278.957 -185.091)"/><path class="h" d="M534.35,357.6a6.731,6.731,0,0,1,4.879.8A5.8,5.8,0,0,1,534.35,357.6Z" transform="translate(-286.077 -191.385)"/><path class="t" d="M571.484,348.235c-1.965.465-3.252-.149-4.614-.2a.5.5,0,0,1-.465-.646c.079-.386.372-.437.7-.362C568.394,347.324,569.835,347.073,571.484,348.235Z" transform="translate(-303.228 -185.774)"/><path class="h" d="M560.28,389.916a7.22,7.22,0,0,1,4.846.627C563.063,391.259,561.665,390.548,560.28,389.916Z" transform="translate(-299.96 -208.661)"/><path class="h" d="M539.423,353.65a5.3,5.3,0,0,1-4.433-.7A5.264,5.264,0,0,1,539.423,353.65Z" transform="translate(-286.42 -188.847)"/><path class="t" d="M541.3,343.688c-1.775.553-3.132.051-4.488-.172-.321-.051-.571-.3-.4-.65a.613.613,0,0,1,.5-.316C538.248,342.857,539.735,342.624,541.3,343.688Z" transform="translate(-287.151 -183.393)"/><path class="n" d="M547.2,364.741a6.472,6.472,0,0,1,5.515.511C550.74,365.749,549.3,365.248,547.2,364.741Z" transform="translate(-292.957 -195.065)"/><path class="h" d="M520.276,378.964c-1.352.59-2.583.079-3.838-.06-.3-.033-.613-.2-.548-.581a.552.552,0,0,1,.725-.376C517.851,378.22,519.189,378.085,520.276,378.964Z" transform="translate(-276.19 -202.332)"/><path class="h" d="M518.17,359.791c1.793-.465,3.215.056,4.962.52C521.343,361.106,520.135,360.962,518.17,359.791Z" transform="translate(-277.415 -192.526)"/><path class="n" d="M532.91,366.84a6.325,6.325,0,0,1,4.883.683A5.752,5.752,0,0,1,532.91,366.84Z" transform="translate(-285.306 -196.272)"/><path class="t" d="M556.458,345.958a10.226,10.226,0,0,1-4.47-.2c-.3-.046-.59-.214-.544-.585a.488.488,0,0,1,.669-.418C553.387,345.159,554.855,344.768,556.458,345.958Z" transform="translate(-295.227 -184.556)"/><path class="t" d="M526.39,341.51c-1.9.59-3.2-.088-4.53-.163a.492.492,0,0,1-.5-.613c.07-.4.386-.427.688-.376C523.351,340.58,524.74,340.473,526.39,341.51Z" transform="translate(-279.116 -182.208)"/><path class="n" d="M562.44,376.1a6.105,6.105,0,0,1,4.307.488C565.2,377.346,563.825,376.673,562.44,376.1Z" transform="translate(-301.116 -201.253)"/><path class="w" d="M534.706,386.179c-1.6-.158-2.662-.246-3.717-.386-.367-.051-.8-.214-.762-.692s.558-.567.878-.465C532.2,385.05,533.666,384.543,534.706,386.179Z" transform="translate(-283.869 -205.904)"/><path class="w" d="M569.309,358.173c-1.12-.1-2.235-.181-3.35-.307-.376-.042-.808-.218-.79-.674s.5-.548.869-.465c1.152.2,2.291.465,3.434.674C569.416,357.648,569.36,357.908,569.309,358.173Z" transform="translate(-302.577 -190.968)"/><path class="w" d="M566.074,381a.557.557,0,0,1-.613.539,2.155,2.155,0,0,1-.9-.149c-.864-.441-2.082.246-2.7-.86-.042-.079.255-.5.353-.465,1.2.167,2.407.376,3.6.6C565.916,380.672,565.986,380.881,566.074,381Z" transform="translate(-300.801 -203.478)"/><path class="w" d="M519.712,364.158c.818.344,2.574-.293,2.444.776-.158,1.329-1.612.177-2.49.191-.585,0-1.682.218-1.557-.739C518.225,363.522,519.131,364.312,519.712,364.158Z" transform="translate(-277.377 -194.863)"/><path class="w" d="M567.982,367.472a6.24,6.24,0,0,1-4.182-.65A3.958,3.958,0,0,1,567.982,367.472Z" transform="translate(-301.844 -196.225)"/><path class="w" d="M562.49,371.158c1.594-.6,2.788.177,4.005.167a.465.465,0,0,1,.465.623c-.056.153-.344.367-.465.335C565.245,371.985,563.8,372.357,562.49,371.158Z" transform="translate(-301.143 -198.587)"/><path class="w" d="M536.719,371.883c-.06.335-.232.576-.59.553a2.729,2.729,0,0,1-.892-.158c-.813-.321-1.9.242-2.472-.776-.042-.084.246-.506.344-.492,1.12.139,2.239.325,3.35.525C536.561,371.553,536.636,371.762,536.719,371.883Z" transform="translate(-285.227 -198.629)"/><path class="w" d="M530.94,380.748c1.454-.172,2.941-.437,4.521.79A5.57,5.57,0,0,1,530.94,380.748Z" transform="translate(-284.252 -203.763)"/><path class="w" d="M517,373.7a5.854,5.854,0,0,1,4.237.646C519.36,375.059,518.487,374.915,517,373.7Z" transform="translate(-276.789 -199.993)"/><path class="w" d="M552.638,374.546a5.8,5.8,0,0,1-4.488-.6A4.565,4.565,0,0,1,552.638,374.546Z" transform="translate(-293.466 -200.018)"/><path class="w" d="M533.29,362.052c1.859-.539,3.094.107,4.646.465C535.943,363.311,535.446,363.246,533.29,362.052Z" transform="translate(-285.51 -193.723)"/><path class="w" d="M564.866,385.631a4.381,4.381,0,0,1-4.256-.409C562.269,384.256,563.551,385.274,564.866,385.631Z" transform="translate(-300.136 -206.021)"/><path class="w" d="M544.7,387.521c.7-.274.929-.465,1.078-.4,1.059.358,2.3-.139,3.252.669.084.07,0,.548-.07.553a7,7,0,0,1-4.261-.818Z" transform="translate(-291.618 -207.247)"/><path class="w" d="M549.32,359.763a4.725,4.725,0,0,1,4.312.716A4.5,4.5,0,0,1,549.32,359.763Z" transform="translate(-294.092 -192.498)"/><path class="w" d="M547,378.422c1.436-.548,2.732-.139,4.7.437C549.616,379.44,548.273,379.351,547,378.422Z" transform="translate(-292.85 -202.459)"/><path class="w" d="M514.52,382.9c1.826-.488,3.08.079,4.521.465C517.289,384.24,516.829,384.185,514.52,382.9Z" transform="translate(-275.461 -204.895)"/><path class="w" d="M520.39,350.917a4.494,4.494,0,0,1,4.3.6A5.562,5.562,0,0,1,520.39,350.917Z" transform="translate(-278.604 -187.722)"/><path class="w" d="M523.829,356.331c-1.58.084-2.913.181-4.209-.767A4,4,0,0,1,523.829,356.331Z" transform="translate(-278.191 -190.209)"/><path class="w" d="M553.826,355.6c-1.394.669-2.713.414-4.316-.395C551.234,354.276,552.525,355.377,553.826,355.6Z" transform="translate(-294.194 -189.97)"/><path class="w" d="M535.589,376.7a5.092,5.092,0,0,1-4.419-.581C533.042,375.45,534.315,376.124,535.589,376.7Z" transform="translate(-284.375 -201.215)"/><path class="w" d="M552.348,369.7c-1.789.623-3.039-.084-4.558-.316C549.388,368.47,549.616,368.489,552.348,369.7Z" transform="translate(-293.273 -197.414)"/><path class="w" d="M550.223,383.549c-1.394.716-2.695.186-3.973-.465C547.635,382.364,548.922,382.982,550.223,383.549Z" transform="translate(-292.448 -204.919)"/><path class="w" d="M569.364,362.764a6.587,6.587,0,0,1-4.544-.4C566.26,361.579,566.465,361.593,569.364,362.764Z" transform="translate(-302.39 -193.71)"/><path class="w" d="M521.81,370.014c-1.859.065-3.2.465-4.59-.855A5.445,5.445,0,0,1,521.81,370.014Z" transform="translate(-276.906 -197.535)"/><path class="a" d="M211.771,218.546a47.175,47.175,0,0,1,4.865.028c3.461.358,6.04,2.983,6.04,5.938a6.13,6.13,0,0,1-5.8,5.905c-3.3.3-6.644.116-9.966.153-1.041,0-1.3-.609-1.3-1.5,0-3.015.028-6.04,0-9.046,0-1.259.627-1.584,1.738-1.547,1.468.042,2.936,0,4.409,0Z" transform="translate(-110.078 -116.965)"/><path class="m" d="M190.555,196.948l1.2.1.99-.488c1.231.929,1.185-.13,1.338-.874a52.327,52.327,0,0,1,1.445-5.919c.316,2.063-.335,4-.729,5.947-.237,1.166.153,1.394,1.12,1.278-.344,1.394,1.394,3.29-1.222,4.14-.637.2-1.227,1.622-1.97.874-.929-.929-3.006-1.129-2.346-3.252A8.668,8.668,0,0,0,190.555,196.948Z" transform="translate(-101.858 -101.598)"/><path class="v" d="M432.216,375.681c-1.394.163-1.626-.59-1.626-1.673s.506-1.436,1.543-1.459c1.175-.023,1.649.414,1.635,1.6S433.317,375.894,432.216,375.681Z" transform="translate(-230.527 -199.453)"/><path class="h" d="M410.78,374.191c.209,1.324-.567,1.491-1.631,1.505s-1.436-.465-1.45-1.51c0-1.152.348-1.626,1.57-1.617S410.962,373.021,410.78,374.191Z" transform="translate(-218.272 -199.464)"/><path class="h" d="M422.365,374.265c.153,1.073-.325,1.445-1.436,1.45-1.241,0-1.557-.465-1.58-1.649,0-1.357.688-1.445,1.742-1.478C422.384,372.546,422.44,373.313,422.365,374.265Z" transform="translate(-224.509 -199.473)"/><path class="v" d="M399.591,383.293c.074.99-.209,1.6-1.366,1.584-1.022,0-1.784-.111-1.766-1.436,0-1.055.177-1.766,1.468-1.742C399.034,381.723,399.679,382.1,399.591,383.293Z" transform="translate(-212.254 -204.352)"/><path class="v" d="M386.329,384.846c-1.241.181-1.6-.465-1.589-1.58,0-1.213.627-1.552,1.724-1.557s1.422.511,1.426,1.543C387.89,384.382,387.555,385.023,386.329,384.846Z" transform="translate(-205.98 -204.358)"/><path class="v" d="M410.765,383.312c.158,1.189-.432,1.58-1.589,1.57-1.027,0-1.524-.321-1.547-1.431-.023-1.292.525-1.766,1.775-1.752C410.538,381.714,410.877,382.276,410.765,383.312Z" transform="translate(-218.234 -204.352)"/><path class="v" d="M387.837,374.13c.116,1.022-.223,1.589-1.394,1.594s-1.738-.353-1.733-1.57.567-1.6,1.714-1.594S387.953,373.1,387.837,374.13Z" transform="translate(-205.964 -199.459)"/><path class="v" d="M432.082,384.866c-1.1.135-1.477-.4-1.482-1.478,0-1.185.465-1.673,1.659-1.659,1.273,0,1.5.739,1.5,1.812C433.759,384.75,433.067,384.95,432.082,384.866Z" transform="translate(-230.532 -204.368)"/><path class="v" d="M396.506,374.191c-.093-1,.181-1.622,1.357-1.631s1.747.316,1.761,1.543-.53,1.631-1.687,1.622S396.385,375.245,396.506,374.191Z" transform="translate(-212.268 -199.459)"/><path class="v" d="M409.233,366.3c-1.036.107-1.524-.325-1.533-1.417s.465-1.468,1.505-1.478,1.682.325,1.649,1.556S410.19,366.383,409.233,366.3Z" transform="translate(-218.272 -194.56)"/><path class="v" d="M432.442,366.311c-1.055.074-1.8-.065-1.812-1.259,0-.957.158-1.635,1.338-1.612.985,0,1.858,0,1.8,1.394C433.738,365.832,433.469,366.487,432.442,366.311Z" transform="translate(-230.548 -194.576)"/><path class="v" d="M445.21,383.3c.121,1.171-.395,1.552-1.459,1.566-1.347.023-1.394-.776-1.431-1.784,0-1.176.646-1.394,1.617-1.394C445.108,381.723,445.34,382.406,445.21,383.3Z" transform="translate(-236.807 -204.347)"/><path class="v" d="M422.321,383.4c.1,1.069-.4,1.454-1.468,1.478-1.361.028-1.394-.79-1.394-1.789-.023-1.171.623-1.394,1.6-1.394C422.215,381.723,422.414,382.429,422.321,383.4Z" transform="translate(-224.568 -204.347)"/><path class="v" d="M445.213,374.057c.074.971-.121,1.64-1.306,1.668s-1.622-.465-1.6-1.622c0-1.036.353-1.538,1.454-1.533S445.324,373,445.213,374.057Z" transform="translate(-236.8 -199.464)"/><path class="o" d="M388.127,364.961c.088.971-.372,1.361-1.347,1.394-1.078,0-1.51-.414-1.51-1.5,0-1.185.641-1.394,1.626-1.394C387.96,363.465,388.2,364.05,388.127,364.961Z" transform="translate(-206.264 -194.587)"/><path class="o" d="M399.373,364.945c.1,1.2-.632,1.394-1.6,1.394-1.069,0-1.236-.627-1.25-1.505,0-.99.409-1.361,1.394-1.394C398.978,363.435,399.494,363.849,399.373,364.945Z" transform="translate(-212.287 -194.576)"/><path class="n" d="M419.444,365.025c-.163-1.138.19-1.659,1.333-1.626.957.028,1.584.139,1.58,1.338,0,1.11-.246,1.7-1.51,1.635C419.829,366.321,419.211,366.1,419.444,365.025Z" transform="translate(-224.533 -194.553)"/><path class="o" d="M445.22,364.867c.125,1.12-.437,1.487-1.505,1.468-.994,0-1.343-.465-1.366-1.417-.028-1.124.465-1.482,1.543-1.468S445.313,363.882,445.22,364.867Z" transform="translate(-236.822 -194.581)"/><path class="t" d="M422.046,350.14c.237,1.366,1.143.781,1.891.65.256.929-.135,1.64-1.087,1.477C421.642,352.064,421.651,351.106,422.046,350.14Z" transform="translate(-225.825 -187.456)"/><path class="v" d="M460.98,132.753h5.729a15.013,15.013,0,0,1-13.939,14.71,15.287,15.287,0,0,1-16.164-12.907c-1.287-7.411,3.666-14.868,11.253-16.926,9.293-2.528,18.994,4.8,18.757,14.18a23.23,23.23,0,0,1-5.622.07c-.125-.683-.209-1.394-.39-2.049a9.313,9.313,0,1,0-15.23,9.376,8.916,8.916,0,0,0,9.293,1.882C458.569,139.769,460.52,136.786,460.98,132.753Z" transform="translate(-233.639 -62.706)"/><path class="n" d="M515.52,260.4h5.817c.2,3.067-.544,4.27-2.713,4.4C516.217,264.944,515.325,263.68,515.52,260.4Z" transform="translate(-275.982 -139.412)"/><path class="v" d="M203.077,332.584h8.586c.516,0,1.268-.093,1.254.65s-.762.627-1.278.632H193.984c-.516,0-1.268.079-1.254-.655s.762-.627,1.278-.627C197.037,332.574,200.062,332.584,203.077,332.584Z" transform="translate(-103.183 -178.054)"/><path class="o" d="M193,340.8h19.937v.516H193Z" transform="translate(-103.327 -182.456)"/><path class="o" d="M212.951,326.22H193v-.794c6.649-.135,13.3-.037,19.951-.065Z" transform="translate(-103.327 -174.185)"/><path class="t" d="M251.153,169.81l15.769,2.69c-.056.33-.107.66-.163.99L251,170.762Z" transform="translate(-134.379 -90.912)"/><path class="x" d="M268,166.591l-15.723-2.741c.056-.311.112-.618.163-.929l15.7,2.7C268.091,165.945,268.049,166.265,268,166.591Z" transform="translate(-135.064 -87.223)"/><path class="t" d="M659.44,168.323l15.737-2.723.172.952-15.732,2.741Z" transform="translate(-353.047 -88.658)"/><path class="t" d="M674.219,159.666,658.487,162.4l-.167-.929,15.732-2.709Z" transform="translate(-352.448 -84.996)"/><path class="t" d="M673.2,174.6l-12.4,2.147-.167-.878,12.382-2.184C673.078,173.987,673.143,174.293,673.2,174.6Z" transform="translate(-353.69 -92.984)"/><path class="t" d="M625,318.931l15.951-1.1c0,.274.042.548.065.822-5.269.711-10.584.85-15.881,1.222A8.1,8.1,0,0,0,625,318.931Z" transform="translate(-334.609 -170.158)"/><path class="t" d="M625.57,325.954,641.5,324.83l.065.85c-5.3.581-10.607.929-15.937,1.106C625.612,326.507,625.593,326.233,625.57,325.954Z" transform="translate(-334.914 -173.906)"/><path class="t" d="M644.2,312.456l-12.21.9c-.028-.246-.051-.5-.079-.743C635.887,311.7,640,312.075,644.2,312.456Z" transform="translate(-338.309 -167.061)"/><path class="w" d="M328.58,289.229a9.557,9.557,0,0,1,.748,11.583A9.813,9.813,0,0,1,311.31,295.5a9.294,9.294,0,0,1,6.5-9.111c1.714,3.313,4.762,3.025,7.764,2.895C326.568,289.215,327.576,289.238,328.58,289.229Z" transform="translate(-166.667 -153.326)"/><path class="y" d="M336.059,288.3c-1,0-2.012,0-3.015.033-3,.13-6.04.418-7.764-2.895C329.206,283.748,333.179,284.812,336.059,288.3Z" transform="translate(-174.147 -152.394)"/><path class="t" d="M192.45,191.659l-.99.488c.293-3.285-1.175-6.277-1.533-9.455-.079-.674-.488-1.31.028-2.082A63.927,63.927,0,0,1,192.45,191.659Z" transform="translate(-101.56 -96.694)"/><path class="w" d="M676.4,249.49c1.552.274,2.5,1.069,2.439,2.634a2.273,2.273,0,0,1-2.542,2.393,2.323,2.323,0,0,1-2.4-2.56A2.488,2.488,0,0,1,676.4,249.49Z" transform="translate(-360.78 -133.571)"/><path class="w" d="M681.5,241.35c.144.228.288.465.437.683C681.531,241.968,681.434,241.712,681.5,241.35Z" transform="translate(-364.847 -129.213)"/><path class="h" d="M467.768,139.5c-.465,4.033-2.411,7.016-6.328,8.363a8.916,8.916,0,0,1-9.293-1.882,9.324,9.324,0,1,1,15.23-9.376c.181.669.265,1.366.39,2.049a21.647,21.647,0,0,1-5.455,0c-.465-2.258-1.668-3.573-4.121-3.443a3.642,3.642,0,0,0-3.717,3.141,4.1,4.1,0,0,0,3.108,4.7c2.323.465,4.038-.813,4.735-3.531Z" transform="translate(-240.427 -69.449)"/><path class="n" d="M468.452,145.772c-.7,2.718-2.407,3.991-4.735,3.531a4.1,4.1,0,0,1-3.108-4.7,3.655,3.655,0,0,1,3.717-3.141c2.453-.13,3.675,1.185,4.121,3.443l-3.866.283v.376Z" transform="translate(-246.565 -75.729)"/><path class="w" d="M682.473,230.456c-.037.762-.349,1.394-1.18,1.422a1.394,1.394,0,0,1-1.5-1.436,1.315,1.315,0,0,1,1.473-1.394,1.254,1.254,0,0,1,1.2,1.408Z" transform="translate(-363.944 -122.621)"/><path class="w" d="M548.337,172.581c.177-.841.636-1.264,1.45-1.129a1.087,1.087,0,0,1,.976,1.287,1.11,1.11,0,0,1-1.394,1.073A1.161,1.161,0,0,1,548.337,172.581Z" transform="translate(-293.564 -91.778)"/><path class="w" d="M279.356,343.14c.757.079,1.292.465,1.259,1.273a1.209,1.209,0,0,1-2.416-.1C278.194,343.614,278.65,343.238,279.356,343.14Z" transform="translate(-148.94 -183.708)"/><path class="w" d="M767.624,424.749a1.175,1.175,0,0,1-1.083-1.306.9.9,0,0,1,1.05-.929,1.064,1.064,0,0,1,1.162,1.129,1.092,1.092,0,0,1-1.129,1.106Z" transform="translate(-410.383 -226.196)"/><path class="w" d="M340.7,386.746a1.148,1.148,0,0,1-1.31,1.092c-.8-.056-1-.613-.929-1.306a.929.929,0,0,1,1.092-.929A1.162,1.162,0,0,1,340.7,386.746Z" transform="translate(-181.197 -206.435)"/><path class="w" d="M693.957,338.635c-.13.72-.465,1.194-1.222,1.12a1.013,1.013,0,0,1-.99-1.259,1.1,1.1,0,0,1,1.338-.929C693.748,337.618,693.943,338.082,693.957,338.635Z" transform="translate(-370.326 -180.709)"/><path class="w" d="M489.747,332.727a1.143,1.143,0,0,1-1.194,1.18.929.929,0,0,1-1.041-.929,1.078,1.078,0,0,1,1.027-1.259,1.064,1.064,0,0,1,1.208,1.008Z" transform="translate(-260.993 -177.588)"/><path class="w" d="M482.678,434.831c-.734-.116-1.12-.516-1.064-1.231a.994.994,0,0,1,1.036-.98,1.022,1.022,0,0,1,1.157,1.1,1.078,1.078,0,0,1-1.129,1.115Z" transform="translate(-257.841 -231.608)"/><path class="w" d="M210.655,123.709a1.148,1.148,0,0,1-1.045-1.287c.046-.808.609-1,1.3-.929a.929.929,0,0,1,.929,1.083,1.124,1.124,0,0,1-1.185,1.134Z" transform="translate(-112.215 -65.037)"/><path class="w" d="M298.553,132.7a1.087,1.087,0,0,1,1.171,1.129,1.07,1.07,0,0,1-1.194,1.1.892.892,0,0,1-1.018-.962,1.152,1.152,0,0,1,1.041-1.268Z" transform="translate(-159.277 -71.04)"/><path class="w" d="M738.165,173.68a1.1,1.1,0,0,1,1.259,1.045,1.282,1.282,0,0,1-1.185,1.422,1.12,1.12,0,0,1-1.269-1.055C736.887,174.293,737.444,173.875,738.165,173.68Z" transform="translate(-394.551 -92.984)"/><path class="r" d="M397.231,220.47a12.489,12.489,0,1,0,8.848,3.679A12.508,12.508,0,0,0,397.231,220.47Zm-3.564,15.579-.562.39a1.533,1.533,0,0,1-1.022.822c-.07.218-.191.386-.427.228-.033-.023.116-.311.186-.465h0c.344-.279.688-.544,1.031-.818l.506-.423c.149-.121.39-.372.432-.344C394.243,235.724,393.811,235.858,393.667,236.049Zm3.252-2.746-.516.409-1.059.776-.5.432c-.149.121-.39.372-.423.344-.409-.307.023-.423.163-.613l.553-.386a1.557,1.557,0,0,1,1.018-.827l.465-.465v-5.255a8.909,8.909,0,0,1,.3,5.589Z" transform="translate(-205.959 -118.034)"/><path class="t" d="M410.4,241.339V236.07a9.038,9.038,0,0,1,.3,5.576A3.865,3.865,0,0,0,410.4,241.339Z" transform="translate(-219.718 -126.386)"/><path class="t" d="M408.474,248.684l-1.059.776c-.07-.07-.139-.149-.2-.223a1.556,1.556,0,0,1,1.018-.827C408.311,248.494,408.39,248.587,408.474,248.684Z" transform="translate(-218.01 -132.992)"/><path class="t" d="M401.354,254.566a1.533,1.533,0,0,1-1.022.822c-.079-.088-.158-.172-.242-.256l1.036-.813Z" transform="translate(-214.198 -136.156)"/><path class="t" d="M406.767,250.393l-.5.432-.27-.269.553-.386C406.627,250.244,406.7,250.323,406.767,250.393Z" transform="translate(-217.362 -133.935)"/><path class="t" d="M410.122,247.72l-.516.409c-.084-.088-.163-.181-.246-.274l.465-.465a3.859,3.859,0,0,1,.3.33Z" transform="translate(-219.161 -132.446)"/><path class="t" d="M400.112,256.347c-.07.218-.19.386-.427.228-.033-.023.121-.316.186-.465A1.924,1.924,0,0,1,400.112,256.347Z" transform="translate(-213.979 -137.115)"/><path class="t" d="M403.09,253.679l-.562.39-.228-.246.506-.423Z" transform="translate(-215.381 -135.664)"/><path class="t" d="M403.41,253.011c.149-.121.39-.372.432-.344.418.293,0,.427-.149.623Z" transform="translate(-215.975 -135.271)"/><path class="t" d="M405.9,251.269c-.149.121-.39.372-.423.344-.409-.307.023-.423.163-.613Z" transform="translate(-216.988 -134.379)"/></g></svg>