<svg xmlns="http://www.w3.org/2000/svg" width="124.262" height="197.031" viewBox="0 0 124.262 197.031"><defs><style>.a{fill:#d98550;}.b{fill:#ffaf7e;}.c{fill:#ff863b;}.d{fill:#ff9f64;}.e{fill:#ff914d;}.f{fill:#ff9e62;}.g{fill:#fcf481;}.h{fill:#1e73d4;}.i{fill:#ef6339;}.j{fill:#50b4df;}</style></defs><g transform="translate(0 -0.003)"><g transform="translate(0 0.003)"><path class="a" d="M110.211,329.041c0,9.005-.026,18.019.079,27.02.022,1.683-.817,2.07-2.118,2.426-12.745,3.481-25.521,7.032-38.3,10.477-2.637.712-5.195,1.863-8.008,1.872V324.114a3.517,3.517,0,0,0-1.96,1.42q-5.349,5.52-10.636,11.075a2.827,2.827,0,0,1-3.076,1.059c-5.129-1.464-10.28-2.861-15.422-4.267-5.564-1.521-11.058-3.3-16.74-4.395-3.024-1.727-6.518-1.965-9.73-3.076-1.367-.5-2.874-.5-4.3-1.481L13.712,310.2l.752-.11q15.11,4.087,30.229,8.115c5.99,1.6,11.892,3.571,17.979,4.82a2.879,2.879,0,0,0,.879,1.727q5.876,6.078,11.712,12.183a2.531,2.531,0,0,0,2.778.73c6.127-1.718,12.253-3.446,18.4-5.094C101,331.344,105.478,329.722,110.211,329.041Z" transform="translate(0 -173.81)"/><path class="b" d="M32.158,346.346c5.683,1.086,11.546,3.052,17.109,4.577,5.142,1.406,9.523,3.188,14.652,4.651A2.811,2.811,0,0,0,67,354.515q5.274-5.564,10.636-11.075a3.549,3.549,0,0,1,1.96-1.42v46.718c-5.542-1.015-10.869-2.844-16.292-4.294-9.805-2.637-19.562-5.419-29.367-8.034-1.718-.44-2.321-1.147-2.294-2.967C31.766,364.6,32.136,355.188,32.158,346.346Z" transform="translate(-17.733 -191.707)"/><path class="c" d="M81.118,305.71c-6.087-1.239-11.994-3.16-17.984-4.764-10.082-2.7-20.151-5.445-30.224-8.17.1-.492.439-.677.879-.8Q56.862,285.6,79.936,279.2h.857q10.337,2.861,20.656,5.713,13.391,3.722,26.765,7.471a10.024,10.024,0,0,1-1.56.73c-9.432,2.584-18.9,5.1-28.3,7.731C92.624,302.467,86.761,303.724,81.118,305.71Z" transform="translate(-18.446 -156.496)"/><path class="d" d="M142.6,322.557c5.643-2.008,11.491-3.773,17.248-5.364,9.418-2.637,18.685-5.346,28.116-7.93.54-.2,1.259.287,1.758,0h.439c3.846,4.087,7.665,8.2,11.554,12.24.747.773,1.758,1.292,2.474,2.171-4.188,1.943-8.293,2.637-12.231,3.9-.681.22-1.477.207-1.833,1.006-4.725.681-9.229,2.3-13.791,3.516-6.153,1.648-12.271,3.375-18.4,5.094a2.532,2.532,0,0,1-2.778-.73q-5.792-6.109-11.7-12.174A2.878,2.878,0,0,1,142.6,322.557Z" transform="translate(-79.929 -173.343)"/><path class="e" d="M189.811,273.961h-.439c-8.922-2.49-18.132-4.178-27.054-6.668-6.885-1.922-13.482-4.63-20.367-6.516,4.219-4.549,8.451-9.084,12.649-13.651a2.3,2.3,0,0,1,2.553-.708l46.586,12.838Z" transform="translate(-79.564 -138.045)"/><path class="f" d="M62.286,260.579c-15.382,4.26-30.17,9.322-45.552,13.576-.475.127-1.39-.492-1.473,0l-.752.11a15.434,15.434,0,0,0-3.318-4.3q-4.47-4.834-9.04-9.555c-1.173-1.2-.98-1.63.624-2.07q22.1-6.017,44.156-12.187a2.77,2.77,0,0,1,3.239.914c3.722,4.118,7.55,8.144,11.317,12.222a7.579,7.579,0,0,1,.8,1.288Z" transform="translate(-0.784 -137.874)"/><path class="g" d="M62,103.348c-.233-4.733-2.716-8.614-4.971-12.508-3.2-5.5-6.843-10.741-10.007-16.261-7.928-13.8-10.165-28.461-5.291-43.738A44.777,44.777,0,0,1,87.817.116a44.132,44.132,0,0,1,26.967,11.392,43.148,43.148,0,0,1,14.587,26.572c2.074,14.152-1.033,27.306-8.829,39.356-4.206,6.509-8.456,13.009-11.682,20.094a16.3,16.3,0,0,0-1.736,5.854c-4.751.022-9.506,0-14.257.084-1.2,0-1.758-.246-1.56-1.578.308-2.092.4-4.224.769-6.3,1.9-10.877,4.782-21.535,7.647-32.175,3.85,1.279,7.665,2.29,11.774.848,8.834-3.1,11.545-13.492,4.768-19.417-2.022-1.771-3.34-3.028-2.272-5.924.686-1.85-.079-3.907-1.042-5.713a13.743,13.743,0,0,0-9.858-7.348,3.828,3.828,0,0,1-2.852-1.925,14.806,14.806,0,0,0-21.307-4.153,4.514,4.514,0,0,1-3.806.822C65.1,18.966,56.543,27.25,58.428,36.66c.242,1.209-.29,1.5-1.143,1.929-6.768,3.454-9.563,9.7-7.581,17.057a11.085,11.085,0,0,0,8.029,8.24,17.135,17.135,0,0,0,11.6-.769c2.391,8.135,4.395,16.371,6.153,24.655a86.18,86.18,0,0,1,2.255,14.064c.044.954.092,1.679-1.283,1.648C71.648,103.37,66.823,103.379,62,103.348Z" transform="translate(-21.951 -0.003)"/><path class="h" d="M122.037,143.089c-2.865,10.649-5.744,21.3-7.647,32.175-.365,2.079-.461,4.21-.769,6.3-.2,1.318.356,1.6,1.56,1.578,4.751-.07,9.506-.062,14.257-.083,2.052.321,4.065.7,5.023,2.918.932,2.154.233,3.955-2.479,6,1.318,1.191,2.87,2.2,2.822,4.329s-1.27,3.3-2.989,4.131c.075.492.47.523.778.7A4.134,4.134,0,0,1,134.668,206a3.794,3.794,0,0,1-4.1,3.243c-3.753-.5-5.929,1.138-8.139,3.955a12.175,12.175,0,0,1-10.935,4.922,54.636,54.636,0,0,0-8.79,0,11.76,11.76,0,0,1-11.181-5.212c-2.057-2.918-4.311-4.008-7.779-3.643a4,4,0,0,1-4.544-3.274c-.593-2.255.338-3.819,2.25-4.94a3.409,3.409,0,0,0,.47-.391c-3.955-2.953-3.955-5.762-.066-8.632-2.975-2.2-3.626-4.544-1.991-6.975,1.077-1.6,2.83-1.631,4.434-2.026,4.834.031,9.669,0,14.477.123,1.376.031,1.318-.694,1.283-1.648A86.638,86.638,0,0,0,97.8,167.437c-1.789-8.284-3.78-16.52-6.153-24.655,1.318-1.151,2.3-.576,3.173.6,2.949,11.251,5.92,22.493,7.731,34.008.3,1.894-.532,4.553.962,5.5,1.42.879,3.837.167,5.814.237,1.072.04,1.551-.207,1.56-1.433a64.644,64.644,0,0,1,1.631-11.726c1.732-8.829,4.184-17.483,6.342-26.211C119.84,143.177,120.6,141.648,122.037,143.089Z" transform="translate(-44.247 -79.681)"/><path class="i" d="M112.4,85.021c-1.42-1.442-2.2.088-3.178.681a22.625,22.625,0,0,1-6.272,2.461,27.375,27.375,0,0,1-17.769-2.835c-.879-1.178-1.859-1.758-3.173-.6a17.135,17.135,0,0,1-11.6.769,11.085,11.085,0,0,1-8.03-8.24c-2-7.357.8-13.6,7.564-17.057.853-.439,1.384-.721,1.143-1.929-1.885-9.41,6.676-17.694,16.7-16.05A4.514,4.514,0,0,0,91.6,41.4,14.806,14.806,0,0,1,112.9,45.563a3.828,3.828,0,0,0,2.852,1.925,13.743,13.743,0,0,1,9.858,7.348c.963,1.784,1.727,3.841,1.042,5.713-1.068,2.874.251,4.131,2.272,5.889,6.777,5.924,4.065,16.318-4.768,19.417C120.048,87.311,116.233,86.3,112.4,85.021ZM79.246,70.157c.088.734-.145,1.938,1.042,1.982,1.318.053.927-1.16,1-1.982a7.032,7.032,0,0,1,.33-1.929c.813-2.118,3.23-3.23,4.979-2.03s2.356.73,3.248-.945a5.789,5.789,0,0,1,5.964-2.914,3.9,3.9,0,0,1,3.657,3.27c.171.712.136,1.6,1.156,1.538,1.151-.075.954-1.046,1.024-1.837.308-3.353,1.507-4.808,4.755-5.713.672-.185,1.389-.255,1.253-1.151s-.879-.844-1.556-.774a6.654,6.654,0,0,0-5.423,3.621c-.439.787-.637.835-1.428.365-3.876-2.3-7.546-1.7-10.579,1.723a1.667,1.667,0,0,1-1.991.646c-4.087-1.02-7.48,1.8-7.445,6.131Zm32.083-16.982c.853-.167,2.052-.044,2.1-1.169.062-1.42-1.151-.809-1.947-.879-1.253-.145-2.36-.563-1.9-2.2.185-.668.835-1.318-.044-1.938-.8-.576-1.318.127-1.96.439a5.731,5.731,0,0,1-7.032-2.052c-.286-.4-.58-.69-1.05-.6a.984.984,0,0,0-.8,1.138,3.27,3.27,0,0,0,1.688,2.663,8.693,8.693,0,0,0,5.243,1.27c1.028-.044,1.67,0,2.14,1.2a3.816,3.816,0,0,0,3.529,2.127ZM79.4,52.556c-.927.294-2.756-.879-2.773.927,0,1.494,1.868,1.239,2.887,1.086,2.914-.439,5.476-.04,7.638,2.118a1.028,1.028,0,0,0,1.573,0,.879.879,0,0,0-.251-1.481c-2.448-1.2-3.23-2.7-1.129-4.94.483-.519.189-1.151-.365-1.494-.681-.439-1.147.048-1.393.6-1.222,2.712-3.459,3.384-6.223,3.182ZM95.837,76.547a6.136,6.136,0,0,0,4.72-1.6c.44-.439.716-.989.264-1.551a.879.879,0,0,0-1.371-.136c-1.6,1.556-3.4,1.406-5.313.8-.791-.251-1.5-.062-1.613.923A4.718,4.718,0,0,1,88.7,79.242c-.752.207-1.248.571-.958,1.376s.993.694,1.67.527a6.592,6.592,0,0,0,4.373-3.393C94.29,76.789,94.72,76.073,95.837,76.547ZM114.2,64.439a8.2,8.2,0,0,0-1.09.075c-.734.1-1.6.207-1.551,1.16s.879.94,1.648.879c2.72-.215,5.045.5,6.632,2.9.369.549.853.844,1.468.439a.98.98,0,0,0,.229-1.521,3.77,3.77,0,0,0-.752-1.059c-1.108-.817-1.235-1.644-.312-2.7a4.145,4.145,0,0,0,.642-1.371c.255-.738.752-1.613-.382-2.022-1-.352-1.2.483-1.433,1.191-.642,2.013-1.758,3.142-4.017,2.149A3.6,3.6,0,0,0,114.2,64.439ZM70.39,73.282c-.519.088-1.024.224-1.121.848s.312.879.8,1.156c3.191,1.732,3.257,1.824,2.527,4.957-.167.7-.334,1.376.439,1.661.919.325,1.318-.369,1.538-1.121a9.158,9.158,0,0,0,.347-1.49c.36-2.681.7-2.98,3.463-2.562.787.119,1.551.321,1.758-.642s-.672-1.318-1.367-1.318c-2.817,0-5.713.439-8.175-1.428C70.557,73.286,70.465,73.3,70.39,73.282ZM110.2,76.2c-.905-.308-1.973-.545-2.035.734-.053,1.138,1.156,1.318,1.96,1.222,1.973-.3,3.213.031,2.909,2.391a1.257,1.257,0,0,0,.1.439,1,1,0,0,0,1.086.879.839.839,0,0,0,.8-1.077,4.975,4.975,0,0,1,2.281-5.586,2.461,2.461,0,0,0,.7-1.09c.251-.606.514-1.318-.251-1.758s-1.169.114-1.507.752C114.933,75.541,112.687,76.13,110.2,76.2Z" transform="translate(-34.611 -21.612)"/><path class="g" d="M115,145a27.459,27.459,0,0,0,17.769,2.835,22.626,22.626,0,0,0,6.272-2.461c-2.158,8.728-4.61,17.382-6.342,26.211a63.673,63.673,0,0,0-1.631,11.726c0,1.226-.488,1.472-1.56,1.433-1.978-.07-4.395.659-5.814-.237-1.494-.945-.664-3.6-.963-5.5C120.933,167.484,117.962,156.242,115,145Z" transform="translate(-64.459 -81.275)"/><path class="j" d="M101.52,94.5c-.035-4.333,3.358-7.151,7.427-6.127a1.656,1.656,0,0,0,1.991-.646c3.033-3.419,6.779-4.08,10.655-1.778.791.47.926.494,1.352-.31a6.654,6.654,0,0,1,5.423-3.621c.686-.07,1.42-.11,1.556.774s-.58.967-1.253,1.151c-3.248.879-4.292,2.395-4.6,5.753-.07.791-.028,1.719-1.18,1.8-1.02.066-.984-.826-1.156-1.538a3.886,3.886,0,0,0-3.657-3.27,5.789,5.789,0,0,0-5.964,2.914c-.879,1.674-1.516,2.132-3.248.945s-4.166-.088-4.979,2.03a7.032,7.032,0,0,0-.33,1.929c-.07.822.334,2.035-1,1.982C101.375,96.438,101.608,95.233,101.52,94.5Z" transform="translate(-56.903 -45.955)"/><path class="j" d="M158.374,61.042a3.793,3.793,0,0,1-3.542-2.167c-.47-1.178-1.112-1.239-2.14-1.2a8.693,8.693,0,0,1-5.243-1.27,3.27,3.27,0,0,1-1.688-2.663.984.984,0,0,1,.8-1.138c.47-.092.765.2,1.05.6a5.717,5.717,0,0,0,7.032,2.052c.633-.3,1.156-1,1.96-.439.879.624.229,1.27.044,1.938-.439,1.644.65,2.061,1.9,2.2.8.088,2.008-.523,1.947.879C160.427,61,159.227,60.875,158.374,61.042Z" transform="translate(-81.692 -29.479)"/><path class="j" d="M98.3,65.377c2.764.2,5-.47,6.206-3.182.246-.554.712-1.024,1.393-.6.554.343.848.976.365,1.494-2.083,2.237-1.318,3.736,1.112,4.962a.879.879,0,0,1,.251,1.481,1.028,1.028,0,0,1-1.573,0c-2.162-2.18-4.725-2.575-7.638-2.136-1.02.154-2.9.409-2.887-1.086C95.548,64.493,97.376,65.671,98.3,65.377Z" transform="translate(-53.545 -34.434)"/><path class="j" d="M128.878,120.466c-1.116-.439-1.547.259-2.052,1.2a6.592,6.592,0,0,1-4.373,3.393c-.677.167-1.38.281-1.67-.527s.207-1.169.958-1.376a4.718,4.718,0,0,0,3.824-4.259c.11-.984.822-1.173,1.613-.923,1.916.606,3.714.756,5.313-.8a.879.879,0,0,1,1.371.136c.439.563.193,1.108-.264,1.551A6.272,6.272,0,0,1,128.878,120.466Z" transform="translate(-67.653 -65.531)"/><path class="j" d="M177.729,93.219a3.6,3.6,0,0,1,1.081.105c2.272.993,3.375-.136,4.017-2.149.229-.708.439-1.543,1.433-1.191,1.134.409.637,1.283.382,2.022A4.145,4.145,0,0,1,184,93.377c-.923,1.059-.8,1.885.312,2.7a3.77,3.77,0,0,1,.752,1.059.992.992,0,0,1-.229,1.521c-.593.4-1.1.119-1.468-.439-1.587-2.4-3.911-3.112-6.632-2.9-.774.062-1.6.127-1.648-.879s.817-1.064,1.551-1.16C177,93.245,177.364,93.241,177.729,93.219Z" transform="translate(-98.137 -50.392)"/><path class="j" d="M79.988,117.57a.354.354,0,0,1,.215.044c2.483,1.872,5.357,1.424,8.175,1.428.694,0,1.573.369,1.367,1.318s-.967.76-1.758.642c-2.76-.439-3.1-.119-3.463,2.562a9.159,9.159,0,0,1-.347,1.49c-.229.752-.62,1.446-1.538,1.121-.791-.286-.624-.958-.439-1.661.73-3.134.664-3.226-2.527-4.957-.483-.259-.879-.545-.8-1.156S79.465,117.658,79.988,117.57Z" transform="translate(-44.204 -65.9)"/><path class="j" d="M169.4,119.108c2.5-.075,4.747-.664,6.043-3.1.338-.637.721-1.182,1.507-.752s.5,1.129.251,1.758a2.461,2.461,0,0,1-.7,1.09,4.975,4.975,0,0,0-2.281,5.586.839.839,0,0,1-.8,1.077,1,1,0,0,1-1.086-.879,1.257,1.257,0,0,1-.1-.44c.3-2.36-.936-2.694-2.909-2.391-.8.119-2.013-.083-1.96-1.222C167.412,118.572,168.48,118.8,169.4,119.108Z" transform="translate(-93.81 -64.516)"/></g></g></svg>