<svg xmlns="http://www.w3.org/2000/svg" width="52.286" height="53.723" viewBox="0 0 52.286 53.723"><defs><style>.a{fill:#364e61;}</style></defs><g transform="translate(0.028 0.004)"><g transform="translate(-0.028 -0.004)"><path class="a" d="M12.782,53.705a10.579,10.579,0,0,0-2.031-.326,14.891,14.891,0,0,1-7.834-3.418A8.118,8.118,0,0,1-.009,43.147,9.449,9.449,0,0,1,3.146,36.79a17.456,17.456,0,0,1,8.236-3.952,49.407,49.407,0,0,1,7.016-.95h.263a9.332,9.332,0,0,1-1.906-3.508,6.149,6.149,0,0,1,.568-3.952,19.411,19.411,0,0,1-2.946.125,11.023,11.023,0,0,1-10.69-8.908,11.369,11.369,0,0,1,1.8-8.583A15.451,15.451,0,0,1,15.049.637,19.46,19.46,0,0,1,19.6.034C24.318,0,29.039,0,33.76,0c.187,0,.409-.042.478.208s-.139.333-.3.43l-3.272,2.08a1.179,1.179,0,0,1-.693.159H26.21c.069.222.236.3.36.4a11.681,11.681,0,0,1,4.083,6.115,10.58,10.58,0,0,1-2.773,10.551c-1.047,1.061-2.3,1.879-3.321,2.967a3.889,3.889,0,0,0-1.31,3.113,3.348,3.348,0,0,0,1.387,2.322c1.283,1.075,2.627,2.08,3.91,3.161a13.99,13.99,0,0,1,3.931,4.638,10.135,10.135,0,0,1-.36,9.4c-1.83,3.466-4.853,5.491-8.43,6.794a23.169,23.169,0,0,1-6.17,1.276c-.1,0-.25-.069-.312.1Zm5.664-2.939a17.692,17.692,0,0,0,3.848-.43,8.825,8.825,0,0,0,4.853-2.773,6.773,6.773,0,0,0-.5-9.172,45.366,45.366,0,0,0-5.387-4.319.88.88,0,0,0-.437-.139,17.435,17.435,0,0,0-4.076.139A16.2,16.2,0,0,0,9.7,36.152a6.72,6.72,0,0,0-3.543,6.239c.1,3.078,1.789,5.151,4.4,6.572A16.493,16.493,0,0,0,18.446,50.766Zm6.413-35.259a16.867,16.867,0,0,0-2.773-9.165A7.269,7.269,0,0,0,16.47,2.7,6.364,6.364,0,0,0,10.46,6.106,8.659,8.659,0,0,0,9.7,10.176a15.945,15.945,0,0,0,3.168,9.5,6.607,6.607,0,0,0,5.428,2.884,6.239,6.239,0,0,0,5.782-3.21,7.349,7.349,0,0,0,.783-3.841Z" transform="translate(0.028 0.004)"/><path class="a" d="M60.552,40.058V43.1c0,.409-.153.568-.555.562H57.64c-.437,0-.568-.173-.568-.6V37.09c0-.4-.1-.492-.492-.485H50.763c-.693,0-.693-.055-.693-.693v-2.08c0-.693,0-.693.693-.693h5.872c.374,0,.451-.1.451-.464V26.747c0-.478.146-.659.631-.638h2.2c.52,0,.659.18.659.693v5.872c0,.4.1.485.485.478h5.92c.485,0,.693.146.638.631q-.042,1.151,0,2.309c0,.478-.18.61-.617.6H61.127c-.492,0-.568.139-.555.575C60.58,38.137,60.552,39.094,60.552,40.058Z" transform="translate(-15.339 -8.006)"/></g></g></svg>