<svg xmlns="http://www.w3.org/2000/svg" width="34.58" height="34.58" viewBox="0 0 34.58 34.58"><defs><style>.a{fill:#364e61;}</style></defs><path class="a" d="M13.083,3A10.1,10.1,0,0,0,3,13.089V27.5A10.1,10.1,0,0,0,13.089,37.58H27.5A10.1,10.1,0,0,0,37.58,27.491V13.083A10.1,10.1,0,0,0,27.491,3ZM30.376,8.763A1.441,1.441,0,1,1,28.935,10.2,1.441,1.441,0,0,1,30.376,8.763ZM20.29,11.645a8.645,8.645,0,1,1-8.645,8.645A8.654,8.654,0,0,1,20.29,11.645Zm0,2.882a5.763,5.763,0,1,0,5.763,5.763,5.763,5.763,0,0,0-5.763-5.763Z" transform="translate(-3 -3)"/></svg>