<svg xmlns="http://www.w3.org/2000/svg" width="144.822" height="128.438" viewBox="0 0 144.822 128.438"><defs><style>.a{opacity:0.62;}.b,.d,.e{fill:#60a4f2;}.c{fill:#fff;}.d,.e{stroke:#60a4f2;stroke-linecap:round;stroke-miterlimit:10;}.d{stroke-width:5.68px;}.e{stroke-width:4.26px;}.f{fill:#4b89ac;}</style></defs><g class="a" transform="translate(-2.657 43.015) rotate(-21)"><g transform="translate(2.84 0)"><path class="b" d="M109.143,65.521V7.875A7.875,7.875,0,0,0,101.268,0H20.163a5.74,5.74,0,0,0-5.747,5.74V65.382A2.135,2.135,0,0,1,14,66.639L3.255,81.424A2.148,2.148,0,0,0,4.991,84.83h112.9a2.148,2.148,0,0,0,1.769-3.359L109.522,66.738a2.162,2.162,0,0,1-.379-1.217ZM44.274,80.679q.353-.6.7-1.177a2.155,2.155,0,0,1,1.876-1.084H73.985a2.135,2.135,0,0,1,1.663.8l.964,1.191a2.135,2.135,0,0,1-1.663,3.485c-9.578,0-19.289.04-28.846,0a2.142,2.142,0,0,1-1.829-3.213ZM102,66.466l-81.371-.5A2.148,2.148,0,0,1,18.5,63.852l.16-59.529A2.148,2.148,0,0,1,20.8,2.188h81.7a2.142,2.142,0,0,1,2.142,2.162q-.246,30.01-.492,60.027A2.135,2.135,0,0,1,102,66.466Z" transform="translate(-2.843 0)"/><path class="c" d="M99.347,123.374c-12.272,0-24.776.047-37.047,0,.991-1.789,2.208-3.7,3.2-5.494H94.924Q97.119,120.634,99.347,123.374Z" transform="translate(-22.752 -39.475)"/><path class="d" d="M2.84,133.3H120.008" transform="translate(-2.84 -44.639)"/><path class="e" d="M40.59,55.69H71.578" transform="translate(-15.482 -18.649)"/><path class="e" d="M40.59,43.89H71.578" transform="translate(-15.482 -14.698)"/><path class="e" d="M40.59,32.16H62.752" transform="translate(-15.482 -10.77)"/><path class="f" d="M40.59,34.82H62.958" transform="translate(-15.482 -11.66)"/><path class="e" d="M40.59,68.38H89.729" transform="translate(-15.482 -22.899)"/></g></g></svg>