<svg xmlns="http://www.w3.org/2000/svg" xmlns:xlink="http://www.w3.org/1999/xlink" width="2109.03" height="1149.424" viewBox="0 0 2109.03 1149.424"><defs><style>.a{fill:#009245;stroke:#009245;stroke-width:1.85px;}.a,.c,.d,.e,.f,.g,.h,.i{stroke-miterlimit:10;}.b{fill:url(#a);}.c,.d,.e,.f,.g,.h,.i{fill:none;stroke:#036b00;opacity:0.23;}.c{stroke-width:4px;}.d{stroke-width:3.67px;}.e{stroke-width:3.58px;}.f{stroke-width:4.35px;}.g{stroke-width:5.18px;}.h{stroke-width:5.17px;}.i{stroke-width:5px;}</style><linearGradient id="a" x1="0.044" y1="0.809" x2="1" y2="0.076" gradientUnits="objectBoundingBox"><stop offset="0" stop-color="#4cbc49"/><stop offset="1" stop-color="#67de64"/><stop offset="1" stop-color="#8bc788"/></linearGradient></defs><g transform="translate(0 17)"><path class="a" d="M0,52Z"/><path class="b" d="M2109.03,1149.424H0V685.135H.5V0C19.5,1.19,20.73,50,40,50,59.45,50,60.33.7,79.77.7S98.33,50,117.78,50,138.1.7,157.54.7,176.12,50,195.55,50,215.87.7,235.32.7s18.56,49.3,38,49.3S293.65.7,313.09.7,331.66,50,351.12,50,371.43.7,390.87.7,409.44,50,428.88,50,449.2.7,468.65.7,487.21,50,506.66,50,527,.7,546.43.7,564.99,50,584.44,50,604.76.7,624.21.7,642.78,50,662.22,50c18.51,0,22.1-43.5,39.09-49.54L2109.03.7Z" transform="translate(0 -17)"/><path class="c" d="M.5,212.837l398.227-.487c19.129.006,34.639-17.547,34.639-39.2V51.837" transform="translate(0 -16.837)"/><path class="c" d="M459,8.69V194.135c0,20.643-15.548,37.378-34.728,37.378H.5" transform="translate(0 -16.023)"/><path class="c" d="M482.8,8.5l-.133,199.175c0,19.671-15.314,35.619-34.207,35.625H.5" transform="translate(0 -9.297)"/><path class="c" d="M502.333,47.777V230.691c0,20.478-15.3,37.08-34.183,37.086H.5" transform="translate(0 -15.777)"/><path class="d" d="M1639,.46V456.19c0,20,19.31,36.26,43.12,36.26l92.16-.38" transform="translate(331 -17)"/><path class="d" d="M1616,.46V477.19c0,20,19.31,36.26,43.12,36.26l115.3-.39" transform="translate(331 -17)"/><path class="d" d="M1593,.46V499.19c0,20,19.31,36.26,43.12,36.26l138.44-.4" transform="translate(331 -17)"/><path class="d" d="M1571,.46V519.19c0,20,19.31,36.26,43.12,36.26l160.55-.39" transform="translate(331 -17)"/><rect class="c" width="118" height="30" transform="translate(558 222.296)"/><circle class="c" cx="17" cy="17" r="17" transform="translate(723 220.31)"/><circle class="e" cx="17" cy="17" r="17" transform="translate(786 220.31)"/><rect class="f" width="37" height="105" transform="translate(1708 494.374)"/><path class="g" d="M1052.09,925l.75-139.16c2-19.14,28-34.65,60.05-34.65l662.11-.41" transform="translate(331 204.182)"/><path class="h" d="M1024.32,925V765c0-19.16,26-34.69,58-34.69H1775" transform="translate(331 204.182)"/><path class="h" d="M999.4,925V744.91c0-18.87,25.55-34.16,57.06-34.16H1775" transform="translate(331 204.182)"/><path class="h" d="M974,925V726.91c0-18.87,25.55-34.16,57.06-34.16H1775" transform="translate(331 204.182)"/><rect class="h" width="34" height="34" transform="translate(1679.5 929.672)"/><line class="h" x1="38" transform="translate(1716 946.672)"/><circle class="h" cx="12" cy="12" r="12" transform="translate(1757.5 934.672)"/><rect class="h" width="34" height="34" transform="translate(1679.5 983.672)"/><line class="h" x1="38" transform="translate(1716 1000.672)"/><circle class="h" cx="12" cy="12" r="12" transform="translate(1757.5 988.672)"/><rect class="h" width="34" height="34" transform="matrix(0.003, 1, -1, 0.003, 639.321, 688.397)"/><line class="h" x1="0.12" y1="38" transform="translate(622.45 722.082)"/><circle class="h" cx="12" cy="12" r="12" transform="translate(610.62 763.582)"/><rect class="h" width="34" height="34" transform="matrix(0.003, 1, -1, 0.003, 585.321, 688.565)"/><line class="h" x1="0.12" y1="38" transform="translate(568.45 722.262)"/><circle class="h" cx="12" cy="12" r="12" transform="translate(556.62 763.762)"/><rect class="i" width="143.5" height="40" transform="translate(745 699.308)"/></g></svg>