<svg xmlns="http://www.w3.org/2000/svg" width="1272.667" height="24" viewBox="0 0 1272.667 24"><defs><style>.a{fill:none;stroke:#8494a1;stroke-miterlimit:10;stroke-width:4px;}</style></defs><g transform="translate(0 1)"><g transform="translate(0 1)"><path class="a" d="M0,1C20.529,1,20.529,21,41.04,21S61.569,1,82.1,1s20.529,20,41.04,20S143.666,1,164.16,1s20.512,20,41.04,20S225.763,1,246.291,1s20.512,20,41.04,20S307.86,1,328.321,1s20.512,20,41.04,20,20.6-20,41.125-20,20.529,20,41.057,20,20.529-20,41.04-20,20.529,20,41.057,20S554.169,1,574.7,1s20.529,20,41.04,20,20.6-20,41.057-20,20.529,20,41.057,20S718.38,1,738.908,1s20.529,20,41.057,20S800.494,1,821.022,1s20.528,20,41.057,20S882.608,1,903.136,1s20.528,20,41.04,20S964.654,1,985.233,1s20.529,20,41.057,20,20.529-20,41.057-20,20.528,20,41.057,20,20.529-20,41.057-20,20.545,20,41.074,20,20.528-20,41.057-20,20.546,20,41.074,20" transform="translate(0 -1)"/></g></g></svg>