<svg xmlns="http://www.w3.org/2000/svg" width="292" height="15" viewBox="0 0 292 15"><defs><style>.a{fill:none;stroke:#33c7d2;stroke-miterlimit:10;stroke-width:4px;}</style></defs><g transform="translate(0 1)"><g transform="translate(0 1)"><path class="a" d="M0,1C10.43,1,10.43,12,20.852,12S31.283,1,41.713,1s10.43,11,20.852,11S73,1,83.409,1s10.422,11,20.852,11S114.709,1,125.139,1s10.422,11,20.852,11,10.43-11,20.826-11S177.24,12,187.67,12s10.465-11,20.9-11S219,12,229.426,12s10.43-11,20.852-11,10.43,11,20.861,11S281.57,1,292,1" transform="translate(0 -1)"/></g></g></svg>