<svg xmlns="http://www.w3.org/2000/svg" width="59.029" height="59.077" viewBox="0 0 59.029 59.077"><defs><style>.a{fill:#364e61;}</style></defs><g transform="translate(0 0.002)"><g transform="translate(0 -0.002)"><path class="a" d="M0,55.139V3.981C1.435.7,4.074-.025,7.432,0c15.13.11,30.236.047,45.353.047,4.2,0,6.241,2.062,6.244,6.3V52.608c0,3.733-1,5.181-4.46,6.467H3.935A7.663,7.663,0,0,1,0,55.139ZM18.365,51.2a2.651,2.651,0,0,0,.262-1.65V24.8a2.633,2.633,0,0,0-.262-1.65,1.888,1.888,0,0,0-1.947-1.417c-2.01.034-4.019.016-6.034,0a1.642,1.642,0,0,0-1.873,1.836V50.7c0,1.375.525,1.836,1.97,1.836,1.878.013,3.759-.047,5.635.024a1.984,1.984,0,0,0,2.248-1.369Zm24.4,0a1.824,1.824,0,0,0,2.073,1.372c2.1-.071,4.2-.042,6.3-.013A1.474,1.474,0,0,0,52.843,50.9c-.066-6.6.315-13.2-.4-19.779-.538-4.958-3.167-8.343-7.272-9.416a15.3,15.3,0,0,0-7.519.018,9.625,9.625,0,0,0-5.279,3.7v-1.4c-.031-2.007-.291-2.269-2.3-2.277-1.794,0-3.586.031-5.378,0A2.054,2.054,0,0,0,22.554,22.9,2.366,2.366,0,0,0,22.3,24.4V49.934a2.409,2.409,0,0,0,.262,1.519,1.979,1.979,0,0,0,2.025,1.1c1.965-.058,3.935,0,5.9-.021,1.477,0,1.868-.375,1.876-1.871.021-3.935,0-7.871,0-11.806A21.292,21.292,0,0,1,32.5,35.07c.391-2.188,1.173-4.169,3.392-5.09,3.481-1.443,6.54.813,6.821,4.951a2.331,2.331,0,0,0-.223,1.27V49.924a2.184,2.184,0,0,0,.27,1.27ZM13.422,6.578a6.276,6.276,0,0,0-6.338,6.165,6.3,6.3,0,1,0,12.593.189,6.215,6.215,0,0,0-6.254-6.354Z" transform="translate(0 0.002)"/></g></g></svg>