<svg xmlns="http://www.w3.org/2000/svg" width="126.426" height="134.077" viewBox="0 0 126.426 134.077"><defs><style>.a{fill:#47290d;}.b{fill:#ff9e48;}.c{fill:#ff8e26;}.d,.e{fill:#fff;font-family:Cairo-SemiBold, Cairo;font-weight:600;}.d{font-size:21px;}.e{font-size:20px;}</style></defs><g transform="translate(-37.22 9.752)"><g transform="translate(37.22 -11.73)"><path class="a" d="M250.667,287.472a9.7,9.7,0,1,1-4.1-7.916,1.024,1.024,0,0,1,0,1.667l-6.347,4.521a1.941,1.941,0,1,0,2.216,3.173l6.413-4.267a1.024,1.024,0,0,1,1.566.614A9.766,9.766,0,0,1,250.667,287.472Z" transform="translate(-175.288 -194.259)"/><path class="b" d="M219.486,228.714l-7.045,4.708a.649.649,0,0,0-.219.831,18.4,18.4,0,1,1-3.445-4.87,1.154,1.154,0,0,0,1.5.138l6.1-4.347a1.154,1.154,0,0,0,.193-1.708,27.937,27.937,0,1,0,3.86,5.487.655.655,0,0,0-.938-.239Z" transform="translate(-129.998 -148.974)"/><path class="b" d="M195.036,184.331l-7.059,4.722a1.4,1.4,0,0,0-.456,1.823,32.013,32.013,0,1,1-4.171-6.064,1.379,1.379,0,0,0,1.843.219l6.748-4.812a1.255,1.255,0,0,0,.237-1.82,42.89,42.89,0,1,0,4.342,6.277,1.047,1.047,0,0,0-1.483-.346Z" transform="translate(-93.593 -112.576)"/><path class="c" d="M388.537,175.9a1.685,1.685,0,0,1,.1-1.154,1.659,1.659,0,0,1,.623-.7l9.684-6.777a.793.793,0,0,1,.675-.13.762.762,0,0,1,.519.6l.493,6.958a2.247,2.247,0,0,0,.519,1.35,2.218,2.218,0,0,0,1.154.727l6.024,2.622a1.062,1.062,0,0,1,.026,1.947l-8.308,5.842a3.173,3.173,0,0,1-2.83.545l-7.5-2.259a1.774,1.774,0,0,1-1.48-1.636Z" transform="translate(-286.976 -115.517)"/><path class="b" d="M392.07,181.579a1.425,1.425,0,0,1,.617-1.566l8.228-5.77a.675.675,0,0,1,.577-.11.643.643,0,0,1,.441.508q.213,2.957.418,5.911a1.9,1.9,0,0,0,1.414,1.766l5.121,2.23a.9.9,0,0,1,.023,1.653l-7.059,4.965a2.7,2.7,0,0,1-2.406.462l-6.376-1.918a1.515,1.515,0,0,1-1.258-1.391Q391.94,184.943,392.07,181.579Z" transform="translate(-289.516 -120.498)"/><path class="b" d="M64.5,53.479c1.2-1.768,13.1-18.61,35.034-19.386,22.6-.8,35.807,16.172,36.972,17.724l27.141-19.663C162.01,29.817,139.508-1.157,99.81.028c-40.639,1.2-61.323,34.956-62.59,37.111Z" transform="translate(-37.22 3.387)"/><text class="d" transform="translate(25.64 43.085) rotate(-31)"><tspan x="0" y="0">M</tspan></text><text class="d" transform="translate(41.731 33.623) rotate(-20)"><tspan x="0" y="0">I</tspan></text><text class="d" transform="translate(47.102 31.559) rotate(-12)"><tspan x="0" y="0">S</tspan></text><text class="d" transform="matrix(1, 0.035, -0.035, 1, 58.891, 28.974)"><tspan x="0" y="0">S</tspan></text><text class="d" transform="matrix(0.985, 0.174, -0.174, 0.985, 70.806, 29.762)"><tspan x="0" y="0">I</tspan></text><text class="e" transform="translate(76.973 29.336) rotate(21)"><tspan x="0" y="0">O</tspan></text><text class="d" transform="translate(90.26 35.29) rotate(33)"><tspan x="0" y="0">N</tspan></text></g></g></svg>