<svg xmlns="http://www.w3.org/2000/svg" width="25.833" height="25.833" viewBox="0 0 25.833 25.833"><defs><style>.a{fill:none;}.b{fill:#7a7a7a;}</style></defs><path class="a" d="M0,0H25.833V25.833H0Z"/><path class="b" d="M12.611,6.153a2.153,2.153,0,1,1-2.153,2.153,2.159,2.159,0,0,1,2.153-2.153m0,9.688c2.906,0,6.243,1.389,6.458,2.153v1.076H6.153V18c.215-.775,3.552-2.164,6.458-2.164m0-11.84a4.306,4.306,0,1,0,4.306,4.306A4.3,4.3,0,0,0,12.611,4Zm0,9.688C9.737,13.688,4,15.13,4,17.993v3.229H21.222V17.993C21.222,15.13,15.485,13.688,12.611,13.688Z" transform="translate(0.306 2.458)"/></svg>