<svg xmlns="http://www.w3.org/2000/svg" width="79.206" height="78.333" viewBox="0 0 79.206 78.333"><defs><style>.a{fill:none;stroke:#3b68fc;stroke-width:10px;}.b{fill:#3b68fc;}</style></defs><g transform="translate(0 0)"><path class="a" d="M26.06,0a26.062,26.062,0,0,1,1.728,52.063c-.437.033-1.08.056-1.728.056A26.06,26.06,0,0,1,26.06,0Z" transform="translate(13.71 13.042)"/><rect class="b" width="12.65" height="16.36" rx="5.96" transform="translate(32.482)"/><rect class="b" width="12.65" height="16.36" rx="5.96" transform="matrix(0.766, -0.643, 0.643, 0.766, 9.055, 13.836)"/><rect class="b" width="12.65" height="16.36" rx="5.96" transform="translate(0 39.49) rotate(-80)"/><rect class="b" width="12.65" height="16.36" rx="5.96" transform="translate(9.55 64.965) rotate(-120)"/><rect class="b" width="12.65" height="16.36" rx="5.96" transform="matrix(-0.94, -0.342, 0.342, -0.94, 33.244, 78.333)"/><rect class="b" width="12.65" height="16.36" rx="5.96" transform="matrix(-0.94, 0.342, -0.342, -0.94, 59.997, 73.354)"/><rect class="b" width="12.694" height="16.416" rx="5.981" transform="translate(77.095 52.575) rotate(119.887)"/><rect class="b" width="12.65" height="16.36" rx="5.96" transform="translate(77.009 25.134) rotate(80)"/><rect class="b" width="12.65" height="16.36" rx="5.96" transform="matrix(0.766, 0.643, -0.643, 0.766, 59.318, 4.463)"/></g></svg>