<svg xmlns="http://www.w3.org/2000/svg" width="206.653" height="180.412" viewBox="0 0 206.653 180.412"><defs><style>.a{fill:#1a1a1a;}.b{fill:#333;}.c{fill:#fcf481;}.d{fill:#f6ac41;}.e{fill:#fff;opacity:0.19;}</style></defs><g transform="translate(0 0.04)"><g transform="translate(0 -0.04)"><path class="a" d="M.219,232c1.388.641,3.434.431,4.554,1.4,3.049,2.629,7.446,5.5,10.516,8.114,2.275,1.947,4.594,3.337,6.9,5.25,0,28.133,2.611,56.6,2.625,84.717,0,4.106-.4,8.516,2.148,11.693,2.408,3,5.477,2.066,9.068,3.187,1.924.606,2.013,1.067,4.057,1.067,53.395-.01,106.156,2.68,159.549,2.689h7.013v.414c-.333.159-.306.511-.393.786a18.063,18.063,0,0,1-3.9,6.826,17.871,17.871,0,0,1-11.791,6.059,3.342,3.342,0,0,1-1.316.207H20.024c-1.3,0-2.606-.017-3.908-.025-.184-.348-.55-.23-.827-.285A18.754,18.754,0,0,1,.3,349.066c-.056-.273.07-.645-.3-.811v-.827c.352-.3.207-.707.207-1.067V257.636Q.207,244.813.219,232Z" transform="translate(0 -184)"/><path class="b" d="M283.533,231.875V352.659h-167.2a19.528,19.528,0,0,1-6-.806,18.409,18.409,0,0,1-9.135-6.134,17.72,17.72,0,0,1-4.239-11.057c-.036-28.757-.025-63.06,0-91.828,1.707,1.18,2.648,6.056,4.239,7.378,3.62,3.01,8.222,3.213,11.834,6.234,4.355,3.643,16.752,4.267,21.12,7.894,3.246,2.7,5.345,7.628,8.591,10.33,2.791,2.327,3.711.886,6.443,3.285.655.615-.889,2.5,0,2.467,8.2-.021,13.332,7.932,21.524,7.932.447,0-.408-7.124,0-6.864.014,4.795-.014-11.606,0-6.82,0,2.115,6.087,5.735,8.187,5.752,3.79.034,2.29,1.1,6.085,1.068,2.114-.015,7.515-7,7.517-9.172l-2.508,8.1c9.2,0,15.5,3.817,24.7,3.817.592,0-.507-3.362,0-3.817,2.4-2.155,4.056-3.583,6.443-5.752,2.565-2.327,6.7-3.433,9.307-5.711,2.166-1.891,5-1.318,7.159-3.222,2.633-2.3,6.316-6.989,8.949-9.29,2.141-1.868,3.932-2.114,6.085-3.975,2.408-2.088,5.126-7.536,7.517-9.637,2.788-2.443,4.683-1.941,7.517-4.327,3.2-2.7,5.65-3.917,8.843-6.633C277.609,230.963,282.242,232.563,283.533,231.875Z" transform="translate(-76.88 -186.063)"/><path class="a" d="M206.653,157.516a20,20,0,0,0-3.355,2.668c-3.194,2.652-6.286,5.424-9.491,8.068-2.834,2.333-5.536,4.826-8.324,7.215-2.4,2.054-4.836,4.054-7.24,6.1-2.145,1.82-4.263,3.672-6.413,5.5-2.633,2.251-5.283,4.485-7.917,6.737-2.164,1.851-4.3,3.723-6.471,5.585-2.611,2.228-5.275,4.392-7.84,6.669-2.387,2.12-4.884,4.108-7.279,6.216a2.165,2.165,0,0,1-1.6.5h-27.6c-.017-2.342-.039-4.683-.05-7.033,0-2.2-1.129-3.393-3.359-3.413q-5.585-.052-11.17,0c-2.257.021-3.343,1.169-3.359,3.4q-.025,3.616-.06,7.24a2.325,2.325,0,0,0-1.309-.194c-8.2,0-16.4-.012-24.6.014a3.4,3.4,0,0,1-2.4-.9c-2.733-2.346-5.54-4.6-8.33-6.884q-4.859-3.976-9.739-7.925Q42.2,191.737,35.663,186.4c-3.612-2.954-7.2-5.939-10.819-8.883-1.591-1.293-3.08-2.714-4.787-3.868-2.311-1.913-4.644-3.8-6.93-5.749-3.062-2.617-6.3-5.031-9.35-7.67a15.57,15.57,0,0,0-3.558-2.716L0,157.309v-2.9c.383-.153.263-.534.321-.8a18.629,18.629,0,0,1,18.77-15.128h54.03c.447,0,.9-.019,1.343,0a.391.391,0,0,0,.474-.4.923.923,0,0,0,.772.414c3.08-.033,6.16-.046,9.24-.064.376.017.753.046,1.132.046h31.3c1.241,0,2.482-.025,3.723-.037l10.868.037h56.239a18.7,18.7,0,0,1,17.958,13.585,4.69,4.69,0,0,0,.472,1.522Z" transform="translate(0 -109.516)"/><path class="c" d="M402.3-.032a12.593,12.593,0,0,0,2.542.6,18.754,18.754,0,0,1,14.006,17.823c.035,3.517,0,7.033.014,10.533l-10.885-.043c.621-2.933.319-5.906.3-8.858A11.968,11.968,0,0,0,396.541,8.255c-4.408-.06-8.816-.05-13.225,0a11.775,11.775,0,0,0-11.406,9.309,36.169,36.169,0,0,0-.085,11.307c-3.08.019-6.16.031-9.24.064a.923.923,0,0,1-.772-.414c.039-4.539-.48-9.1.352-13.609A18.623,18.623,0,0,1,376.678.347c.414-.081.9,0,1.216-.387Z" transform="translate(-286.87 0.04)"/><path class="d" d="M459.93,459.11q.031-3.616.06-7.24c.017-2.23,1.1-3.378,3.359-3.4q5.585-.052,11.17,0c2.23.021,3.349,1.212,3.359,3.413.01,2.342.033,4.683.05,7.033l-.025,14.162a3.049,3.049,0,0,1-3.293,3.384q-5.689.037-11.377,0a2.991,2.991,0,0,1-3.26-3.293Q459.944,466.128,459.93,459.11Zm8.924-.232c2.275,0,4.551-.021,6.826.014.672.01.9-.182.875-.873-.048-1.655,0-3.31-.021-4.965a2.27,2.27,0,0,0-2.261-2.453q-5.378-.11-10.744,0a2.323,2.323,0,0,0-2.275,2.47c-.029,1.655.023,3.31-.025,4.965-.019.716.267.854.912.844,2.234-.031,4.472-.01,6.713-.008Zm.093,15.558h0c1.655,0,3.31.035,4.965,0a2.5,2.5,0,0,0,2.623-2.689c.012-1.307-.025-2.617.014-3.93.021-.621-.19-.827-.827-.827q-6.814.031-13.632,0c-.7,0-.887.254-.867.906.039,1.169,0,2.34.01,3.517,0,2.009,1.034,3.02,3.07,3.037,1.545-.01,3.088-.019,4.644-.019Z" transform="translate(-364.789 -355.671)"/><path d="M473.808,466.878c-2.24,0-4.478-.023-6.719,0-.645.01-.931-.128-.912-.844.048-1.655,0-3.31.025-4.965a2.326,2.326,0,0,1,2.275-2.47q5.378-.12,10.744,0a2.27,2.27,0,0,1,2.261,2.453c.019,1.655-.027,3.31.021,4.965.021.691-.207.883-.875.873C478.357,466.858,476.081,466.878,473.808,466.878Z" transform="translate(-369.743 -363.678)"/><path d="M473.89,545.459h-4.646c-2.042-.016-3.059-1.034-3.07-3.037,0-1.171.029-2.342-.01-3.517-.021-.652.168-.908.867-.906q6.826.039,13.632,0c.633,0,.844.192.827.827-.039,1.307,0,2.617-.014,3.93a2.522,2.522,0,0,1-2.623,2.689c-1.622.045-3.31,0-4.965,0Z" transform="translate(-369.732 -426.701)"/><path class="e" d="M103.844,140.414v151.02l-87.709-.012A19.331,19.331,0,0,1,0,274.666v-117.7a19.213,19.213,0,0,1,4.137-9.929c5.449-6.659,13.574-7,14.894-7.033Z" transform="translate(0 -111.031)"/></g></g></svg>