<svg xmlns="http://www.w3.org/2000/svg" width="132.312" height="125.845" viewBox="0 0 132.312 125.845"><defs><style>.a{fill:#ff9e48;}.b{fill:#fff;font-size:21px;font-family:Cairo-SemiBold, Cairo;font-weight:600;}.c{fill:#ff902e;}.d{fill:#47290d;}.e{fill:#bf834d;}</style></defs><g transform="translate(-37.22 11.355)"><g transform="translate(37.22 -11.35)"><path class="a" d="M65.769,55.969c1.259-1.851,13.71-19.477,36.665-20.289,23.649-.833,37.474,16.926,38.694,18.55l28.4-20.579C167.818,31.206,144.271-1.211,102.724.03,60.19,1.289,38.545,36.613,37.22,38.868Z" transform="translate(-37.22 3.427)"/><text class="b" transform="matrix(0.893, -0.45, 0.45, 0.893, 32.96, 37.076)"><tspan x="0" y="0">V</tspan></text><text class="b" transform="matrix(0.948, -0.319, 0.319, 0.948, 45.343, 31.136)"><tspan x="0" y="0">I</tspan></text><text class="b" transform="translate(51.176 28.92) rotate(-9.79)"><tspan x="0" y="0">S</tspan></text><text class="b" transform="matrix(1, -0.014, 0.014, 1, 63.745, 27.078)"><tspan x="0" y="0">I</tspan></text><text class="b" transform="translate(70.107 26.631) rotate(10.76)"><tspan x="0" y="0">O</tspan></text><text class="b" transform="translate(85.418 29.642) rotate(25.35)"><tspan x="0" y="0">N</tspan></text><path class="a" d="M55.705,222.873A64.94,64.94,0,0,1,71.5,201.28c4.185-3.738,18.474-16.5,38.984-15.941,15.063.408,25.965,7.793,31.593,11.594a70.99,70.99,0,0,1,14.468,13.016,2.639,2.639,0,0,1,.761,1.413,2.717,2.717,0,0,1-.462,2.011,69.51,69.51,0,0,1-34.21,32.909c-.281.248-.565.546-.489.706s.713.091.924.054c17.547-3.11,34.455-20.228,34.455-20.228a144.036,144.036,0,0,0,15.76-18.966,2.926,2.926,0,0,0,.435-1.576,2.989,2.989,0,0,0-.815-1.956c-2.953-3.17-27.58-28.709-65.486-25.434-41.423,3.587-61.531,38.338-63.137,41.23a2.113,2.113,0,0,0-.326,1.685,2.011,2.011,0,0,0,.706,1.06,95.023,95.023,0,0,0,11.114,9.619,90.94,90.94,0,0,0,20.488,11.473,85.527,85.527,0,0,0,9.293,3.043.716.716,0,0,0,.706-.435.761.761,0,0,0-.706-.87,64.654,64.654,0,0,1-9.184-4.293,66.576,66.576,0,0,1-20.666-18.52Z" transform="translate(-41.884 -121.248)"/><path class="c" d="M218.875,229.527l-6.9.981a1.51,1.51,0,0,0-1.25,1.917,18.07,18.07,0,1,1-10.042-11.431,1.51,1.51,0,0,0,2.059-.966q.981-3.336,1.972-6.675a1.51,1.51,0,0,0-.876-1.839,27.907,27.907,0,0,0-11.322-2.008,28.473,28.473,0,0,0-27.145,28.139,28.024,28.024,0,1,0,55.194-7.011A1.51,1.51,0,0,0,218.875,229.527Z" transform="translate(-126.679 -142.82)"/><path class="d" d="M241.078,269.045a.806.806,0,0,0-.836-.444l-.957.136-1.962.278a.737.737,0,0,1-.978-1.087l.553-1.866.263-.906a.806.806,0,0,0-.335-.906,12.025,12.025,0,0,0-7.273-1.92,12.509,12.509,0,0,0-11.34,11.379,12.077,12.077,0,1,0,22.867-4.665Z" transform="translate(-163.551 -179.689)"/><path class="e" d="M244.351,277.691a10.621,10.621,0,1,1-4-8.336c-.118.3-.51,1.7-.688,2.43a.6.6,0,0,0,.124.423c.226.257.688.169.788.148l2.153-.3A10.567,10.567,0,0,1,244.351,277.691Z" transform="translate(-166.985 -182.991)"/></g></g></svg>