<svg xmlns="http://www.w3.org/2000/svg" width="394.771" height="289.709" viewBox="0 0 394.771 289.709"><defs><style>.a{fill:#f6f6f6;}.b{fill:#7a7a7a;}.c{fill:#b8b8b8;}</style></defs><path class="a" d="M394.771,0H0V289.709H394.771Z" transform="translate(0)"/><path class="b" d="M255.911,137.347c.408,1.163-.346,2.845,1.682,3.06.325.035.3.775.332,1.218.63,9.387,1.288,18.768,1.862,28.155.062,1.073.291,1.454,1.385,1.419,2.575-.076,5.158-.083,7.733,0,1.1.035,1.322-.415,1.315-1.385-.083-8.571.692-17.12.561-25.691v-1.343c.042-.865.346-1.6,1.322-1.606s1.2.748,1.225,1.516c.09,3.074.132,6.148.194,9.221.132,5.988.277,11.977.374,17.965,0,.9.194,1.308,1.2,1.281,2.686-.055,5.379-.042,8.065,0,.838,0,1.142-.194,1.2-1.108.6-9.436,1.253-18.872,1.876-28.308.055-.838.1-1.585,1.177-1.689.575-.062.692-.492.692-.976a3.212,3.212,0,0,1,.256-1.765c.561-.118.782.395,1.163.575a3.442,3.442,0,0,0,5.109-2.132q2.928-10.384,5.033-21.039a8.84,8.84,0,0,0-.284-4.486,87.393,87.393,0,0,0-9.367-20.54,3.219,3.219,0,0,0-1.862-1.558c-3.06-.879-6.127-1.745-9.145-2.769-1.385-.471-1.8.042-2.035,1.26a96.166,96.166,0,0,1-2.305,9.962,2.485,2.485,0,0,1-1.156,1.786V91.158c-.062-.872-.478-1.551-1.419-1.558s-1.385.692-1.385,1.558c-.062,2.015-.09,4.029-.145,6.044,0,.3.138.692-.228.921-.651-.215-.63-.858-.782-1.343a89.384,89.384,0,0,1-2.361-10.121c-.256-1.385-.81-1.634-2.077-1.232-2.977.962-5.981,1.862-9,2.769a3.129,3.129,0,0,0-1.828,1.385,87.084,87.084,0,0,0-9.36,20.187c-.879,2.617-.505,5.338.1,7.975q1.945,8.411,4.015,16.8C250.033,138.247,251.93,139.057,255.911,137.347Zm32.254-6.812q-.443-13.216-.9-26.439l.505-.1c1.634,3.233,3.641,6.514,3.33,10.232a85.929,85.929,0,0,1-2.935,16.3Zm-32.184-.692c-.062-.872-.692-1.5-.838-2.285q-.879-5.386-1.689-10.8c-.2-1.385-.658-2.845-.339-4.105a27.087,27.087,0,0,1,3.392-8.411c.741,8.778-.955,17.169-.526,25.629Z" transform="translate(-74.268 -26.214)"/><path class="b" d="M329.9,148.044h8.91c1.218,0,1.385-.325.692-1.315a14.581,14.581,0,0,1-2.077-4.922c-1.385-6.058-3.046-12.032-4.2-18.131a14.413,14.413,0,0,1,1.052-8.19c.312-.789.381-1.038-.588-1.08s-1.482-.741-1.973-1.433a2.9,2.9,0,0,0-3.683-1.073c-1.855.623-3.731,1.177-5.614,1.7a2.811,2.811,0,0,0-2.208,2.61,130.628,130.628,0,0,0-.851,30.135c.125,1.329.581,1.738,1.835,1.717C324.082,148,326.99,148.044,329.9,148.044Z" transform="translate(-165.887 -34.357)"/><path class="b" d="M360.081,135.932c2.8,0,5.607-.055,8.4,0,1.2.035,1.841-.256,1.661-1.571-.921-6.584.582-13.036,1.066-19.543.042-.554.249-1.108.235-1.655,0-.838,1.385-1.668.042-2.492a4.466,4.466,0,0,0-4.9-.159c-.845.609-1.135,2.015-2.347,1.966-1.1-.048-1.385-1.343-2.215-1.938a3.011,3.011,0,0,0-3-.533,38.262,38.262,0,0,1-5.448,1.641,3.036,3.036,0,0,0-2.555,3.233c-.215,5.2-.471,10.384-.692,15.59-.069,1.288-.152,2.568-.284,3.849-.118,1.149.291,1.62,1.5,1.6,2.859-.062,5.718,0,8.571,0Z" transform="translate(-219.622 -33.792)"/><path class="b" d="M223.374,111.6c3.129,5.538.8,10.7-.312,15.881-.914,4.258-2.077,8.453-3.254,12.655-.395,1.385,0,1.786,1.385,1.779q7.054-.042,14.1.055c1.488,0,2-.526,2.118-2.077a135.537,135.537,0,0,0-.762-26.307,3.1,3.1,0,0,0-2.471-2.977q-2.347-.623-4.652-1.385a2.7,2.7,0,0,0-3.392,1,2.887,2.887,0,0,1-2.762,1.371Z" transform="translate(4.971 -33.534)"/><path class="b" d="M210.3,121.391c-.1-2.769,0-6.044-.312-9.339a2.942,2.942,0,0,0-2.465-2.935,32.192,32.192,0,0,1-4.327-1.322,2.986,2.986,0,0,0-3.842,1.1c-1,1.253-1.731,1.17-2.721.069a4.065,4.065,0,0,0-4.77-.99c-.6.215-1.094.561-.8,1.385,1.385,4.022.99,8.307,1.668,12.461a23.987,23.987,0,0,1,0,7.864c-.166,1.025.18,1.385,1.246,1.385q7.394-.042,14.787.055c1.17,0,1.578-.395,1.551-1.565C210.3,127,210.3,124.458,210.3,121.391Z" transform="translate(52.242 -33.076)"/><path class="c" d="M280.638,50.06c-6.044,0-9.076,3.427-8.307,9.484a17.362,17.362,0,0,0,4.348,9.99c2.5,2.638,5.7,2.638,8.044-.069A17.355,17.355,0,0,0,289.1,56.616a7.165,7.165,0,0,0-7.117-6.556Z" transform="translate(-82.83 -15.404)"/><path class="c" d="M325.678,87.28a5.526,5.526,0,0,0-5.684,6.355,11.942,11.942,0,0,0,2.97,7.144c1.544,1.717,3.461,1.959,5.019.436a10.64,10.64,0,0,0,3.33-9.284C330.932,88.983,328.62,87.273,325.678,87.28Z" transform="translate(-158.151 -26.857)"/><path class="c" d="M352.9,91.743a11.076,11.076,0,0,0,2.887,7.331,3.312,3.312,0,0,0,5.49-.062c2.118-2.575,3.6-5.407,2.866-8.931-.692-3.261-2.825-4.763-6.4-4.486-2.769.215-4.728,2.409-4.846,5.476C352.891,91.293,352.9,91.515,352.9,91.743Z" transform="translate(-213.866 -26.329)"/><path class="c" d="M206.448,85.52a4.874,4.874,0,0,0-5.227,5.1,10.045,10.045,0,0,0,2.825,7.3,2.849,2.849,0,0,0,4.2.346c2.513-2.4,3.891-5.317,3.143-8.882A4.66,4.66,0,0,0,206.448,85.52Z" transform="translate(43.876 -26.315)"/><path class="c" d="M241.607,92.32c0-3.461-2.271-5.538-5.656-5.261a5.109,5.109,0,0,0-4.6,6.168,11.935,11.935,0,0,0,2.409,5.815c1.558,1.925,3.628,1.987,5.3.159a9.242,9.242,0,0,0,2.555-6.881Z" transform="translate(-6.955 -26.782)"/></svg>