<svg xmlns="http://www.w3.org/2000/svg" width="394.093" height="294.364" viewBox="0 0 394.093 294.364"><defs><style>.a{fill:#f6f6f6;}.b{fill:#7a7a7a;}.c{fill:#b8b8b8;}</style></defs><path class="a" d="M0,0H394.093V294.364H0Z"/><path class="b" d="M240.1,85.212H226.281a38.013,38.013,0,0,1,2.688-6.3c.394-.822,1.106-.691,1.831-.691,4.976,0,9.959-.048,14.942.041a16.873,16.873,0,0,0,8.12-1.52c8.487-4.409,17.063-3.67,25.806-1.009,4.63,1.382,9.288,2.827,14.244,2.467,1.458-.1,1.749,1.14,2.2,2.073,3.711,7.858,7.367,15.743,11.106,23.587q2.806,5.881,5.833,11.652c1.382,2.612,1.742,5.093-.041,7.692a4.582,4.582,0,0,0,0,5.169,10.436,10.436,0,0,1-7.519,15.854,1.61,1.61,0,0,0-1.59,1.583c-.691,5.273-4.022,8.459-9.219,8.763a2.5,2.5,0,0,0-2.626,1.97c-1.977,5.626-7.3,8.058-12.8,5.729-1.977-.836-3.144-.795-4.561,1.023-2.447,3.131-6.724,3.96-10.588,2.343-1.327-.56-2.218-.553-3.117.774-1.97,2.9-4.568,3.829-7.72,2.972-2.84-.774-4.147-2.557-4.527-6.282a4.983,4.983,0,0,0-.145-.691c-.594.394-1.092.781-1.631,1.092-5.356,3.1-10.885-.035-10.947-6.22,0-1.2,0-1.672-1.555-1.23-6.158,1.776-10.145-1.776-10.263-9.088-1.6.47-3.138,1.175-4.838.981-6.116-.691-8.984-7.111-5.46-12.239,1.182-1.707,2.384-3.407,3.69-5.01a2.175,2.175,0,0,0,0-3.234c-1.983-2.315-3.794-4.776-5.764-7.1a2.543,2.543,0,0,1-.366-3.331c.822-1.382,1.472-2.875,2.191-4.312.691-.055.871.56,1.161.919,2.522,3.138,5.045,6.275,7.505,9.461a3.352,3.352,0,0,0,3.11,1.493c5.391-.235,8.245,2.661,8.2,8.148,0,2.419.228,2.688,2.612,2.8,4.147.2,6.821,2.516,7.526,6.711.242,1.472,1,2.288,2.4,2.308,4.319.041,7.153,1.721,8.335,6.22.546,2.073,2.84,3.138,4.879,3.794a4.679,4.679,0,0,1,2.937,2.3,7.948,7.948,0,0,0,4.285,3.456,3.31,3.31,0,0,0,3.753-.822c1.382-1.382,1.3-2.267-.3-3.4-3.269-2.336-6.545-4.651-9.807-6.994a7.41,7.41,0,0,1-1.6-1.382c-.878-1.161-1.306-2.44-.193-3.718a2.7,2.7,0,0,1,3.684-.574c1.451.843,2.827,1.831,4.188,2.813,4.582,3.283,9.136,6.6,13.7,9.9,1.237.9,2.55,1.617,4.147,1.044a3.863,3.863,0,0,0,2.64-2.882,4.105,4.105,0,0,0-1.742-4.271c-1.8-1.382-3.69-2.64-5.529-3.946l-12.7-8.984c-.422-.3-.864-.581-1.258-.919a3.542,3.542,0,0,1-.76-4.575c.836-1.14,2.585-1.265,4.195-.117,6.013,4.285,11.984,8.618,17.969,12.93,1.624,1.175,3.241,2.37,4.907,3.49a3.946,3.946,0,1,0,4.527-6.448c-7.132-5.169-14.313-10.277-21.459-15.425-1.424-1.023-2.806-2.073-4.147-3.2a2.7,2.7,0,0,1-.691-3.815c.892-1.472,2.212-1.382,3.573-.753a22.994,22.994,0,0,1,4.112,2.564l21.811,15.937c1.486,1.085,3.068,2.073,5,1.686a5.107,5.107,0,0,0,4.05-3.766c.65-2.073-.311-3.732-1.769-5.017-4.147-3.656-8.335-7.215-12.5-10.83-8.86-7.692-17.665-15.439-26.262-23.4-2.274-2.073-5.114-1.9-7.706-1.147a6.911,6.911,0,0,0-4.921,5.8c-.774,5.266-3.988,8.618-8.217,11.189a11.59,11.59,0,0,1-10.449.9c-2.675-1-3.912-3.373-2.806-5.93a33.346,33.346,0,0,0,2.557-11.32A18.936,18.936,0,0,1,240.1,85.212Z" transform="translate(-65.178 -20.411)"/><path class="c" d="M179.9,107.417a5.529,5.529,0,0,1,.366-2.522c5.626-10.671,10.367-21.77,15.647-32.606,1.479-3.027,2.889-6.089,4.354-9.129s3.366-3.684,6.275-2.391a49.952,49.952,0,0,1,7.263,3.684c2.847,1.866,3.366,3.532,1.921,6.572q-6.372,13.435-12.8,26.856c-2.177,4.561-4.326,9.136-6.489,13.7-1.97,4.147-3.455,4.7-7.6,2.764a54.6,54.6,0,0,1-7.222-3.856C180.378,109.7,179.535,108.772,179.9,107.417Z" transform="translate(-55.545 -18.576)"/><path class="c" d="M373.942,107.683c.325,1.2-.518,2.011-1.576,2.764-2.868,2.073-6.13,3.338-9.288,4.838-1.97.912-4.091-.318-5.259-2.764q-7.008-14.644-13.967-29.3Q340.969,77.15,338.1,71.1c-1.458-3.089-1-4.838,1.935-6.5q3.456-1.97,7.056-3.649c3.165-1.472,4.893-.836,6.427,2.357,4.955,10.367,9.862,20.733,14.8,31.058,1.7,3.566,3.4,7.139,5.2,10.657A6.408,6.408,0,0,1,373.942,107.683Z" transform="translate(-104.191 -18.593)"/></svg>