<svg xmlns="http://www.w3.org/2000/svg" width="394.094" height="292.864" viewBox="0 0 394.094 292.864"><defs><style>.a{fill:#f6f6f6;}.b{fill:#7a7a7a;}.c{fill:#b8b8b8;}</style></defs><g transform="translate(11 19)"><g transform="translate(0)"><path class="a" d="M394.094,0H0V292.864H394.094Z" transform="translate(-11 -19)"/><path class="b" d="M280.337,102.35a8.354,8.354,0,0,0-4.594-4.031c-.771-.249-.468-.889-.468-1.387V65.2c0-2.964-.3-3.266-3.207-3.266H224.234c-2.591,0-2.964.356-2.964,2.869v64.514c0,2.573.326,2.9,2.917,2.9,4.15,0,8.341.059,12.514-.03,1.648-.042,5.029,2.593,5.029,2.593s-2.4,2.76-5.029,2.552c-4.1-.326-9.722.012-13.842,0a6.6,6.6,0,0,1-6.764-6.171,19.043,19.043,0,0,1-.095-1.944V64.4c0-2.745.871-5.063,3.29-6.61a6.58,6.58,0,0,1,3.658-1.055h50.507c4.1,0,7.043,3.166,7.025,7.451q-.071,18.021-.154,36.048Z" transform="translate(-53.898 -17.255)"/><path class="c" d="M288.822,186.517c-.99-.207-.768-3.337-.875-3.906a6.735,6.735,0,0,0-5.383-5.638,2.979,2.979,0,0,0-3.249.771,6.42,6.42,0,0,1-1.28,1,2.425,2.425,0,0,1-3.343-.4c-.931-.954-1.844-1.933-2.792-2.869a2.019,2.019,0,0,1-.059-3.011,5.993,5.993,0,0,0-2.774-9.716c.107-.474.207-.949.314-1.423.741,0,1.494-.03,2.229.036s1.595.285,1.855,1.043c.628,1.778,1.778,3.332,2.454,5.08a4.375,4.375,0,0,1-.741,4.742c-1.63,1.962-1.553,2.01.1,3.907.96,1.109,1.606.984,2.46-.083a3.818,3.818,0,0,1,4.535-1.328c1.446.5,2.917.949,4.327,1.547a5.157,5.157,0,0,1,3.326,4.861,1.186,1.186,0,0,0,.741,1.257c2.152,1.031,4-.041,4.043-2.419.041-2.176.96-3.314,3.089-3.7a7.113,7.113,0,0,0,2.508-.871c2.857-1.778,3.32-1.725,5.8.539a1.737,1.737,0,0,0,2.4.207c2.01-1.31,2.193-2.336.64-4.2a3.578,3.578,0,0,1-.593-4.387,15.34,15.34,0,0,0,1.909-4.808,1.585,1.585,0,0,1,2.039-1.411,6.007,6.007,0,0,0,1.63,0c1.482-.219,2.122-1.28,2.371-3.16.19-1.606-.96-1.387-1.832-1.63-3.859-1.067-6.948-5.928-6.248-9.87a4.208,4.208,0,0,1,1.049-1.933c1.049-1.269,1.043-2.1,0-3.272s-2.134-1.488-3.207-.314c-2.1,2.3-4.15,1.7-6.325.409a4.658,4.658,0,0,0-1.073-.5,5.2,5.2,0,0,1-4.215-5.418,1.115,1.115,0,0,0-.534-1.138,2.933,2.933,0,0,0-4.47,2.721,2.732,2.732,0,0,1-2.371,3.2,8.893,8.893,0,0,0-2.934,1.014c-2.158,1.476-4.084,1.4-6.017-.451-1.067-1.02-2.1-.842-3.118.237-1.274,1.357-1.227,2.371.421,4.1,1.037,1.079,1.363,2.051.5,3.4a18.086,18.086,0,0,0-1.257,2.851c-1.583,3.752-2.881,4.588-6.906,4.44a1.553,1.553,0,0,1-1.31-1,1.233,1.233,0,0,1,1.506-.848c2.081.219,3.373-.854,4.15-2.662.516-1.186.972-2.371,1.535-3.557a1.429,1.429,0,0,0-.332-1.749c-.368-.4-.788-.759-1.132-1.186-1.429-1.743-1.275-3.308.433-4.8a20.457,20.457,0,0,0,1.778-1.595c1.369-1.482,2.158-1.618,3.853-.456a7.167,7.167,0,0,0,3.083,1.387c3.065.439,5.531-1.387,6.26-4.606.528-2.336.534-2.33,2.964-2.253,1.535.047,3.077.059,4.612.047.682,0,1.15.065,1.132.931-.083,3.557,2.11,5.228,5.181,6.124a3.916,3.916,0,0,0,3.966-1.055c2.075-1.832,2.727-1.778,4.612.373a31.031,31.031,0,0,0,2.193,2.223,1.882,1.882,0,0,1,.166,2.964c-.13.148-.249.308-.368.468a6.159,6.159,0,0,0,2.033,9.07,3.361,3.361,0,0,0,2.371.486,1.416,1.416,0,0,1,1.838,1.559c0,1.435.059,2.869,0,4.3-.035,1.778-.658,2.484-2.448,2.78-.439.071-.889.059-1.328.136a5.171,5.171,0,0,0-1.429.368c-2.146,1.109-3.13,6.272-1.577,8.115,1.927,2.276,1.85,3.13-.4,5.021a8.787,8.787,0,0,0-1.144,1.156c-1.583,1.891-2.519,2.027-4.547.628a6.1,6.1,0,0,0-8.613,1.885c-.593.984-.378,4.693-.941,5.653C293.834,186.69,288.994,186.357,288.822,186.517Z" transform="translate(-74.526 -40.114)"/><path class="b" d="M256.19,104.35h17.553a2.7,2.7,0,0,1,2.6,1.1A2.436,2.436,0,0,1,275.071,109a5.721,5.721,0,0,1-2.051.249H239.4a10.075,10.075,0,0,1-1.037,0,2.5,2.5,0,0,1-2.579-2.525c.018-1.4,1-2.318,2.7-2.324C244.387,104.332,250.286,104.356,256.19,104.35Z" transform="translate(-61.952 -31.625)"/><path class="b" d="M256.092,88.842H238.219a2.4,2.4,0,0,1,.03-4.8h35.562c2.3,0,3.557,1.583,2.7,3.4a2.631,2.631,0,0,1-2.709,1.423C267.871,88.836,261.973,88.842,256.092,88.842Z" transform="translate(-61.978 -24.333)"/><path class="b" d="M243.863,124.633h6.55c1.014,0,1.4.368,1.375,1.4-.077,3.361.385,3.077-2.964,3.083-3.723,0-7.44-.053-11.162,0-1.435.036-2.039-.451-1.879-1.879a5.581,5.581,0,0,0,0-1.043c-.089-1.132.385-1.618,1.553-1.589C239.5,124.668,241.681,124.633,243.863,124.633Z" transform="translate(-61.943 -38.911)"/><path class="c" d="M265.316,170.111s1.984.594,1.361,1-.536,1.4-.492,2.361a2.877,2.877,0,0,0,1.97,2.984c1.13.377-.255.9-.362,1.376a3.6,3.6,0,0,1-3.433-3.722A11.513,11.513,0,0,1,265.316,170.111Z" transform="translate(-73.166 -55.212)"/><path class="c" d="M303.91,219.005a1.1,1.1,0,0,1,.612-.323,17.208,17.208,0,0,0,6.918-.433c.077.539-.071,1.186-.593,1.186C308.776,219.6,306.139,220.173,303.91,219.005Z" transform="translate(-89.802 -72.69)"/><path class="c" d="M300.315,162.036a8.736,8.736,0,0,1,.385-2.928c.806-2.43,2.01-3.278,4.535-3.2h.148c4.974-.119,6.61,2.063,6.118,7.612a8.057,8.057,0,0,1-1.636,4.084c-2.253,3.047-5.626,3.065-7.926.042A9.271,9.271,0,0,1,300.315,162.036Z" transform="translate(-88.228 -49.821)"/><path class="c" d="M302.227,187.879h-9.372c-1.049,0-2.187.083-2.537-1.251s.018-1.911,1.578-3.2a41.833,41.833,0,0,1,3.858-2.552,3.526,3.526,0,0,1,4.529.421,1.65,1.65,0,0,0,2.371.1,5.068,5.068,0,0,1,5.228-.4,22.33,22.33,0,0,1,4.393,2.756,3.142,3.142,0,0,1,1.227,2.14c.213,1.512-.332,2.027-1.873,2.01-3.124-.036-6.254,0-9.378,0Zm10.315-.907a2.3,2.3,0,0,0-2.045-.593H294.283a3.373,3.373,0,0,1-2.259-.533c-.219-.178-.51-.451-.729-.065a.593.593,0,0,0,.273.777,3.871,3.871,0,0,0,2.662.688,103.889,103.889,0,0,1,10.522-.279Z" transform="translate(-84.134 -58.77)"/><path class="c" d="M314.249,191.611h-8.166a67.216,67.216,0,0,0-11.031.475,2.992,2.992,0,0,1-2.79-1.171,1.351,1.351,0,0,1-.286-1.323.641.641,0,0,1,1.124-.238c.7.748,1.255,1.118,2.086.956,5.668,0,11.2-.507,16.859-.507C312.7,189.8,313.459,190.329,314.249,191.611Z" transform="translate(-85.451 -62.982)"/></g></g></svg>