<svg xmlns="http://www.w3.org/2000/svg" width="394.771" height="294.269" viewBox="0 0 394.771 294.269"><defs><style>.a{fill:#f6f6f6;}.b{fill:#7a7a7a;}.c{fill:#b8b8b8;}</style></defs><rect class="a" width="394.771" height="294.269"/><path class="b" d="M255.326,160.588c1.987,2.825,4.355,4.23,7.948,3.925a118.4,118.4,0,0,1,13.022-.041,5.67,5.67,0,0,0,3.96-1.454q11.81-9.6,23.7-19.107a10.1,10.1,0,0,1,11.125-1.475c3.06,1.385,3.558,4.078,1.2,6.4q-14.026,13.846-28.135,27.692a16.684,16.684,0,0,1-11.97,4.735c-13.6.042-27.2.1-40.8.09a2.942,2.942,0,0,0-2.769,1.537c-2.077,3.205-4.32,6.321-6.376,9.547-.748,1.17-1.142,1.267-2.153.242-6.231-6.328-12.524-12.586-18.81-18.851-1.488-1.488-2.991-2.97-4.534-4.4-.692-.623-.692-1.025,0-1.675,7.712-7.442,15.279-15.057,23.136-22.34,7.082-6.563,15.694-7.74,24.445-4.562a47.477,47.477,0,0,0,16.262,2.6c2.361,0,4.721.125,7.075.249,4.791.27,8.266,3.821,8.2,8.349-.062,4.265-3.96,8.017-8.557,8.114s-9.194.09-13.79.145A3.676,3.676,0,0,0,255.326,160.588Z" transform="translate(-61.61 -42.823)"/><path class="c" d="M278.433,54.3c13.278,0,26.563.042,39.841-.048,1.814,0,2.139.554,2.132,2.215q-.09,23.178,0,46.383c0,1.585-.374,2-1.987,2q-40.118-.083-80.243,0c-1.634,0-1.994-.485-1.987-2.077q.083-23.268,0-46.536c0-1.627.478-1.98,2.028-1.973C251.621,54.326,265.031,54.3,278.433,54.3Zm-.083,8.494H246.56c-1.385,0-1.814.312-1.8,1.772q.1,14.933,0,29.872c0,1.385.228,1.848,1.738,1.841q31.8-.083,63.58,0c1.385,0,1.835-.312,1.828-1.786q-.1-14.836,0-29.678c0-1.565-.346-2.028-1.966-2.015C299.417,62.834,288.88,62.793,278.35,62.793Z" transform="translate(-72.678 -16.693)"/><path class="c" d="M303.946,88.256a17.307,17.307,0,0,1-2.077,7.844c-.6,1.142-1.177,1.509-2.264.429a11.693,11.693,0,0,0-16.511,0c-.54.568-1.142,1.232-1.918,0-3.877-6.231-3.018-15.182,2.077-20.4s12.634-4.721,17.307,1.163C303.018,80.406,303.883,83.992,303.946,88.256Zm-18.789-3.143a6.227,6.227,0,1,0,12.454-.062c0-3-3.032-6.127-5.961-6.189A6.639,6.639,0,0,0,285.157,85.113Z" transform="translate(-85.778 -22.316)"/><path class="c" d="M260.751,94.281a6.5,6.5,0,0,1-6.231-6.452,6.4,6.4,0,0,1,6.231-6.189,6.321,6.321,0,1,1,0,12.641Z" transform="translate(-78.319 -25.122)"/><path class="c" d="M327.481,94.281a6.321,6.321,0,1,1,6.411-6.265A6.48,6.48,0,0,1,327.481,94.281Z" transform="translate(-98.852 -25.122)"/></svg>