<svg xmlns="http://www.w3.org/2000/svg" xmlns:xlink="http://www.w3.org/1999/xlink" width="395.184" height="296.106" viewBox="0 0 395.184 296.106"><defs><style>.a{fill:#fff;}.b{fill:#7a7a7a;}.c{fill:#b8b8b8;}.d{filter:url(#a);}</style><filter id="a" x="169.924" y="95.208" width="31.24" height="30.676" filterUnits="userSpaceOnUse"><feOffset dy="0.5" input="SourceAlpha"/><feGaussianBlur stdDeviation="0.5" result="b"/><feFlood flood-color="#fff" flood-opacity="0.18"/><feComposite operator="in" in2="b"/><feComposite in="SourceGraphic"/></filter></defs><rect class="a" width="395.184" height="296.106"/><path class="b" d="M268.712,167.966c-3.957-3.32-7.533-6.182-10.957-9.224-1.344-1.2-2.176-1.31-3.569,0-3.063,2.814-6.313,5.412-9.508,8.074-.347.291-.658.915-1.2.624s-.236-.894-.236-1.351c0-6.2-.062-12.391,0-18.594,0-1.324-.43-1.8-1.629-2.079-7.013-1.538-10.728-6.272-12.356-12.966a7.262,7.262,0,0,1,0-1.649c0-19.328.062-38.663,0-57.991A16.119,16.119,0,0,1,241.345,57.1a12.315,12.315,0,0,1,3.056-.388h47.305c5.988,0,12.356,4.719,14.144,10.444a18.861,18.861,0,0,1,.832,5.738q-.076,28.809,0,57.617a15.614,15.614,0,0,1-11.2,14.664,16.59,16.59,0,0,1-4.532.61c-6.868-.042-13.742,0-20.617-.049-1.3,0-1.649.381-1.636,1.656.055,6.078,0,12.149,0,18.226ZM298.969,101.3c0-9.446-.132-18.9.048-28.337a8.233,8.233,0,0,0-8.462-8.552c-15.025.111-30.056.042-45.087.055a8.489,8.489,0,0,0-3.07.409c-3.687,1.386-5.378,3.978-5.385,8.455v55.753a17.068,17.068,0,0,0,.159,2.384,7.486,7.486,0,0,0,4.761,6.029c.908.409,1.386.291,1.337-.839-.049-1.386,0-2.821,0-4.234,0-.457-.125-.949.541-1.192a2.883,2.883,0,0,1,3.846,1.85c.243.783.381,1.85,1.622.922,4.345-3.257,8.711-3.015,13.077-.042,1.123.769,1.49.2,1.677-.852.125-.693-.09-1.684.846-1.83,1.13-.18,2.432-.444,3.417.139.742.437.229,1.587.291,2.412a14.486,14.486,0,0,1,0,2.571c-.139,1.3.36,1.67,1.649,1.656,6.618-.055,13.25-.194,19.869,0a8.268,8.268,0,0,0,8.919-8.815C298.81,119.975,298.969,110.619,298.969,101.3Z" transform="translate(-70.365 -17.409)"/><path class="c" d="M268.712,168.154c-3.957-3.337-7.533-6.214-10.957-9.272-1.344-1.205-2.176-1.317-3.569,0-3.063,2.828-6.313,5.44-9.508,8.115-.347.293-.658.92-1.2.627s-.236-.9-.236-1.358c0-6.228-.062-12.455,0-18.69,0-1.331.089-15.87.089-15.87H268.7s-.014,14.484,0,15.766c.055,6.109,0,12.211,0,18.32Z" transform="translate(-70.365 -17.597)"/><g class="d" transform="matrix(1, 0, 0, 1, 0, 0)"><path class="c" d="M268.061,149.88c-1.961-.929-3.631-1.649-5.239-2.5a2.918,2.918,0,0,0-3.063,0c-1.545.839-3.195,1.49-4.8,2.225a47.971,47.971,0,0,1-1.282-5.066,2.571,2.571,0,0,0-1.767-2.273c-.568-.222-1.1-.513-1.649-.783-3.548-1.76-3.8-2.031-.984-4.671,2.689-2.529,1.448-5.038.755-7.54-.492-1.795.069-2.121,1.538-1.871,3.881.693,6.736-.638,8.586-4.158.6-1.13,1.386-1.566,2.141-.118,1.982,3.666,5.038,4.983,9.085,4.269,1.116-.2,1.85.076,1.206,1.476-1.8,3.895-.693,7.138,2.384,9.848,1.039.922.693,1.435-.388,1.691C269.779,141.6,267.9,144.932,268.061,149.88ZM266.238,132.6c-2.01.457-3.555.083-4.539-1.67-.326-.575-.783-.208-.991.166a3.132,3.132,0,0,1-3.514,1.649c-.693-.1-.873.3-.6.894a2.723,2.723,0,0,1-.748,3.465c-.644.61-.416,1.074.36,1.31A2.772,2.772,0,0,1,258.282,141c.111.866.547,1.178,1.386.561a2.564,2.564,0,0,1,3.223,0c.839.561,1.3.471,1.435-.638a2.626,2.626,0,0,1,2.031-2.453c.43-.111,1.338-.381.568-1.074C265.455,136.027,265.642,134.488,266.238,132.6Z" transform="translate(-75.94 -26)"/></g><path class="b" d="M275.717,87.8h-18.94c-1.636,0-3.216-.291-4.158-1.843-1.635-2.772.166-5.87,3.465-5.939,2.883-.062,5.759,0,8.642,0h30.493c2.772,0,4.581,1.8,4.352,4.255-.194,2.19-1.864,3.521-4.567,3.534C288.586,87.821,282.155,87.8,275.717,87.8Z" transform="translate(-77.363 -18.199)"/><path class="b" d="M270.042,107.225H256.424c-2.564,0-4.276-1.49-4.345-3.708-.083-2.349,1.552-3.936,4.262-3.95q13.8-.055,27.6,0c2.626,0,4.158,1.532,4.158,3.867s-1.656,3.77-4.248,3.784C279.224,107.246,274.629,107.225,270.042,107.225Z" transform="translate(-77.384 -22.651)"/></svg>