<svg xmlns="http://www.w3.org/2000/svg" width="394.094" height="290.041" viewBox="0 0 394.094 290.041"><defs><style>.a{fill:#fff;}.b{fill:#b8b8b8;}.c{fill:#7a7a7a;}</style></defs><rect class="a" width="394.094" height="290.041"/><path class="b" d="M323.5,132.281c4.444,2.073,6.911,5.861,9.143,9.675a10.594,10.594,0,0,1,1.382,5.28c-.055,2.177.152,4.534-1.23,6.365a8.839,8.839,0,0,1-5.335,3.193,23.021,23.021,0,0,1-4.838.415c-12.385,0-24.762.048-37.14,0-1.285,0-1.742.311-2.073,1.672a11.682,11.682,0,0,1-9.143,9.219c-4.554,1.126-9.212,1.037-13.857,1.113-11.749.187-23.5.5-35.246-.145q-3.455-.187-6.952-.518c-6.911-.691-10.595-3.9-12-10.678-.256-1.244-.608-1.417-1.742-1.417H168.841a18.848,18.848,0,0,1-5.377-.822,8.593,8.593,0,0,1-6.5-8.653,19.15,19.15,0,0,1,14.437-19.434c2.156-.594,2.916-.263,3.843,1.8a44.8,44.8,0,0,0,6.137,10.111,5.466,5.466,0,0,1,1.044,1.942c.836,0,.864-.65.947-1.168a9.461,9.461,0,0,0-1.223-6.911c-.29-.463-.781-.919-.332-1.514s.919-.214,1.382-.131a21.554,21.554,0,0,0,4.478.09c.539,0,1.126-.408,1.507.29s-.041,1.085-.387,1.527c-1.382,1.776-1.465,3.815-1.279,5.923.055.56.159,1.216.733,1.437.726.276.905-.491,1.209-.912,2.668-3.608,5.536-7.063,7.3-11.21.691-1.576,1.859-1.9,3.393-1.451a19.53,19.53,0,0,1,11.541,8.231c1.306,2.032,1.417,2.032,3.193.408a24,24,0,0,1,12.509-6.089,2.088,2.088,0,0,1,2.647,1.438c2.391,6.075,6.22,11.286,9.848,16.649.27.4.456.974,1.1.85s.525-.767.56-1.23c.173-2.129.325-4.257.47-6.386a2.149,2.149,0,0,0-.781-1.825,12.715,12.715,0,0,1-1.493-1.672c-.422-.553-.829-1.209-.3-1.88s1.161-.339,1.742-.117a8.59,8.59,0,0,0,6.607-.055c.581-.242,1.23-.408,1.693.263a1.3,1.3,0,0,1-.339,1.852c-3.884,3-1.852,6.911-1.589,10.491.062.878.733.629,1.154.048,3.856-5.335,8.19-10.367,10.767-16.517.753-1.8,1.721-2.142,3.455-1.825a24.825,24.825,0,0,1,13.76,7.6c1.707,1.79,1.742,1.776,3.055-.193a15.544,15.544,0,0,1,4.409-4.029c.539-.373,2.281-.643.456-1.783-.5-.311-.083-.739.221-1.085,4.147-4.665,4.665-10.367,4.485-16.206a31.92,31.92,0,0,1,2.426-13c1.32-3.29.94-4.23-2.032-6.033-1.52-.926-1.963-.691-2.2,1.14a30.988,30.988,0,0,0,.131,7.879,18.118,18.118,0,0,1,0,5.259c-.118.691-.2,1.6-1.05,1.52-.691-.062-.94-.9-.974-1.631a44.23,44.23,0,0,1,.518-10.512,2.419,2.419,0,0,0-.221-1.97c-.6-.905-.843-1.825.069-2.688.477-.449.145-.892-.131-1.14-1.341-1.223-.38-1.631.657-2.073,5.6-2.343,11.217-4.679,16.814-7.056a3.456,3.456,0,0,1,2.9,0q8.48,3.594,16.987,7.153c.484.2.933.38.961,1s-.415.836-.864,1.092c-1.907,1.092-3.787,2.225-5.7,3.3-1.313.733-1.852,1.645-.988,3.062,2.875,4.665,3.566,9.855,3.621,15.2a34.939,34.939,0,0,0,.809,9.164,15.445,15.445,0,0,0,3.22,6.31C325.182,131.321,325.1,131.867,323.5,132.281Zm-6.489-17.54c.069-2.619.069-2.619-2.626-2.764H314.2c-1.189,0-1.679-.463-1.03-1.617s.1-2.225-.18-3.283c-.18-.691-.767-1-1.431-.332-1.631,1.631-3.815,2.405-5.771,3.456a29.6,29.6,0,0,1-10.277,3.621c-2.73.339-3.075.746-2.675,3.456a16.151,16.151,0,0,0,5.646,9.986,8.882,8.882,0,0,0,10.5,1.341c5.467-3.027,7.346-8.127,8.024-13.891ZM296.1,132.592c-.511-.076-.981-.062-1.161.435s.373.691.691.933a5.045,5.045,0,0,0,1.8.968c2.709.47,3.953,2.447,5.273,4.554,2.495,4,2.073,3.1,4.064,0,1.258-1.963,2.37-3.836,4.8-4.388a5.639,5.639,0,0,0,3.352-2.253c.332-.449,3.172-.739,2.688-1.479-.394-.587-3.131-.477-3.746-.484s-1.327.85-1.735.256c-1.14-1.652-2.156-.387-3.138,0a6.986,6.986,0,0,1-1.914.622c-2.958.366-5.791.3-8.293-1.59-.636-.47-1.272-.173-1,.581.67,1.907.187,2.495-1.686,1.818Z" transform="translate(-48.486 -18.033)"/><path class="c" d="M323.5,132.281c4.444,2.073,6.911,5.861,9.143,9.675a10.594,10.594,0,0,1,1.382,5.28c-.055,2.177.152,4.534-1.23,6.365a8.839,8.839,0,0,1-5.335,3.193,23.021,23.021,0,0,1-4.838.415c-12.385,0-24.762.048-37.14,0-1.285,0-1.742.311-2.073,1.672a11.682,11.682,0,0,1-9.143,9.219c-4.554,1.126-9.212,1.037-13.857,1.113-11.749.187-23.5.5-35.246-.145q-3.455-.187-6.952-.518c-6.911-.691-10.595-3.9-12-10.678-.256-1.244-.608-1.417-1.742-1.417H168.841a18.848,18.848,0,0,1-5.377-.822,8.593,8.593,0,0,1-6.5-8.653,19.15,19.15,0,0,1,14.437-19.434c2.156-.594,2.916-.263,3.843,1.8a44.8,44.8,0,0,0,6.137,10.111,5.466,5.466,0,0,1,1.044,1.942c.836,0,.864-.65.947-1.168a9.461,9.461,0,0,0-1.223-6.911c-.29-.463-.781-.919-.332-1.514s.919-.214,1.382-.131a21.554,21.554,0,0,0,4.478.09c.539,0,1.126-.408,1.507.29s-.041,1.085-.387,1.527c-1.382,1.776-1.465,3.815-1.279,5.923.055.56.159,1.216.733,1.437.726.276.905-.491,1.209-.912,2.668-3.608,5.536-7.063,7.3-11.21.691-1.576,1.859-1.9,3.393-1.451a19.53,19.53,0,0,1,11.541,8.231c1.306,2.032,1.417,2.032,3.193.408a24,24,0,0,1,12.509-6.089,2.088,2.088,0,0,1,2.647,1.438c2.391,6.075,6.22,11.286,9.848,16.649.27.4.456.974,1.1.85s.525-.767.56-1.23c.173-2.129.325-4.257.47-6.386a2.149,2.149,0,0,0-.781-1.825,12.715,12.715,0,0,1-1.493-1.672c-.422-.553-.829-1.209-.3-1.88s1.161-.339,1.742-.117a8.59,8.59,0,0,0,6.607-.055c.581-.242,1.23-.408,1.693.263a1.3,1.3,0,0,1-.339,1.852c-3.884,3-1.852,6.911-1.589,10.491.062.878.733.629,1.154.048,3.856-5.335,8.19-10.367,10.767-16.517.753-1.8,1.721-2.142,3.455-1.825a24.825,24.825,0,0,1,13.76,7.6c1.707,1.79,1.742,1.776,3.055-.193a15.544,15.544,0,0,1,4.409-4.029c.539-.373,2.281-.643.456-1.783l9.835.05.781,1.733,9.375,9.4,10.625-10.506Zm-28.563.746c-.18.5.373.691.691.933a5.045,5.045,0,0,0,1.8.968c2.709.47,3.953,2.447,5.273,4.554,2.495,4,2.073,3.1,4.064,0,1.258-1.963,2.37-3.836,4.8-4.388a5.639,5.639,0,0,0,3.352-2.253c.179-.243-4.846,10.44-10.057,10.509C300.986,143.4,295.119,132.53,294.939,133.028Z" transform="translate(-48.486 -18.033)"/><path class="b" d="M249.545,102.5a5.84,5.84,0,0,1-1.928-4.672q.235-5.266.574-10.525c.111-1.866.594-3.746-.352-5.529a.871.871,0,0,1-.055-.691c.878-1.431,1.507-2.626-.816-3.456-.857-.311-.256-2.467.767-2.523,2.605-.138,4.755-1.507,7.056-2.419,5.66-2.225,11.258-4.589,16.87-6.911a3.953,3.953,0,0,1,3.262-.076q11.617,4.838,23.269,9.675c.691.283,1.555.428,1.548,1.382,0,.843-.809,1.037-1.382,1.382-2.391,1.382-4.789,2.764-7.174,4.147-2.806,1.638-3.269,2.91-1.9,5.9,1.175,2.578,2.488,5.086,2.709,7.961.74,9.6-1.417,18.425-7.768,25.785-6.455,7.492-16.351,7.388-23.09.152-4.312-4.623-6.358-10.228-7.471-16.345a50.34,50.34,0,0,1-.3-11.258,13.163,13.163,0,0,1,2.184-5.95c.463-.816.933-1.638,1.313-2.495a2.531,2.531,0,0,0-1.32-3.614,28.189,28.189,0,0,1-3.566-2.073c-.781-.539-1.064-.636-1.382.629-1.382,5.439.055,10.823.083,16.227A20.321,20.321,0,0,1,249.545,102.5Zm39.662-1.444c-1.99,1.057-1.956,1.05-2.364-1.168a22.116,22.116,0,0,0-2.764-6.752c-.532-.947-1.168-.691-1.894-.352-1.811.857-3.677,1.617-5.439,2.571a6.863,6.863,0,0,1-6.98-.062,70.777,70.777,0,0,0-7.934-3.455c-1.59-.622-2.288-.041-2.84,1.382-1.05,2.764-.8,5.529-.65,8.376.062,1.12.194,2.073-1.382,2.018-.809,0-.857.428-.781,1.113.733,6.123,3.013,11.548,7.547,15.805,5.391,5.052,12.854,4.838,18.093-.325,4.838-4.782,6.683-10.912,7.664-17.4A2.2,2.2,0,0,0,289.207,101.056Z" transform="translate(-76.161 -14.797)"/><path class="b" d="M171.767,106.265c-.629-3.8.885-7.6,0-11.417-.111-.484.242-.829.56-1.133.581-.567.435-.919-.276-1.209-.56-.235-.968-.65-.739-1.327a1.776,1.776,0,0,1,1.251-1.03c4.008-1.479,8-3.006,11.852-4.879,1.977-.968,4.057-1.652,6.1-2.433a1.8,1.8,0,0,1,1.444.069c5.867,2.488,11.687,5.114,17.671,7.333,1.479.553,1.113,1.382.187,2.011-1.479,1.03-3.027,1.956-4.6,2.834-2.986,1.666-3.386,2.661-1.831,5.736s1.645,6.324,1.438,9.675c-.339,5.529-1.956,10.56-5.736,14.638-4.969,5.349-11.569,6.13-16.821.463-5.9-6.365-8.293-16.351-5.411-23.5.3-.753.691-1.465,1.037-2.212,1.32-2.93.691-4.285-2.329-5.432-1.23-.47-1.59-.111-1.673,1.037a37.055,37.055,0,0,0,.048,8.438,13.882,13.882,0,0,1-.207,5.232c-.1.449.152,1.147-.56,1.209a1.182,1.182,0,0,1-1.258-1.161A19.543,19.543,0,0,1,171.767,106.265Zm20.664,20.546c1.617-.131,3.78-1.776,5.736-3.849,2.958-3.138,3.7-7.2,4.706-11.147.214-.843.587-2.025-1.182-1.6-.553.131-.691-.394-.691-.878.111-1.852-1.016-3.3-1.6-4.928-.249-.691-.892-1.6-1.672-1.009-1.382,1.064-3.186,1.154-4.6,2.073a3.656,3.656,0,0,1-3.386.428,28.336,28.336,0,0,1-3.988-1.652c-4.665-2.495-5.764-1.914-6.137,3.317-.117,1.631,1.12,3.587-1.126,4.748-.166.09-.069.691-.083,1.092-.09,2.654,1.382,4.8,2.529,6.973,2.053,3.995,5.218,6.6,11.458,6.427Z" transform="translate(-52.898 -19.199)"/></svg>