<svg xmlns="http://www.w3.org/2000/svg" xmlns:xlink="http://www.w3.org/1999/xlink" width="394.771" height="293.188" viewBox="0 0 394.771 293.188"><defs><style>.a{fill:#fff;}.b{fill:#7a7a7a;}.c{fill:#b8b8b8;}.d{filter:url(#g);}.e{filter:url(#e);}.f{filter:url(#c);}.g{filter:url(#a);}</style><filter id="a" x="151.737" y="92.11" width="68.818" height="54.65" filterUnits="userSpaceOnUse"><feOffset dy="1" input="SourceAlpha"/><feGaussianBlur stdDeviation="1" result="b"/><feFlood flood-color="#0052b8" flood-opacity="0.431"/><feComposite operator="in" in2="b"/><feComposite in="SourceGraphic"/></filter><filter id="c" x="198.899" y="73.133" width="52.125" height="54.397" filterUnits="userSpaceOnUse"><feOffset dy="1" input="SourceAlpha"/><feGaussianBlur stdDeviation="1" result="d"/><feFlood flood-color="#0052b8" flood-opacity="0.431"/><feComposite operator="in" in2="d"/><feComposite in="SourceGraphic"/></filter><filter id="e" x="164.742" y="53.909" width="43.051" height="43.114" filterUnits="userSpaceOnUse"><feOffset dy="1" input="SourceAlpha"/><feGaussianBlur stdDeviation="1" result="f"/><feFlood flood-color="#0052b8" flood-opacity="0.431"/><feComposite operator="in" in2="f"/><feComposite in="SourceGraphic"/></filter><filter id="g" x="195.32" y="34.898" width="42.901" height="43.067" filterUnits="userSpaceOnUse"><feOffset dy="1" input="SourceAlpha"/><feGaussianBlur stdDeviation="1" result="h"/><feFlood flood-color="#0052b8" flood-opacity="0.431"/><feComposite operator="in" in2="h"/><feComposite in="SourceGraphic"/></filter></defs><rect class="a" width="394.771" height="293.188"/><g class="g" transform="matrix(1, 0, 0, 1, 0, 0)"><path class="b" d="M223.546,167.093c.249-3.794-.478-8.377.575-12.9a23.642,23.642,0,0,1,22.97-18.256h15.86a23.176,23.176,0,0,1,23.026,20.388c.692,6.3.145,12.648.242,18.969.048,3.5,0,3.524-3.261,4.846a62.2,62.2,0,0,1-17.432,4.036,103.7,103.7,0,0,1-40.665-4.6c-1.031-.318-1.385-.741-1.343-1.8C223.588,174.459,223.546,171.15,223.546,167.093Z" transform="translate(-68.78 -41.83)"/></g><g class="f" transform="matrix(1, 0, 0, 1, 0, 0)"><path class="b" d="M291.64,124.355a23.129,23.129,0,0,0,6.48-11.727,9.689,9.689,0,0,0,.409-2.589c-.09-1.3.422-1.523,1.6-1.509,5.116.062,10.239,0,15.362,0,10.094.042,19.938,8.619,21.862,18.976a33.125,33.125,0,0,1,.339,6.078c0,5.178-.076,10.384.049,15.535a2.769,2.769,0,0,1-2.015,3.046,65.546,65.546,0,0,1-15.092,4q-3.829.554-7.7.755c-1.094.055-1.385-.312-1.385-1.385.055-4.341.208-8.674-1.239-12.89a27.817,27.817,0,0,0-16.892-17.6Z" transform="translate(-89.74 -33.4)"/></g><g class="e" transform="matrix(1, 0, 0, 1, 0, 0)"><path class="c" d="M260.846,117.873c-10-.152-18.553-7.781-18.546-18.595a18.526,18.526,0,1,1,18.546,18.595Z" transform="translate(-74.56 -24.85)"/></g><g class="d" transform="matrix(1, 0, 0, 1, 0, 0)"><path class="c" d="M304.954,90.365a18.214,18.214,0,0,1-6.757-1.274,1.641,1.641,0,0,1-1.281-1.447A22.305,22.305,0,0,0,287.225,72.2c-1.052-.692-.734-1.689-.616-2.506a18.118,18.118,0,0,1,11.174-14.836c12-5.275,24.528,3.586,25.525,15.341C324.221,81.212,315.29,90.475,304.954,90.365Z" transform="translate(-88.15 -16.4)"/></g></svg>