<svg xmlns="http://www.w3.org/2000/svg" xmlns:xlink="http://www.w3.org/1999/xlink" width="395.183" height="296.553" viewBox="0 0 395.183 296.553"><defs><style>.a,.b{fill:none;}.a,.e,.f{stroke:#b8b8b8;}.c{fill:#fff;}.d{clip-path:url(#a);}.e{fill:#017efc;}.f{fill:#88c2fc;}.g{clip-path:url(#d);}.h{clip-path:url(#e);}.i{clip-path:url(#f);}.j{clip-path:url(#g);}.k{clip-path:url(#h);}.l{clip-path:url(#i);}.m{clip-path:url(#j);}.n{clip-path:url(#k);}.o{clip-path:url(#l);}.p{clip-path:url(#m);}.q{clip-path:url(#n);}.r{clip-path:url(#o);}.s{clip-path:url(#p);}.t{clip-path:url(#q);}.u{clip-path:url(#r);}.v{clip-path:url(#s);}.w{clip-path:url(#t);}.x{clip-path:url(#u);}.y{clip-path:url(#v);}.z{clip-path:url(#w);}.aa{clip-path:url(#x);}.ab{clip-path:url(#y);}.ac{clip-path:url(#z);}.ad{clip-path:url(#aa);}.ae{clip-path:url(#ab);}.af{clip-path:url(#ac);}.ag{clip-path:url(#ad);}.ah{clip-path:url(#ae);}.ai{clip-path:url(#af);}.aj{clip-path:url(#ag);}.ak{clip-path:url(#ah);}.al,.am,.an{fill:#7a7a7a;}.am{font-size:58px;font-family:StarellaScriptPERSONALUSE, Starella Script PERSONAL USE;}.an{font-size:8px;font-family:SitkaBanner-Italic, Sitka Banner;font-style:italic;}.ao{letter-spacing:-0.049em;}.ap{letter-spacing:-0.01em;}.aq{filter:url(#ai);}.ar{filter:url(#b);}</style><clipPath id="a"><path class="a" d="M119.8,185.923l.187-102.2,86.6-12.17-.194,102.2Z" transform="translate(-119.8 -71.55)"/></clipPath><filter id="b" x="73.573" y="43.078" width="105.787" height="130.168" filterUnits="userSpaceOnUse"><feOffset dy="3" input="SourceAlpha"/><feGaussianBlur stdDeviation="3" result="c"/><feFlood flood-opacity="0.161"/><feComposite operator="in" in2="c"/><feComposite in="SourceGraphic"/></filter><clipPath id="d"><path class="a" d="M120.05,185.673l.194-102.2L206.835,71.3l-.194,102.2Z" transform="translate(-120.05 -71.3)"/></clipPath><clipPath id="e"><path class="a" d="M120.3,185.423l.194-102.2,86.591-12.17-.194,102.2Z" transform="translate(-120.3 -71.05)"/></clipPath><clipPath id="f"><path class="a" d="M120.55,185.166l.194-102.2L207.335,70.8,207.148,173Z" transform="translate(-120.55 -70.8)"/></clipPath><clipPath id="g"><path class="a" d="M120.81,184.916,121,82.72l86.591-12.17-.187,102.2Z" transform="translate(-120.81 -70.55)"/></clipPath><clipPath id="h"><path class="a" d="M121.06,184.666l.187-102.2L207.838,70.3l-.187,102.2Z" transform="translate(-121.06 -70.3)"/></clipPath><clipPath id="i"><path class="a" d="M121.31,184.413l.187-102.2,86.592-12.17-.187,102.2Z" transform="translate(-121.31 -70.04)"/></clipPath><clipPath id="j"><path class="a" d="M121.56,184.163l.187-102.2,86.6-12.17-.194,102.2Z" transform="translate(-121.56 -69.79)"/></clipPath><clipPath id="k"><path class="a" d="M121.81,183.913,122,81.71,208.6,69.54l-.194,102.2Z" transform="translate(-121.81 -69.54)"/></clipPath><clipPath id="l"><path class="a" d="M122.06,183.663l.194-102.2,86.591-12.17-.187,102.2Z" transform="translate(-122.06 -69.29)"/></clipPath><clipPath id="m"><path class="a" d="M122.31,183.413l.194-102.2L209.1,69.04l-.187,102.2Z" transform="translate(-122.31 -69.04)"/></clipPath><clipPath id="n"><path class="a" d="M122.57,183.156l.187-102.2L209.348,68.79l-.187,102.2Z" transform="translate(-122.57 -68.79)"/></clipPath><clipPath id="o"><path class="a" d="M122.82,182.9l.187-102.2L209.6,68.53l-.187,102.2Z" transform="translate(-122.82 -68.53)"/></clipPath><clipPath id="p"><path class="a" d="M123.07,182.653l.187-102.2,86.6-12.17-.194,102.2Z" transform="translate(-123.07 -68.28)"/></clipPath><clipPath id="q"><path class="a" d="M123.32,182.4l.187-102.2,86.6-12.17-.194,102.2Z" transform="translate(-123.32 -68.03)"/></clipPath><clipPath id="r"><path class="a" d="M123.57,182.153l.194-102.2,86.591-12.17-.187,102.2Z" transform="translate(-123.57 -67.78)"/></clipPath><clipPath id="s"><path class="a" d="M123.82,181.9l.194-102.2,86.591-12.17-.187,102.2Z" transform="translate(-123.82 -67.53)"/></clipPath><clipPath id="t"><path class="a" d="M124.08,181.653l.187-102.2,86.591-12.17-.187,102.2Z" transform="translate(-124.08 -67.28)"/></clipPath><clipPath id="u"><path class="a" d="M124.33,181.4l.187-102.2,86.591-12.17-.187,102.2Z" transform="translate(-124.33 -67.03)"/></clipPath><clipPath id="v"><path class="a" d="M124.58,181.143l.187-102.2,86.6-12.17-.194,102.2Z" transform="translate(-124.58 -66.77)"/></clipPath><clipPath id="w"><path class="a" d="M124.83,180.893l.187-102.2,86.6-12.17-.194,102.2Z" transform="translate(-124.83 -66.52)"/></clipPath><clipPath id="x"><path class="a" d="M125.08,180.643l.194-102.2,86.591-12.17-.194,102.2Z" transform="translate(-125.08 -66.27)"/></clipPath><clipPath id="y"><path class="a" d="M125.33,180.393l.194-102.2,86.591-12.17-.194,102.2Z" transform="translate(-125.33 -66.02)"/></clipPath><clipPath id="z"><path class="a" d="M125.58,180.143l.194-102.2,86.591-12.17-.187,102.2Z" transform="translate(-125.58 -65.77)"/></clipPath><clipPath id="aa"><path class="a" d="M125.83,179.886l.194-102.2,86.591-12.17-.187,102.2Z" transform="translate(-125.83 -65.52)"/></clipPath><clipPath id="ab"><path class="a" d="M126.09,179.636l.187-102.2L212.868,65.27l-.187,102.2Z" transform="translate(-126.09 -65.27)"/></clipPath><clipPath id="ac"><path class="a" d="M126.34,179.383l.187-102.2,86.591-12.17-.187,102.2Z" transform="translate(-126.34 -65.01)"/></clipPath><clipPath id="ad"><path class="a" d="M126.59,179.133l.187-102.2,86.6-12.17-.194,102.2Z" transform="translate(-126.59 -64.76)"/></clipPath><clipPath id="ae"><path class="a" d="M126.84,178.883l.187-102.2,86.6-12.17-.194,102.2Z" transform="translate(-126.84 -64.51)"/></clipPath><clipPath id="af"><path class="a" d="M127.09,178.633l.194-102.2,86.591-12.17-.187,102.2Z" transform="translate(-127.09 -64.26)"/></clipPath><clipPath id="ag"><path class="a" d="M127.34,178.383l.194-102.2,86.591-12.17-.187,102.2Z" transform="translate(-127.34 -64.01)"/></clipPath><clipPath id="ah"><path class="b" d="M127.6,178.126l.187-102.2L214.378,63.76l-.187,102.2Z" transform="translate(-127.6 -63.76)"/></clipPath><filter id="ai" x="167.905" y="82.965" width="115" height="82" filterUnits="userSpaceOnUse"><feOffset dy="1" input="SourceAlpha"/><feGaussianBlur stdDeviation="1" result="aj"/><feFlood flood-opacity="0.161"/><feComposite operator="in" in2="aj"/><feComposite in="SourceGraphic"/></filter></defs><rect class="c" width="395.183" height="296.553"/><g transform="translate(83.047 49.573)"><g class="d"><path class="e" d="M206.424,71.822l-58.8,8.266-16.179,51.659,17.342-2.437c7.857-1.108,13.936-.166,18.083,2.769,3.662,2.555,5.538,6.341,5.538,11.257a27.389,27.389,0,0,1-5.3,15.666c-3.683,5.275-8.183,8.681-13.389,10.121l-.125.035.048-.138a19.052,19.052,0,0,0,1.121-6.231,13.943,13.943,0,0,0-5.068-11.222,15.313,15.313,0,0,0-12.378-3.205,19.7,19.7,0,0,0-12.191,6.681,18.692,18.692,0,0,0-5.081,12.648,13.936,13.936,0,0,0,4.486,10.7,16.144,16.144,0,0,0,11.291,4.2,73.065,73.065,0,0,0,11.866-.692c18.256-2.568,32.69-10.329,42.88-23.067,6.231-7.712,9.36-15.583,9.332-23.406a20.981,20.981,0,0,0-8.529-17.307c-5.2-3.9-12.973-5.164-23.095-3.745l-9.367,1.315.042-.118,5.822-17.93L198.5,92.9,206.41,71.78" transform="translate(-119.874 -71.621)"/><g class="ar" transform="matrix(1, 0, 0, 1, -83.05, -49.57)"><path class="f" d="M131.38,131.675l16.179-51.659,58.8-8.266-7.913,21.122-33.721,4.742-5.822,17.93-.042.118,9.367-1.315c10.121-1.419,17.9-.159,23.095,3.745a20.908,20.908,0,0,1,8.529,17.307c0,7.823-3.108,15.694-9.332,23.406-10.19,12.745-24.625,20.471-42.88,23.039a73.063,73.063,0,0,1-11.866.692,16.144,16.144,0,0,1-11.291-4.2,13.936,13.936,0,0,1-4.486-10.7,18.692,18.692,0,0,1,5.081-12.648,19.7,19.7,0,0,1,12.177-6.694,15.076,15.076,0,0,1,12.344,3.233,13.943,13.943,0,0,1,5.068,11.222,19.053,19.053,0,0,1-1.122,6.231l-.048.138.125-.035c5.206-1.44,9.692-4.846,13.389-10.121a27.49,27.49,0,0,0,5.3-15.667c0-4.915-1.855-8.7-5.538-11.257-4.154-2.949-10.225-3.891-18.083-2.769L131.346,131.7M206.6,71.55l-59.149,8.307L131.2,131.779l-.042.118,17.563-2.471c7.816-1.1,13.846-.166,18,2.769,3.634,2.527,5.476,6.272,5.462,11.132a27.182,27.182,0,0,1-5.261,15.556c-3.614,5.192-8.044,8.557-13.153,10.011a18.88,18.88,0,0,0,1.087-6.141,14.04,14.04,0,0,0-5.123-11.34,15.3,15.3,0,0,0-12.461-3.261,19.786,19.786,0,0,0-12.288,6.736,18.837,18.837,0,0,0-5.137,12.787,14.088,14.088,0,0,0,4.528,10.8,16.311,16.311,0,0,0,11.381,4.23,76.193,76.193,0,0,0,36.421-8.384,59.862,59.862,0,0,0,18.456-15.4c6.231-7.761,9.4-15.673,9.381-23.538a21.032,21.032,0,0,0-8.591-17.4c-5.234-3.925-13.029-5.192-23.192-3.766l-9.138,1.267,5.746-17.7,33.714-4.742,8-21.35.048-.125" transform="translate(-36.76 -21.98)"/></g></g></g><g transform="translate(83.221 49.4)"><g class="g"><path class="e" d="M206.677,71.584l-58.8,8.266L131.7,131.508l17.307-2.437c7.857-1.108,13.936-.166,18.083,2.769,3.662,2.555,5.538,6.341,5.538,11.257a27.389,27.389,0,0,1-5.3,15.667c-3.683,5.268-8.183,8.681-13.382,10.114l-.132.042.048-.138a18.871,18.871,0,0,0,1.122-6.231,13.936,13.936,0,0,0-5.068-11.222,15.151,15.151,0,0,0-12.344-3.233,19.716,19.716,0,0,0-12.191,6.681,18.692,18.692,0,0,0-5.081,12.648,13.936,13.936,0,0,0,4.486,10.7,16.273,16.273,0,0,0,11.3,4.2,73.02,73.02,0,0,0,11.859-.692c18.263-2.568,32.69-10.329,42.88-23.067,6.231-7.712,9.36-15.583,9.332-23.406a20.962,20.962,0,0,0-8.529-17.307c-5.2-3.911-12.974-5.164-23.095-3.745l-9.353,1.371.035-.118,5.822-17.93,33.721-4.742,7.913-21.122" transform="translate(-120.127 -71.383)"/><path class="f" d="M131.64,131.425l16.172-51.659,58.8-8.266L198.7,92.622,164.981,97.4l-5.822,17.93-.035.118,9.36-1.315c10.121-1.419,17.9-.166,23.095,3.745a20.889,20.889,0,0,1,8.529,17.307c0,7.823-3.108,15.694-9.332,23.406-10.19,12.738-24.618,20.5-42.88,23.067a73.025,73.025,0,0,1-11.859.692,16.067,16.067,0,0,1-11.3-4.2,13.936,13.936,0,0,1-4.486-10.7,18.692,18.692,0,0,1,5.081-12.648,19.716,19.716,0,0,1,12.191-6.681,15.076,15.076,0,0,1,12.344,3.233,13.936,13.936,0,0,1,5.068,11.125,18.871,18.871,0,0,1-1.122,6.231l-.048.138.132-.042c5.2-1.433,9.692-4.846,13.382-10.114a27.439,27.439,0,0,0,5.3-15.666c0-4.915-1.855-8.7-5.538-11.257-4.154-2.949-10.225-3.891-18.083-2.769l-17.307,2.437M206.85,71.3l-59.128,8.314-16.248,51.922-.042.111L149,129.182c7.816-1.1,13.846-.166,18,2.769,3.628,2.527,5.469,6.272,5.462,11.132a27.155,27.155,0,0,1-5.268,15.549c-3.614,5.2-8.037,8.564-13.153,10.011a19.184,19.184,0,0,0,1.087-6.134,14.088,14.088,0,0,0-5.13-11.347,15.311,15.311,0,0,0-12.461-3.254,19.786,19.786,0,0,0-12.288,6.736,18.837,18.837,0,0,0-5.137,12.78,14.074,14.074,0,0,0,4.534,10.82,16.283,16.283,0,0,0,11.374,4.23,76.193,76.193,0,0,0,36.421-8.4,59.7,59.7,0,0,0,18.456-15.41c6.231-7.754,9.4-15.666,9.381-23.538a21.032,21.032,0,0,0-8.591-17.4c-5.227-3.925-13.029-5.192-23.192-3.766l-9.138,1.281L165.1,97.545,198.813,92.8l8-21.35.048-.125" transform="translate(-120.065 -71.3)"/></g></g><g transform="translate(83.394 49.227)"><g class="h"><path class="e" d="M206.939,71.325l-58.8,8.266L131.95,131.249l17.307-2.437c7.851-1.108,13.929-.166,18.076,2.769,3.669,2.555,5.538,6.341,5.538,11.257a27.368,27.368,0,0,1-5.3,15.66c-3.676,5.275-8.183,8.688-13.382,10.121l-.09.083.048-.145a18.623,18.623,0,0,0,1.122-6.231,13.915,13.915,0,0,0-5.068-11.222,15.143,15.143,0,0,0-12.337-3.233,19.716,19.716,0,0,0-12.2,6.681A18.692,18.692,0,0,0,120.6,167.2a13.9,13.9,0,0,0,4.479,10.7,16.274,16.274,0,0,0,11.3,4.2,72.976,72.976,0,0,0,11.859-.692c18.263-2.568,32.69-10.329,42.88-23.067,6.231-7.712,9.36-15.583,9.339-23.406a20.978,20.978,0,0,0-8.536-17.307c-5.2-3.911-12.967-5.171-23.095-3.745l-9.36,1.315.035-.118,5.822-17.937,33.721-4.735,7.913-21.122" transform="translate(-120.389 -71.124)"/><path class="f" d="M131.873,131.175l16.172-51.659,58.8-8.266-7.913,21.122-33.721,4.735-5.822,17.937-.035.118,9.36-1.315c10.128-1.426,17.9-.166,23.095,3.745a20.9,20.9,0,0,1,8.536,17.307c0,7.823-3.115,15.694-9.339,23.406-10.19,12.738-24.618,20.5-42.88,23.067a72.976,72.976,0,0,1-11.859.692,16.1,16.1,0,0,1-11.3-4.2,13.9,13.9,0,0,1-4.479-10.7,18.692,18.692,0,0,1,5.074-12.648,19.717,19.717,0,0,1,12.2-6.681,15.094,15.094,0,0,1,12.337,3.233,13.915,13.915,0,0,1,5.068,11.222,18.623,18.623,0,0,1-1.122,6.231l-.021.111.132-.042c5.2-1.433,9.692-4.846,13.382-10.121a27.419,27.419,0,0,0,5.3-15.66c0-4.915-1.848-8.7-5.538-11.257-4.154-2.949-10.225-3.891-18.076-2.769l-17.307,2.437M207.1,71.05l-59.149,8.307L131.7,131.279l-.035.111,17.563-2.465c7.809-1.1,13.846-.166,18,2.769,3.628,2.527,5.469,6.272,5.462,11.132a27.2,27.2,0,0,1-5.261,15.549c-3.621,5.2-8.044,8.564-13.153,10.01a18.99,18.99,0,0,0,1.087-6.134,14.109,14.109,0,0,0-5.123-11.347,15.346,15.346,0,0,0-12.461-3.261,19.869,19.869,0,0,0-12.3,6.736,18.865,18.865,0,0,0-5.137,12.787,14.074,14.074,0,0,0,4.535,10.82,16.255,16.255,0,0,0,11.381,4.223,76.013,76.013,0,0,0,36.414-8.391,59.7,59.7,0,0,0,18.456-15.438c6.231-7.754,9.408-15.667,9.38-23.538a21.019,21.019,0,0,0-8.591-17.4c-5.227-3.932-13.029-5.2-23.192-3.766l-9.166,1.281,5.746-17.7,33.721-4.735,8.024-21.35.042-.125" transform="translate(-120.312 -71.05)"/></g></g><g transform="translate(83.567 49.054)"><g class="i"><path class="e" d="M207.176,71.09l-58.8,8.245L132.2,130.994l17.307-2.437c7.851-1.1,13.929-.159,18.076,2.769,3.669,2.555,5.538,6.341,5.538,11.257a27.369,27.369,0,0,1-5.3,15.66c-3.676,5.275-8.183,8.688-13.382,10.121h-.132l.055-.138a18.816,18.816,0,0,0,1.115-6.231,13.936,13.936,0,0,0-5.068-11.229,15.184,15.184,0,0,0-12.337-3.233,19.751,19.751,0,0,0-12.2,6.681,18.692,18.692,0,0,0-5.074,12.655A13.929,13.929,0,0,0,125.3,177.64a16.274,16.274,0,0,0,11.3,4.2,72.985,72.985,0,0,0,11.859-.692c18.263-2.561,32.69-10.322,42.88-23.06,6.231-7.712,9.36-15.583,9.339-23.413a20.886,20.886,0,0,0-8.536-17.273c-5.2-3.911-12.967-5.171-23.095-3.745L159.705,115l.042-.118,5.815-17.937,33.728-4.735L207.2,71.09" transform="translate(-120.626 -70.889)"/><path class="f" d="M132.131,130.918,148.3,79.246l58.8-8.259L199.2,92.122l-33.728,4.735-5.836,17.937-.042.118,9.36-1.315c10.128-1.426,17.9-.166,23.095,3.745a20.886,20.886,0,0,1,8.536,17.273c0,7.83-3.115,15.7-9.339,23.413-10.19,12.738-24.618,20.5-42.88,23.06a72.98,72.98,0,0,1-11.859.692,16.1,16.1,0,0,1-11.3-4.2,13.929,13.929,0,0,1-4.479-10.7,18.692,18.692,0,0,1,5.074-12.655A19.751,19.751,0,0,1,138,147.54a15.111,15.111,0,0,1,12.337,3.233A13.936,13.936,0,0,1,155.406,162a18.816,18.816,0,0,1-1.115,6.231l-.055.138h.132c5.2-1.433,9.692-4.846,13.382-10.121a27.419,27.419,0,0,0,5.3-15.66c0-4.915-1.848-8.7-5.538-11.257-4.154-2.949-10.225-3.891-18.076-2.769L132.124,131m75.217-60.2-59.149,8.307-16.248,51.922-.035.111,17.563-2.465c7.809-1.1,13.846-.166,18,2.769,3.635,2.527,5.469,6.272,5.462,11.132a27.228,27.228,0,0,1-5.261,15.549c-3.621,5.192-8.044,8.564-13.153,10.01A18.988,18.988,0,0,0,155.606,162a14.1,14.1,0,0,0-5.123-11.347,15.346,15.346,0,0,0-12.461-3.261,19.883,19.883,0,0,0-12.309,6.708,18.9,18.9,0,0,0-5.137,12.787,14.061,14.061,0,0,0,4.535,10.814,16.227,16.227,0,0,0,11.381,4.23,75.937,75.937,0,0,0,36.414-8.4,59.682,59.682,0,0,0,18.47-15.369c6.231-7.754,9.408-15.673,9.38-23.538a21.044,21.044,0,0,0-8.584-17.4c-5.234-3.925-13.036-5.192-23.2-3.759l-9.138,1.281,5.746-17.7L199.3,92.309l8-21.371.042-.125" transform="translate(-120.556 -70.8)"/></g></g><g transform="translate(83.747 48.881)"><g class="j"><path class="e" d="M207.44,70.809,148.6,79.068l-16.172,51.659,17.307-2.437c7.851-1.1,13.929-.159,18.076,2.769,3.669,2.555,5.538,6.348,5.538,11.264a27.368,27.368,0,0,1-5.3,15.66c-3.676,5.275-8.176,8.681-13.382,10.121h-.125l.048-.138a19.01,19.01,0,0,0,1.122-6.231,13.957,13.957,0,0,0-5.074-11.229,15.271,15.271,0,0,0-12.309-3.164,19.716,19.716,0,0,0-12.17,6.653,18.692,18.692,0,0,0-5.081,12.655,13.949,13.949,0,0,0,4.479,10.7,16.172,16.172,0,0,0,11.3,4.2,72.2,72.2,0,0,0,11.859-.692c18.263-2.561,32.69-10.322,42.88-23.06,6.231-7.712,9.36-15.59,9.339-23.413a20.987,20.987,0,0,0-8.536-17.307c-5.2-3.9-12.967-5.164-23.095-3.738l-9.36,1.315.042-.125,5.822-17.93,33.721-4.735L207.44,70.74" transform="translate(-120.89 -70.608)"/><path class="f" d="M132.387,130.668,148.559,79.01,207.4,70.751l-7.947,21.122-33.721,4.735-5.822,17.93-.042.125,9.36-1.315c10.128-1.426,17.9-.166,23.095,3.738a20.913,20.913,0,0,1,8.536,17.307c0,7.823-3.115,15.7-9.339,23.413-10.19,12.745-24.618,20.471-42.88,23.032a72.2,72.2,0,0,1-11.859.692,16.172,16.172,0,0,1-11.3-4.2,13.95,13.95,0,0,1-4.479-10.7,18.692,18.692,0,0,1,5.081-12.7,19.716,19.716,0,0,1,12.17-6.653,15.087,15.087,0,0,1,12.337,3.233,13.957,13.957,0,0,1,5.074,11.229,19.01,19.01,0,0,1-1.122,6.231l-.048.138h.125c5.206-1.44,9.692-4.846,13.382-10.121a27.419,27.419,0,0,0,5.3-15.66c0-4.915-1.848-8.709-5.538-11.264-4.154-2.942-10.225-3.884-18.076-2.769l-17.307,2.437M207.6,70.55l-59.149,8.307-16.241,51.922-.042.111,17.563-2.471c7.816-1.094,13.846-.159,18,2.769,3.634,2.527,5.469,6.272,5.462,11.132a27.178,27.178,0,0,1-5.261,15.549c-3.621,5.192-8.044,8.564-13.153,10.01a19.025,19.025,0,0,0,1.087-6.134A14.088,14.088,0,0,0,150.74,150.4a15.321,15.321,0,0,0-12.461-3.261,19.883,19.883,0,0,0-12.3,6.736,18.9,18.9,0,0,0-5.137,12.787,14.06,14.06,0,0,0,4.535,10.814,16.351,16.351,0,0,0,11.381,4.23,71.739,71.739,0,0,0,11.88-.692,72.739,72.739,0,0,0,24.535-7.691,59.779,59.779,0,0,0,18.456-15.438c6.231-7.754,9.408-15.673,9.38-23.538a21.025,21.025,0,0,0-8.584-17.4c-5.234-3.925-13.029-5.192-23.2-3.766l-9.138,1.3,5.753-17.7,33.714-4.735,8-21.364.041-.125" transform="translate(-120.819 -70.55)"/></g></g><g transform="translate(83.921 48.707)"><g class="k"><path class="e" d="M207.668,70.574,148.824,78.84,132.652,130.5l17.307-2.437c7.851-1.1,13.936-.159,18.083,2.769,3.662,2.555,5.538,6.348,5.538,11.264a27.385,27.385,0,0,1-5.3,15.66c-3.683,5.275-8.183,8.681-13.389,10.121h-.125l.048-.138a19.01,19.01,0,0,0,1.121-6.231,13.95,13.95,0,0,0-5.068-11.229,15.158,15.158,0,0,0-12.344-3.233,19.7,19.7,0,0,0-12.191,6.681,18.692,18.692,0,0,0-5.081,12.655,13.97,13.97,0,0,0,4.479,10.7,16.172,16.172,0,0,0,11.3,4.2,72.932,72.932,0,0,0,11.859-.692c18.263-2.568,32.69-10.329,42.887-23.06,6.231-7.719,9.36-15.59,9.332-23.413a20.987,20.987,0,0,0-8.536-17.307c-5.2-3.9-12.967-5.164-23.095-3.745l-9.311,1.419.042-.125,5.822-17.93,33.721-4.742,7.913-21.122" transform="translate(-121.118 -70.38)"/><path class="f" d="M132.649,130.415l16.172-51.659,58.845-8.266-7.913,21.122-33.721,4.742-5.822,17.93-.042.125,9.332-1.322c10.128-1.419,17.9-.159,23.095,3.745a20.914,20.914,0,0,1,8.536,17.307c0,7.823-3.108,15.694-9.332,23.413-10.2,12.731-24.625,20.492-42.887,23.06a72.928,72.928,0,0,1-11.859.692,16.172,16.172,0,0,1-11.3-4.2,13.97,13.97,0,0,1-4.479-10.7,18.692,18.692,0,0,1,5.081-12.655,19.7,19.7,0,0,1,12.191-6.681,15.109,15.109,0,0,1,12.343,3.233,13.95,13.95,0,0,1,5.061,11.167,19.011,19.011,0,0,1-1.122,6.231l-.049.138h.125c5.206-1.44,9.692-4.846,13.389-10.121a27.486,27.486,0,0,0,5.3-15.66c0-4.915-1.855-8.709-5.538-11.264-4.154-2.942-10.232-3.884-18.083-2.769l-17.307,2.437m75.2-60.174L148.731,78.6,132.49,130.526l-.042.118,17.563-2.471c7.816-1.094,13.846-.166,18,2.769,3.635,2.534,5.469,6.279,5.462,11.139a27.178,27.178,0,0,1-5.261,15.549c-3.621,5.192-8.044,8.564-13.153,10.01a18.879,18.879,0,0,0,1.087-6.141,14.06,14.06,0,0,0-5.123-11.34,15.3,15.3,0,0,0-12.461-3.261,19.883,19.883,0,0,0-12.3,6.736,18.858,18.858,0,0,0-5.13,12.787,14.04,14.04,0,0,0,4.528,10.814,16.29,16.29,0,0,0,11.381,4.23,71.7,71.7,0,0,0,11.88-.692,72.891,72.891,0,0,0,24.535-7.719,59.884,59.884,0,0,0,18.463-15.4c6.231-7.754,9.4-15.673,9.38-23.538a21.05,21.05,0,0,0-8.591-17.4c-5.234-3.925-13.029-5.192-23.2-3.766l-9.138,1.288,5.753-17.7,33.714-4.735,8-21.35.042-.132" transform="translate(-121.081 -70.297)"/></g></g><g transform="translate(84.094 48.527)"><g class="l"><path class="e" d="M207.927,70.284l-58.8,8.266-16.193,51.659,17.307-2.437c7.851-1.1,13.936-.166,18.083,2.769,3.662,2.555,5.538,6.348,5.538,11.257a27.389,27.389,0,0,1-5.3,15.667c-3.683,5.275-8.183,8.681-13.389,10.121h-.125l.048-.138a19.052,19.052,0,0,0,1.122-6.231,13.943,13.943,0,0,0-5.068-11.222,15.158,15.158,0,0,0-12.344-3.233,19.7,19.7,0,0,0-12.191,6.681,18.692,18.692,0,0,0-5.081,12.648,13.957,13.957,0,0,0,4.486,10.71,16.207,16.207,0,0,0,11.291,4.2,73.06,73.06,0,0,0,11.866-.692c18.256-2.568,32.69-10.329,42.88-23.06,6.231-7.719,9.36-15.59,9.332-23.413a21,21,0,0,0-8.529-17.307c-5.2-3.9-12.974-5.164-23.095-3.745l-9.367,1.315.042-.118,5.822-17.93L199.987,91.3,207.9,70.18" transform="translate(-121.378 -70.083)"/><path class="f" d="M132.876,130.153l16.179-51.659,58.8-8.266-7.9,21.122-33.721,4.742-5.822,17.93-.042.118,9.367-1.315c10.121-1.419,17.9-.159,23.095,3.745a20.926,20.926,0,0,1,8.529,17.307c0,7.823-3.108,15.694-9.332,23.413-10.191,12.731-24.625,20.492-42.88,23.06a73.068,73.068,0,0,1-11.866.692,16.063,16.063,0,0,1-11.291-4.2,13.956,13.956,0,0,1-4.486-10.71,18.692,18.692,0,0,1,5.081-12.648,19.7,19.7,0,0,1,12.191-6.681,15.109,15.109,0,0,1,12.343,3.233,13.943,13.943,0,0,1,5.068,11.222,19.052,19.052,0,0,1-1.122,6.231l-.048.138h.125c5.206-1.44,9.692-4.846,13.389-10.121a27.49,27.49,0,0,0,5.3-15.667c0-4.908-1.855-8.7-5.538-11.257-4.154-2.949-10.232-3.884-18.083-2.769L132.9,130.257M208.107,70l-59.149,8.307L132.71,130.229l-.042.118,17.563-2.471c7.816-1.094,13.846-.166,18,2.769,3.634,2.534,5.476,6.279,5.462,11.139a27.178,27.178,0,0,1-5.261,15.549c-3.621,5.192-8.044,8.564-13.153,10.01a18.88,18.88,0,0,0,1.087-6.141,14.04,14.04,0,0,0-5.123-11.34,15.3,15.3,0,0,0-12.461-3.261,19.82,19.82,0,0,0-12.288,6.736,18.823,18.823,0,0,0-5.137,12.787,14.088,14.088,0,0,0,4.528,10.814,16.29,16.29,0,0,0,11.381,4.23,71.707,71.707,0,0,0,11.88-.692,73.142,73.142,0,0,0,24.576-7.705,59.862,59.862,0,0,0,18.456-15.4c6.231-7.754,9.4-15.673,9.381-23.538a21.031,21.031,0,0,0-8.591-17.4c-5.234-3.925-13.029-5.192-23.192-3.766l-9.207,1.288,5.753-17.7L200.035,91.5l8.024-21.343.048-.132" transform="translate(-121.322 -70.028)"/></g></g><g transform="translate(84.267 48.354)"><g class="m"><path class="e" d="M208.183,70.08l-58.8,8.252L133.2,129.991l17.307-2.437c7.857-1.108,13.936-.166,18.083,2.769,3.662,2.555,5.538,6.341,5.538,11.257a27.389,27.389,0,0,1-5.3,15.667c-3.683,5.275-8.183,8.681-13.389,10.121h-.125l.048-.138A18.872,18.872,0,0,0,156.49,161a13.943,13.943,0,0,0-5.068-11.222,15.151,15.151,0,0,0-12.343-3.233,19.7,19.7,0,0,0-12.191,6.681,18.692,18.692,0,0,0-5.081,12.648,13.936,13.936,0,0,0,4.5,10.765,16.273,16.273,0,0,0,11.3,4.2,73.028,73.028,0,0,0,11.859-.692c18.263-2.568,32.69-10.329,42.88-23.067,6.231-7.712,9.36-15.583,9.332-23.406a20.962,20.962,0,0,0-8.529-17.307c-5.2-3.9-12.973-5.164-23.095-3.745l-9.346,1.371.042-.118,5.822-17.93L200.291,91.2,208.2,70.08" transform="translate(-121.633 -69.879)"/><path class="f" d="M133.131,129.915,149.31,78.243l58.8-8.266L200.2,91.1l-33.721,4.742-5.843,17.944-.042.118,9.367-1.315c10.121-1.419,17.9-.159,23.095,3.745a20.889,20.889,0,0,1,8.529,17.307c0,7.823-3.108,15.694-9.332,23.406-10.19,12.738-24.618,20.5-42.88,23.067a73.018,73.018,0,0,1-11.859.692,16.067,16.067,0,0,1-11.3-4.2,13.936,13.936,0,0,1-4.486-10.7,18.692,18.692,0,0,1,5.081-12.648A19.7,19.7,0,0,1,139,146.572a15.076,15.076,0,0,1,12.344,3.233,13.943,13.943,0,0,1,5.068,11.222,18.871,18.871,0,0,1-1.122,6.231l-.048.138h.125c5.206-1.44,9.692-4.846,13.389-10.121a27.49,27.49,0,0,0,5.3-15.667c0-4.915-1.855-8.7-5.538-11.257-4.154-2.949-10.225-3.891-18.083-2.769l-17.307,2.437M208.348,69.79,149.2,78.1l-16.248,51.922-.042.118,17.563-2.471c7.816-1.1,13.846-.166,18,2.769,3.634,2.527,5.476,6.272,5.462,11.132a27.182,27.182,0,0,1-5.261,15.556c-3.614,5.192-8.044,8.557-13.154,10.011a18.877,18.877,0,0,0,1.087-6.141,14.04,14.04,0,0,0-5.123-11.34,15.3,15.3,0,0,0-12.461-3.261,19.786,19.786,0,0,0-12.309,6.708,18.837,18.837,0,0,0-5.137,12.78A14.1,14.1,0,0,0,126.1,176.7a16.31,16.31,0,0,0,11.381,4.23,76.193,76.193,0,0,0,36.442-8.4,59.787,59.787,0,0,0,18.456-15.41c6.231-7.754,9.4-15.666,9.38-23.538a21.031,21.031,0,0,0-8.591-17.4c-5.234-3.925-13.029-5.192-23.192-3.766l-9.138,1.288L166.589,96,200.3,91.258l8-21.322.048-.125" transform="translate(-121.563 -69.79)"/></g></g><g transform="translate(84.441 48.181)"><g class="n"><path class="e" d="M208.44,69.8l-58.8,8.266-16.172,51.659,17.307-2.437c7.857-1.108,13.936-.166,18.083,2.769,3.669,2.555,5.538,6.341,5.538,11.257a27.352,27.352,0,0,1-5.3,15.66c-3.676,5.275-8.183,8.688-13.382,10.121l-.132.042.048-.138a18.871,18.871,0,0,0,1.121-6.231,13.936,13.936,0,0,0-5.068-11.222,15.271,15.271,0,0,0-12.357-3.205,19.716,19.716,0,0,0-12.17,6.653,18.692,18.692,0,0,0-5.081,12.648,13.936,13.936,0,0,0,4.486,10.7,16.274,16.274,0,0,0,11.3,4.2,73.022,73.022,0,0,0,11.859-.692c18.263-2.568,32.69-10.329,42.88-23.067,6.231-7.712,9.36-15.583,9.339-23.406a20.987,20.987,0,0,0-8.536-17.307c-5.2-3.911-12.967-5.171-23.095-3.745l-9.36,1.315.035-.118,5.822-17.93,33.721-4.742L208.44,69.73" transform="translate(-121.89 -69.598)"/><path class="f" d="M133.388,129.665,149.56,78.007l58.8-8.266L200.45,90.862,166.728,95.6l-5.822,17.93-.035.118,9.36-1.315c10.128-1.426,17.9-.166,23.095,3.745a20.914,20.914,0,0,1,8.536,17.307c0,7.823-3.115,15.694-9.339,23.406-10.19,12.738-24.618,20.5-42.88,23.067a73.019,73.019,0,0,1-11.859.692,16.067,16.067,0,0,1-11.3-4.2A13.936,13.936,0,0,1,122,165.65a18.692,18.692,0,0,1,5.081-12.717,19.716,19.716,0,0,1,12.17-6.653,15.076,15.076,0,0,1,12.343,3.233,13.936,13.936,0,0,1,5.068,11.222,18.87,18.87,0,0,1-1.121,6.231l-.048.138.132-.042c5.2-1.433,9.692-4.846,13.382-10.121a27.4,27.4,0,0,0,5.3-15.66c0-4.915-1.848-8.7-5.538-11.257-4.154-2.949-10.225-3.891-18.083-2.769l-17.307,2.437M208.6,69.54l-59.149,8.307L133.2,129.769v.111l17.556-2.465c7.816-1.1,13.846-.166,18,2.769,3.628,2.527,5.469,6.272,5.462,11.132a27.155,27.155,0,0,1-5.268,15.549c-3.614,5.2-8.037,8.564-13.154,10.011a19.182,19.182,0,0,0,1.087-6.134,14.088,14.088,0,0,0-5.171-11.374,15.311,15.311,0,0,0-12.461-3.254,19.786,19.786,0,0,0-12.288,6.736,18.837,18.837,0,0,0-5.137,12.78,14.074,14.074,0,0,0,4.555,10.841,16.283,16.283,0,0,0,11.374,4.23,76.194,76.194,0,0,0,36.421-8.384,59.7,59.7,0,0,0,18.456-15.41c6.231-7.754,9.4-15.667,9.38-23.538a21.031,21.031,0,0,0-8.591-17.4c-5.227-3.925-13.029-5.2-23.192-3.766l-9.138,1.274,5.746-17.695,33.714-4.742,8-21.371.048-.125" transform="translate(-121.813 -69.54)"/></g></g><g transform="translate(84.614 48.008)"><g class="o"><path class="e" d="M208.7,69.577l-58.8,8.266L133.727,129.5l17.342-2.444c7.851-1.1,13.929-.159,18.076,2.769,3.669,2.555,5.538,6.341,5.538,11.257a27.369,27.369,0,0,1-5.3,15.66c-3.676,5.275-8.183,8.688-13.382,10.121l-.132.035.055-.138a18.788,18.788,0,0,0,1.115-6.231,13.936,13.936,0,0,0-5.068-11.229,15.164,15.164,0,0,0-12.337-3.226,19.682,19.682,0,0,0-12.2,6.681,18.692,18.692,0,0,0-5.074,12.648,13.9,13.9,0,0,0,4.479,10.7,16.273,16.273,0,0,0,11.3,4.2A72.974,72.974,0,0,0,150,179.616c18.263-2.568,32.69-10.329,42.88-23.067,6.231-7.712,9.36-15.583,9.339-23.406a20.977,20.977,0,0,0-8.536-17.307c-5.2-3.911-12.967-5.171-23.095-3.745l-9.381,1.392.035-.118,5.822-17.937,33.721-4.735L208.7,69.57" transform="translate(-122.152 -69.376)"/><path class="f" d="M133.669,129.415,149.84,77.757l58.8-8.266-7.913,21.122-33.721,4.735-5.822,17.937-.035.118,9.36-1.315c10.128-1.426,17.9-.166,23.095,3.745a20.9,20.9,0,0,1,8.536,17.307c0,7.823-3.115,15.694-9.339,23.406-10.19,12.738-24.618,20.5-42.88,23.067a72.973,72.973,0,0,1-11.859.692,16.1,16.1,0,0,1-11.3-4.2,13.9,13.9,0,0,1-4.479-10.7,18.692,18.692,0,0,1,5.074-12.648,19.682,19.682,0,0,1,12.2-6.681A15.081,15.081,0,0,1,151.9,149.3a13.936,13.936,0,0,1,5.068,11.174,18.789,18.789,0,0,1-1.115,6.231l-.055.138.132-.035c5.2-1.433,9.692-4.846,13.382-10.121a27.419,27.419,0,0,0,5.3-15.66c0-4.915-1.848-8.7-5.538-11.257-4.154-2.949-10.225-3.891-18.076-2.769l-17.342,2.444M208.879,69.29,149.743,77.6,133.5,129.526v.111l17.563-2.465c7.809-1.1,13.846-.166,18,2.769,3.628,2.527,5.469,6.272,5.462,11.132a27.2,27.2,0,0,1-5.261,15.549c-3.621,5.2-8.044,8.564-13.153,10.01a18.989,18.989,0,0,0,1.087-6.134,14.109,14.109,0,0,0-5.123-11.347,15.345,15.345,0,0,0-12.461-3.261,19.883,19.883,0,0,0-12.3,6.736,18.865,18.865,0,0,0-5.137,12.787,14.074,14.074,0,0,0,4.534,10.82,16.255,16.255,0,0,0,11.381,4.223,75.937,75.937,0,0,0,36.414-8.4,59.593,59.593,0,0,0,18.456-15.4c6.231-7.754,9.408-15.666,9.381-23.538a21.019,21.019,0,0,0-8.591-17.4c-5.227-3.932-13.029-5.2-23.192-3.766l-9.138,1.281,5.746-17.7L200.89,90.8l8-21.35.042-.125" transform="translate(-122.094 -69.29)"/></g></g><g transform="translate(84.787 47.834)"><g class="p"><path class="e" d="M208.943,69.3l-58.8,8.259-16.193,51.659,17.342-2.437c7.851-1.1,13.929-.159,18.076,2.769,3.669,2.555,5.538,6.341,5.538,11.257a27.368,27.368,0,0,1-5.3,15.66c-3.676,5.275-8.183,8.688-13.382,10.121l-.132.035.055-.138a18.816,18.816,0,0,0,1.115-6.231A13.929,13.929,0,0,0,152.2,149.02a15.185,15.185,0,0,0-12.337-3.233,19.716,19.716,0,0,0-12.191,6.681,18.692,18.692,0,0,0-5.081,12.655,13.929,13.929,0,0,0,4.479,10.7,16.273,16.273,0,0,0,11.3,4.2,72.981,72.981,0,0,0,11.859-.692c18.263-2.561,32.69-10.322,42.88-23.06,6.231-7.712,9.36-15.59,9.339-23.413a21,21,0,0,0-8.536-17.307c-5.2-3.9-12.967-5.164-23.095-3.738l-9.36,1.315.042-.118,5.815-17.937,33.728-4.735,7.906-21.122" transform="translate(-122.393 -69.095)"/><path class="f" d="M133.892,129.146l16.172-51.659,58.8-8.259L200.981,90.35l-33.728,4.735-5.815,17.937-.042.118,9.36-1.315c10.128-1.426,17.9-.166,23.095,3.738a20.922,20.922,0,0,1,8.536,17.307c0,7.823-3.115,15.7-9.339,23.413-10.191,12.738-24.618,20.5-42.88,23.06a72.987,72.987,0,0,1-11.859.692,16.1,16.1,0,0,1-11.3-4.2,13.929,13.929,0,0,1-4.479-10.7,18.692,18.692,0,0,1,5.081-12.655A19.716,19.716,0,0,1,139.8,145.8a15.044,15.044,0,0,1,12.337,3.233,13.929,13.929,0,0,1,5.068,11.229,18.817,18.817,0,0,1-1.115,6.231l-.055.138.132-.035c5.2-1.433,9.692-4.846,13.382-10.121a27.419,27.419,0,0,0,5.3-15.66c0-4.915-1.848-8.7-5.538-11.257-4.154-2.949-10.225-3.891-18.076-2.769l-17.342,2.361M209.123,69l-59.149,8.307-16.248,51.922v.111l17.563-2.465c7.809-1.1,13.846-.166,18,2.769,3.635,2.527,5.469,6.272,5.462,11.132a27.229,27.229,0,0,1-5.261,15.549c-3.621,5.192-8.044,8.564-13.153,10.01a18.99,18.99,0,0,0,1.087-6.134,14.088,14.088,0,0,0-5.123-11.347,15.346,15.346,0,0,0-12.461-3.261,19.882,19.882,0,0,0-12.3,6.736,18.9,18.9,0,0,0-5.137,12.787,14.06,14.06,0,0,0,4.534,10.814,16.227,16.227,0,0,0,11.381,4.23,75.937,75.937,0,0,0,36.414-8.4,59.683,59.683,0,0,0,18.456-15.4c6.231-7.754,9.408-15.673,9.381-23.538a21.044,21.044,0,0,0-8.584-17.4c-5.234-3.925-13.036-5.192-23.2-3.759l-9.138,1.281,5.746-17.7L201.12,90.5l8-21.35.042-.125" transform="translate(-122.337 -69.028)"/></g></g><g transform="translate(84.968 47.661)"><g class="q"><path class="e" d="M209.205,69.08,150.4,77.332l-16.172,51.659,17.342-2.437c7.851-1.1,13.929-.159,18.076,2.769,3.669,2.555,5.538,6.348,5.538,11.264a27.419,27.419,0,0,1-5.3,15.66c-3.683,5.275-8.183,8.681-13.389,10.121l-.125.035.048-.138a19.01,19.01,0,0,0,1.121-6.231,13.956,13.956,0,0,0-5.074-11.229,15.16,15.16,0,0,0-12.337-3.233,19.716,19.716,0,0,0-12.191,6.681,18.692,18.692,0,0,0-5.081,12.655,13.95,13.95,0,0,0,4.465,10.73,16.172,16.172,0,0,0,11.3,4.2,72.171,72.171,0,0,0,11.859-.692c18.263-2.568,32.69-10.322,42.88-23.06,6.231-7.712,9.36-15.59,9.339-23.413a20.987,20.987,0,0,0-8.536-17.307c-5.2-3.9-12.967-5.164-23.095-3.738l-9.346,1.371.042-.125,5.822-17.93L201.306,90.2l7.913-21.122" transform="translate(-122.655 -68.879)"/><path class="f" d="M134.138,128.908,150.31,77.243l58.845-8.259-7.947,21.129-33.721,4.735-5.85,17.93-.042.125,9.36-1.315c10.128-1.426,17.9-.166,23.095,3.738a20.913,20.913,0,0,1,8.536,17.307c0,7.823-3.115,15.7-9.339,23.413-10.19,12.738-24.618,20.492-42.88,23.06a72.167,72.167,0,0,1-11.859.692,16.172,16.172,0,0,1-11.27-4.251,13.95,13.95,0,0,1-4.479-10.7,18.692,18.692,0,0,1,5.081-12.655,19.716,19.716,0,0,1,12.191-6.681,15.02,15.02,0,0,1,12.337,3.233,13.956,13.956,0,0,1,5.074,11.229,19.01,19.01,0,0,1-1.121,6.231l-.048.138.125-.035c5.206-1.44,9.692-4.846,13.389-10.121a27.779,27.779,0,0,0,5.3-15.66c0-4.915-1.855-8.709-5.538-11.264-4.154-2.942-10.225-3.884-18.076-2.769l-17.342,2.437M209.348,68.79,150.2,77.1l-16.241,51.922-.042.111,17.563-2.472c7.816-1.094,13.846-.166,18,2.769,3.635,2.534,5.469,6.279,5.462,11.139a27.178,27.178,0,0,1-5.261,15.549c-3.621,5.192-8.044,8.564-13.154,10.01a18.836,18.836,0,0,0,1.087-6.134,14.088,14.088,0,0,0-5.123-11.347,15.321,15.321,0,0,0-12.461-3.261,19.882,19.882,0,0,0-12.316,6.708,18.9,18.9,0,0,0-5.137,12.787,14.06,14.06,0,0,0,4.534,10.814,16.351,16.351,0,0,0,11.381,4.23,71.739,71.739,0,0,0,11.88-.692,72.738,72.738,0,0,0,24.535-7.719,59.778,59.778,0,0,0,18.456-15.4c6.231-7.754,9.408-15.673,9.381-23.538a21.025,21.025,0,0,0-8.584-17.4c-5.234-3.925-13.029-5.192-23.2-3.766l-9.138,1.288,5.753-17.7,33.714-4.735,8.017-21.316.042-.125" transform="translate(-122.57 -68.79)"/></g></g><g transform="translate(85.141 47.481)"><g class="r"><path class="e" d="M209.45,68.792l-58.845,8.266-16.172,51.659,17.342-2.437c7.851-1.1,13.936-.159,18.083,2.769,3.662,2.555,5.538,6.348,5.538,11.264a27.385,27.385,0,0,1-5.3,15.66c-3.683,5.275-8.183,8.681-13.389,10.121l-.125.035.048-.138a19.01,19.01,0,0,0,1.122-6.231,13.95,13.95,0,0,0-5.068-11.229,15.317,15.317,0,0,0-12.357-3.2,19.7,19.7,0,0,0-12.164,6.66,18.692,18.692,0,0,0-5.081,12.655,13.97,13.97,0,0,0,4.479,10.7,16.172,16.172,0,0,0,11.3,4.2,72.932,72.932,0,0,0,11.859-.692c18.263-2.568,32.69-10.329,42.922-23.06,6.231-7.719,9.36-15.59,9.332-23.413a20.987,20.987,0,0,0-8.536-17.307c-5.192-3.9-12.967-5.164-23.095-3.745l-9.36,1.315.042-.118,5.822-17.93,33.721-4.742,7.913-21.122" transform="translate(-122.9 -68.592)"/><path class="f" d="M134.4,128.655,150.572,77l58.845-8.266-7.947,21.122-33.721,4.742-5.822,17.93-.042.118,9.36-1.315c10.128-1.385,17.9-.159,23.095,3.745a20.913,20.913,0,0,1,8.536,17.307c0,7.823-3.108,15.694-9.332,23.413-10.2,12.731-24.625,20.492-42.922,23.06a72.93,72.93,0,0,1-11.859.692,16.172,16.172,0,0,1-11.3-4.2,13.97,13.97,0,0,1-4.479-10.7A18.692,18.692,0,0,1,128.1,151.93a19.7,19.7,0,0,1,12.164-6.66,15.042,15.042,0,0,1,12.343,3.233,13.95,13.95,0,0,1,5.068,11.229,19.01,19.01,0,0,1-1.122,6.231l-.048.138.125-.035c5.206-1.44,9.692-4.846,13.389-10.121a27.486,27.486,0,0,0,5.3-15.66c0-4.915-1.855-8.709-5.538-11.264-4.154-2.942-10.232-3.884-18.083-2.769l-17.342,2.437M209.61,68.53l-59.142,8.307L134.22,128.759l-.042.118,17.563-2.471c7.816-1.094,13.846-.166,18,2.769,3.635,2.534,5.476,6.279,5.462,11.139a27.178,27.178,0,0,1-5.261,15.549c-3.621,5.192-8.044,8.564-13.153,10.011a18.879,18.879,0,0,0,1.087-6.141,14.06,14.06,0,0,0-5.123-11.34,15.3,15.3,0,0,0-12.461-3.261,19.883,19.883,0,0,0-12.3,6.736,18.858,18.858,0,0,0-5.13,12.787,14.067,14.067,0,0,0,4.528,10.814,16.29,16.29,0,0,0,11.381,4.23,71.7,71.7,0,0,0,11.88-.692,72.981,72.981,0,0,0,24.542-7.719,59.938,59.938,0,0,0,18.456-15.4c6.231-7.754,9.4-15.673,9.381-23.538a21.05,21.05,0,0,0-8.591-17.4c-5.234-3.925-13.029-5.192-23.2-3.766l-9.138,1.295,5.753-17.7,33.714-4.742,8-21.343.042-.132" transform="translate(-122.832 -68.53)"/></g></g><g transform="translate(85.314 47.308)"><g class="s"><path class="e" d="M209.709,68.57l-58.8,8.266-16.179,51.659,17.342-2.437c7.851-1.108,13.936-.166,18.083,2.769,3.662,2.555,5.538,6.348,5.538,11.257a27.389,27.389,0,0,1-5.3,15.667c-3.683,5.275-8.183,8.681-13.389,10.121l-.125.035.048-.138a19.053,19.053,0,0,0,1.121-6.231,13.943,13.943,0,0,0-5.068-11.222,15.151,15.151,0,0,0-12.344-3.233,19.7,19.7,0,0,0-12.191,6.681,18.692,18.692,0,0,0-5.081,12.648,13.957,13.957,0,0,0,4.486,10.71,16.172,16.172,0,0,0,11.291,4.2,73.067,73.067,0,0,0,11.866-.692c18.256-2.568,32.69-10.329,42.88-23.06,6.231-7.719,9.36-15.59,9.332-23.413a20.981,20.981,0,0,0-8.529-17.307c-5.2-3.9-12.974-5.164-23.095-3.745l-9.387,1.385.042-.118,5.822-17.93L201.8,89.692l7.913-21.122" transform="translate(-123.159 -68.369)"/><path class="f" d="M134.653,128.405l16.179-51.659,58.8-8.266L201.722,89.6l-33.687,4.742-5.822,17.93-.042.118,9.325-1.315c10.121-1.385,17.9-.159,23.095,3.745a20.908,20.908,0,0,1,8.529,17.307c0,7.823-3.108,15.694-9.332,23.413-10.19,12.731-24.625,20.492-42.88,23.06a73.07,73.07,0,0,1-11.866.692,16.172,16.172,0,0,1-11.291-4.2,13.956,13.956,0,0,1-4.486-10.71,18.692,18.692,0,0,1,5.081-12.648,19.7,19.7,0,0,1,12.191-6.681,15.042,15.042,0,0,1,12.344,3.233,13.943,13.943,0,0,1,5.074,11.174,19.051,19.051,0,0,1-1.121,6.231l-.048.138.125-.035c5.206-1.44,9.692-4.846,13.389-10.121a27.49,27.49,0,0,0,5.3-15.667c0-4.908-1.855-8.7-5.538-11.257-4.154-2.949-10.232-3.891-18.083-2.769l-17.342,2.437M209.87,68.28l-59.142,8.314L134.48,128.516l-.042.118L152,126.162c7.816-1.1,13.846-.166,18,2.769,3.635,2.534,5.476,6.272,5.462,11.139a27.178,27.178,0,0,1-5.261,15.549c-3.621,5.192-8.044,8.557-13.154,10.011a18.878,18.878,0,0,0,1.087-6.141,14.04,14.04,0,0,0-5.123-11.34,15.3,15.3,0,0,0-12.461-3.261,19.786,19.786,0,0,0-12.288,6.736,18.81,18.81,0,0,0-5.137,12.787,14.088,14.088,0,0,0,4.528,10.814,16.29,16.29,0,0,0,11.381,4.23,76.194,76.194,0,0,0,36.421-8.4,59.862,59.862,0,0,0,18.456-15.4c6.231-7.754,9.4-15.673,9.381-23.538a21.031,21.031,0,0,0-8.591-17.4c-5.234-3.925-13.029-5.192-23.192-3.766l-9.145,1.288,5.753-17.7,33.714-4.742,8-21.35.048-.125" transform="translate(-123.085 -68.28)"/></g></g><g transform="translate(85.487 47.135)"><g class="t"><path class="e" d="M209.934,68.289l-58.8,8.266-16.2,51.659,17.307-2.437c7.857-1.108,13.936-.166,18.083,2.769,3.662,2.555,5.538,6.341,5.538,11.257a27.389,27.389,0,0,1-5.3,15.667c-3.683,5.268-8.183,8.681-13.389,10.121l-.125.035.048-.138a18.873,18.873,0,0,0,1.121-6.231,13.943,13.943,0,0,0-5.068-11.222,15.151,15.151,0,0,0-12.344-3.233,19.7,19.7,0,0,0-12.191,6.681,18.692,18.692,0,0,0-5.081,12.648,13.936,13.936,0,0,0,4.486,10.7,16.273,16.273,0,0,0,11.3,4.2,73.021,73.021,0,0,0,11.859-.692c18.263-2.568,32.69-10.329,42.88-23.067,6.231-7.712,9.36-15.583,9.332-23.406a20.962,20.962,0,0,0-8.529-17.307c-5.2-3.9-12.974-5.164-23.095-3.745l-9.36,1.315v-.118l5.822-17.93,33.721-4.742,7.913-21.122" transform="translate(-123.384 -68.088)"/><path class="f" d="M134.876,128.146l16.2-51.659,58.8-8.266-7.913,21.122-33.721,4.742-5.822,17.93v.118l9.36-1.315c10.121-1.385,17.9-.159,23.095,3.745a20.889,20.889,0,0,1,8.529,17.307c0,7.823-3.108,15.694-9.332,23.406-10.191,12.738-24.618,20.5-42.88,23.067a73.02,73.02,0,0,1-11.859.692,16.067,16.067,0,0,1-11.3-4.2,13.936,13.936,0,0,1-4.486-10.7,18.692,18.692,0,0,1,5.081-12.648,19.7,19.7,0,0,1,12.191-6.681,15.042,15.042,0,0,1,12.344,3.233,13.943,13.943,0,0,1,5.068,11.222,18.872,18.872,0,0,1-1.121,6.231l-.048.138.125-.035c5.206-1.44,9.692-4.846,13.389-10.121a27.44,27.44,0,0,0,5.3-15.667c0-4.915-1.855-8.7-5.538-11.257-4.154-2.949-10.225-3.891-18.083-2.769l-17.307,2.437M210.114,68l-59.149,8.307-16.248,51.922-.042.111,17.563-2.465c7.816-1.1,13.846-.166,18,2.769,3.635,2.527,5.476,6.272,5.469,11.132a27.192,27.192,0,0,1-5.268,15.556c-3.614,5.192-8.044,8.557-13.154,10.01a19.252,19.252,0,0,0,1.087-6.141,14.067,14.067,0,0,0-5.13-11.34,15.3,15.3,0,0,0-12.461-3.261,19.786,19.786,0,0,0-12.288,6.736,18.837,18.837,0,0,0-5.137,12.78,14.074,14.074,0,0,0,4.534,10.82,16.283,16.283,0,0,0,11.374,4.23,76.194,76.194,0,0,0,36.456-8.4,59.786,59.786,0,0,0,18.456-15.41c6.231-7.754,9.4-15.666,9.38-23.538a21.032,21.032,0,0,0-8.591-17.4c-5.234-3.925-13.029-5.192-23.192-3.766l-9.138,1.281,5.746-17.695L202.1,89.489l8-21.35.048-.125" transform="translate(-123.329 -68.021)"/></g></g><g transform="translate(85.661 46.961)"><g class="u"><path class="e" d="M210.211,68.07l-58.8,8.259-16.172,51.659,17.342-2.437c7.851-1.108,13.929-.166,18.076,2.769,3.669,2.555,5.538,6.341,5.538,11.257a27.352,27.352,0,0,1-5.3,15.66c-3.676,5.275-8.183,8.688-13.382,10.121l-.132.042.048-.138a18.873,18.873,0,0,0,1.121-6.231,13.936,13.936,0,0,0-5.068-11.222,15.151,15.151,0,0,0-12.343-3.233,19.716,19.716,0,0,0-12.191,6.681,18.692,18.692,0,0,0-5.075,12.648,13.9,13.9,0,0,0,4.458,10.731,16.274,16.274,0,0,0,11.3,4.2,73.024,73.024,0,0,0,11.859-.692c18.263-2.568,32.69-10.329,42.88-23.067,6.231-7.712,9.36-15.583,9.339-23.406a20.987,20.987,0,0,0-8.536-17.307c-5.2-3.911-12.967-5.171-23.095-3.745l-9.353,1.364v-.118l5.822-17.93,33.721-4.742,7.913-21.122" transform="translate(-123.661 -67.869)"/><path class="f" d="M135.145,127.905,151.317,76.24l58.8-8.266L202.207,89.1l-33.721,4.742-5.85,17.93v.118l9.36-1.315c10.128-1.426,17.9-.166,23.095,3.745a20.913,20.913,0,0,1,8.536,17.307c0,7.823-3.115,15.694-9.339,23.406-10.19,12.738-24.618,20.5-42.88,23.067a73.021,73.021,0,0,1-11.859.692,16.067,16.067,0,0,1-11.3-4.2,13.9,13.9,0,0,1-4.479-10.7,18.692,18.692,0,0,1,5.074-12.648,19.716,19.716,0,0,1,12.191-6.681,15.042,15.042,0,0,1,12.343,3.233,13.936,13.936,0,0,1,5.068,11.222,18.873,18.873,0,0,1-1.121,6.231l-.048.138.132-.042c5.2-1.433,9.692-4.846,13.382-10.121a27.4,27.4,0,0,0,5.3-15.66c0-4.915-1.848-8.7-5.538-11.257-4.154-2.949-10.225-3.891-18.076-2.769l-17.342,2.437M210.355,67.78l-59.149,8.307-16.248,51.922-.035.111,17.556-2.465c7.816-1.1,13.846-.166,18,2.769,3.628,2.527,5.469,6.272,5.462,11.132a27.2,27.2,0,0,1-5.261,15.549c-3.621,5.2-8.044,8.564-13.153,10.011a18.991,18.991,0,0,0,1.087-6.134,14.109,14.109,0,0,0-5.123-11.347,15.346,15.346,0,0,0-12.461-3.261,19.848,19.848,0,0,0-12.316,6.708,18.865,18.865,0,0,0-5.137,12.787,14.074,14.074,0,0,0,4.534,10.82,16.283,16.283,0,0,0,11.374,4.23,76.193,76.193,0,0,0,36.421-8.4,59.7,59.7,0,0,0,18.456-15.41c6.231-7.754,9.4-15.666,9.381-23.538a21.019,21.019,0,0,0-8.591-17.4c-5.227-3.925-13.029-5.2-23.192-3.766l-9.138,1.281L168.568,94l33.721-4.742,8.017-21.323.048-.125" transform="translate(-123.57 -67.78)"/></g></g><g transform="translate(85.834 46.788)"><g class="v"><path class="e" d="M210.452,67.8l-58.8,8.266-16.172,51.652,17.342-2.437c7.851-1.1,13.929-.159,18.076,2.769,3.669,2.555,5.538,6.341,5.538,11.257a27.368,27.368,0,0,1-5.3,15.66c-3.676,5.275-8.183,8.688-13.382,10.121l-.132.035.055-.138a18.789,18.789,0,0,0,1.115-6.231,13.936,13.936,0,0,0-5.088-11.215,15.318,15.318,0,0,0-12.337-3.2,19.7,19.7,0,0,0-12.2,6.66A18.692,18.692,0,0,0,124.1,163.65a13.9,13.9,0,0,0,4.479,10.7,16.274,16.274,0,0,0,11.3,4.2,72.977,72.977,0,0,0,11.859-.692c18.263-2.561,32.69-10.322,42.88-23.06,6.231-7.712,9.36-15.583,9.339-23.413a21,21,0,0,0-8.536-17.307c-5.2-3.911-12.967-5.171-23.095-3.745l-9.36,1.315v-.118L168.784,93.6l33.721-4.735,7.913-21.122" transform="translate(-123.903 -67.595)"/><path class="f" d="M135.407,127.648,151.579,76l58.8-8.266-7.913,21.122-33.721,4.735-5.822,17.937v.118l9.36-1.315c10.128-1.426,17.9-.166,23.095,3.745a20.9,20.9,0,0,1,8.536,17.307c0,7.83-3.115,15.7-9.339,23.413-10.19,12.738-24.618,20.5-42.88,23.06a72.983,72.983,0,0,1-11.859.692,16.1,16.1,0,0,1-11.3-4.2,13.9,13.9,0,0,1-4.479-10.7,18.692,18.692,0,0,1,5.04-12.71,19.7,19.7,0,0,1,12.2-6.674,15.115,15.115,0,0,1,12.337,3.226,13.936,13.936,0,0,1,5.068,11.229,18.788,18.788,0,0,1-1.115,6.231l-.055.138.132-.035c5.2-1.433,9.692-4.846,13.382-10.121a27.419,27.419,0,0,0,5.3-15.66c0-4.915-1.848-8.7-5.538-11.257-4.154-2.949-10.225-3.891-18.076-2.769l-17.342,2.437M210.617,67.53l-59.149,8.307L135.22,127.759l-.035.111,17.563-2.465c7.809-1.1,13.846-.166,18,2.769,3.628,2.527,5.469,6.272,5.462,11.132a27.2,27.2,0,0,1-5.261,15.549c-3.621,5.192-8.044,8.564-13.154,10.01a18.988,18.988,0,0,0,1.087-6.134,14.109,14.109,0,0,0-5.123-11.347,15.345,15.345,0,0,0-12.461-3.261,19.883,19.883,0,0,0-12.3,6.736,18.865,18.865,0,0,0-5.137,12.787,14.088,14.088,0,0,0,4.534,10.82,16.255,16.255,0,0,0,11.381,4.223,75.937,75.937,0,0,0,36.414-8.4,59.682,59.682,0,0,0,18.456-15.4c6.231-7.754,9.408-15.673,9.381-23.538a21.022,21.022,0,0,0-8.584-17.4c-5.234-3.932-13.036-5.2-23.2-3.766l-9.138,1.281,5.746-17.7,33.721-4.735,8-21.35.042-.125" transform="translate(-123.832 -67.53)"/></g></g><g transform="translate(86.014 46.615)"><g class="w"><path class="e" d="M210.712,67.57l-58.8,8.259-16.172,51.659,17.342-2.437c7.851-1.1,13.929-.159,18.076,2.769,3.669,2.555,5.538,6.341,5.538,11.257a27.369,27.369,0,0,1-5.3,15.66c-3.676,5.275-8.183,8.681-13.382,10.121l-.132.035.055-.138a19.01,19.01,0,0,0,1.122-6.231,13.957,13.957,0,0,0-5.074-11.229,15.185,15.185,0,0,0-12.337-3.233,19.716,19.716,0,0,0-12.191,6.681,18.692,18.692,0,0,0-5.081,12.655,13.929,13.929,0,0,0,4.479,10.7,16.172,16.172,0,0,0,11.3,4.2,72.206,72.206,0,0,0,11.859-.692c18.263-2.561,32.69-10.322,42.88-23.06,6.231-7.712,9.36-15.59,9.339-23.413a20.987,20.987,0,0,0-8.536-17.307c-5.2-3.9-12.967-5.164-23.095-3.738l-9.38,1.4.042-.118,5.815-17.937,33.728-4.735,7.906-21.122" transform="translate(-124.169 -67.369)"/><path class="f" d="M135.66,127.4,151.832,75.74l58.8-8.259L202.729,88.6l-33.694,4.735-5.815,17.937-.042.118,9.318-1.315c10.128-1.426,17.9-.166,23.095,3.738a20.913,20.913,0,0,1,8.536,17.307c0,7.823-3.115,15.7-9.339,23.413-10.191,12.738-24.618,20.5-42.88,23.06a72.205,72.205,0,0,1-11.859.692,16.172,16.172,0,0,1-11.3-4.2,13.929,13.929,0,0,1-4.479-10.7,18.692,18.692,0,0,1,5.081-12.655,19.716,19.716,0,0,1,12.191-6.681,15.111,15.111,0,0,1,12.337,3.233,13.957,13.957,0,0,1,5.081,11.18,19.011,19.011,0,0,1-1.122,6.231l-.055.138.132-.035c5.2-1.44,9.692-4.846,13.382-10.121a27.419,27.419,0,0,0,5.3-15.66c0-4.915-1.848-8.7-5.538-11.257-4.154-2.949-10.225-3.891-18.076-2.769l-17.342,2.437M210.87,67.28l-59.142,8.307-16.241,51.922-.042.111,17.563-2.465c7.809-1.1,13.846-.166,18,2.769,3.635,2.527,5.469,6.272,5.462,11.132a27.229,27.229,0,0,1-5.261,15.549c-3.621,5.192-8.044,8.564-13.154,10.011a19.024,19.024,0,0,0,1.087-6.134,14.088,14.088,0,0,0-5.123-11.347,15.345,15.345,0,0,0-12.461-3.261,19.883,19.883,0,0,0-12.3,6.736,18.9,18.9,0,0,0-5.137,12.787,14.06,14.06,0,0,0,4.534,10.814,16.351,16.351,0,0,0,11.381,4.23,75.937,75.937,0,0,0,36.414-8.4,59.682,59.682,0,0,0,18.456-15.4c6.231-7.754,9.408-15.673,9.381-23.538a21.044,21.044,0,0,0-8.584-17.4c-5.234-3.925-13.036-5.192-23.2-3.766l-9.138,1.288,5.746-17.7,33.721-4.735,8-21.35.042-.125" transform="translate(-124.092 -67.28)"/></g></g><g transform="translate(86.188 46.442)"><g class="x"><path class="e" d="M210.957,67.276l-58.81,8.266-16.2,51.659,17.342-2.437c7.851-1.1,13.936-.159,18.083,2.769,3.662,2.555,5.538,6.348,5.538,11.264a27.419,27.419,0,0,1-5.3,15.66c-3.683,5.275-8.183,8.681-13.389,10.121l-.125.035.048-.138a19.009,19.009,0,0,0,1.121-6.231,13.97,13.97,0,0,0-5.068-11.229,15.182,15.182,0,0,0-12.343-3.233,19.716,19.716,0,0,0-12.191,6.681,18.692,18.692,0,0,0-5.081,12.655,13.949,13.949,0,0,0,4.479,10.7,16.172,16.172,0,0,0,11.3,4.2,72.163,72.163,0,0,0,11.859-.692c18.263-2.568,32.69-10.329,42.887-23.06,6.231-7.719,9.36-15.59,9.332-23.413a20.987,20.987,0,0,0-8.536-17.307c-5.2-3.9-12.967-5.164-23.095-3.738l-9.36,1.315.042-.125,5.822-17.93,33.721-4.735L210.95,67.2" transform="translate(-124.407 -67.082)"/><path class="f" d="M135.882,127.139l16.2-51.659,58.81-8.266-7.913,21.129-33.721,4.735-5.822,17.93-.042.125,9.36-1.315c10.128-1.426,17.9-.166,23.095,3.738a20.913,20.913,0,0,1,8.536,17.307c0,7.823-3.108,15.694-9.332,23.413-10.2,12.731-24.625,20.492-42.887,23.06a72.164,72.164,0,0,1-11.859.692,16.172,16.172,0,0,1-11.3-4.2,13.95,13.95,0,0,1-4.479-10.7,18.692,18.692,0,0,1,5.081-12.655A19.716,19.716,0,0,1,141.8,143.8a15.109,15.109,0,0,1,12.344,3.233,13.97,13.97,0,0,1,5.068,11.229,19.011,19.011,0,0,1-1.122,6.231l-.048.138.125-.035c5.206-1.44,9.692-4.846,13.389-10.121a27.521,27.521,0,0,0,5.3-15.66c0-4.915-1.855-8.709-5.538-11.264-4.154-2.942-10.232-3.884-18.083-2.769l-17.349,2.361M211.12,67l-59.149,8.307L135.73,127.229l-.042.111,17.563-2.471c7.816-1.094,13.846-.166,18,2.769,3.635,2.534,5.469,6.279,5.462,11.139a27.178,27.178,0,0,1-5.261,15.549c-3.621,5.192-8.044,8.564-13.153,10.011a18.845,18.845,0,0,0,1.087-6.141,14.06,14.06,0,0,0-5.123-11.34,15.321,15.321,0,0,0-12.461-3.261,19.883,19.883,0,0,0-12.3,6.736,18.858,18.858,0,0,0-5.13,12.787,14.04,14.04,0,0,0,4.528,10.814,16.351,16.351,0,0,0,11.381,4.23,71.741,71.741,0,0,0,11.88-.692,72.739,72.739,0,0,0,24.562-7.712,59.883,59.883,0,0,0,18.463-15.4c6.231-7.754,9.4-15.673,9.374-23.538a21.025,21.025,0,0,0-8.584-17.4c-5.234-3.925-13.029-5.192-23.2-3.766l-9.138,1.288,5.753-17.7L203.11,88.5l8-21.35.042-.125" transform="translate(-124.342 -67.021)"/></g></g><g transform="translate(86.361 46.262)"><g class="y"><path class="e" d="M211.219,67.06l-58.8,8.266-16.179,51.659,17.342-2.437c7.851-1.1,13.936-.166,18.083,2.769,3.662,2.555,5.538,6.348,5.538,11.257a27.389,27.389,0,0,1-5.3,15.666c-3.683,5.275-8.183,8.681-13.389,10.121l-.125.035.048-.138a19.052,19.052,0,0,0,1.121-6.231,13.943,13.943,0,0,0-5.068-11.222,15.158,15.158,0,0,0-12.344-3.233,19.7,19.7,0,0,0-12.191,6.681,18.692,18.692,0,0,0-5.081,12.655,13.957,13.957,0,0,0,4.465,10.724,16.207,16.207,0,0,0,11.291,4.2,72.927,72.927,0,0,0,11.859-.692c18.263-2.568,32.7-10.329,42.887-23.06,6.231-7.719,9.36-15.59,9.332-23.413a21,21,0,0,0-8.529-17.307c-5.2-3.9-12.973-5.164-23.1-3.745l-9.353,1.364.042-.118,5.822-17.93,33.721-4.742,7.906-21.122" transform="translate(-124.669 -66.859)"/><path class="f" d="M136.148,126.9l16.179-51.659,58.8-8.266-7.913,21.122L169.5,92.835l-5.822,17.93-.042.118,9.36-1.315c10.128-1.385,17.9-.159,23.1,3.745a20.926,20.926,0,0,1,8.529,17.307c0,7.823-3.108,15.694-9.332,23.413-10.19,12.731-24.625,20.492-42.887,23.06a72.93,72.93,0,0,1-11.859.692,16.064,16.064,0,0,1-11.291-4.2,13.957,13.957,0,0,1-4.486-10.7,18.692,18.692,0,0,1,5.081-12.655,19.7,19.7,0,0,1,12.191-6.681,15.109,15.109,0,0,1,12.343,3.233,13.942,13.942,0,0,1,5.1,11.18,19.051,19.051,0,0,1-1.122,6.231l-.048.138.125-.035c5.206-1.44,9.692-4.846,13.389-10.121a27.49,27.49,0,0,0,5.3-15.666c0-4.908-1.855-8.7-5.538-11.257-4.154-2.949-10.232-3.884-18.083-2.769l-17.342,2.437m75.2-60.153-59.142,8.307L135.968,127l-.042.118,17.563-2.471c7.816-1.094,13.846-.166,18,2.769,3.635,2.534,5.476,6.279,5.462,11.139A27.178,27.178,0,0,1,171.69,154.1c-3.621,5.192-8.044,8.564-13.153,10.011a18.88,18.88,0,0,0,1.087-6.141,14.04,14.04,0,0,0-5.123-11.34,15.3,15.3,0,0,0-12.461-3.261,19.883,19.883,0,0,0-12.323,6.708,18.858,18.858,0,0,0-5.13,12.787,14.067,14.067,0,0,0,4.528,10.814,16.29,16.29,0,0,0,11.381,4.23,71.7,71.7,0,0,0,11.88-.692,73.14,73.14,0,0,0,24.542-7.719,59.938,59.938,0,0,0,18.456-15.4c6.231-7.754,9.4-15.673,9.381-23.538a21.05,21.05,0,0,0-8.591-17.4c-5.234-3.925-13.029-5.192-23.2-3.766l-9.138,1.288,5.753-17.7,33.714-4.742,8.024-21.3.042-.132" transform="translate(-124.58 -66.77)"/></g></g><g transform="translate(86.534 46.088)"><g class="z"><path class="e" d="M211.46,66.785l-58.8,8.266L136.478,126.71l17.342-2.437c7.857-1.108,13.936-.166,18.083,2.769,3.662,2.555,5.538,6.348,5.538,11.257a27.389,27.389,0,0,1-5.3,15.667c-3.683,5.275-8.183,8.681-13.389,10.121l-.125.035.048-.138a19.051,19.051,0,0,0,1.122-6.231,13.943,13.943,0,0,0-5.088-11.222,15.344,15.344,0,0,0-12.344-3.205,19.7,19.7,0,0,0-12.191,6.667A18.692,18.692,0,0,0,125.1,162.64a13.957,13.957,0,0,0,4.486,10.71,16.172,16.172,0,0,0,11.291,4.2,73.067,73.067,0,0,0,11.866-.692c18.256-2.568,32.69-10.329,42.88-23.06,6.231-7.719,9.36-15.59,9.332-23.413a20.981,20.981,0,0,0-8.529-17.307c-5.2-3.9-12.974-5.164-23.095-3.745l-9.367,1.315.042-.118,5.822-17.93,33.721-4.742L211.46,66.73" transform="translate(-124.91 -66.585)"/><path class="f" d="M136.41,126.645l16.179-51.659,58.8-8.266-7.913,21.122-33.721,4.742-5.822,17.93-.042.118,9.367-1.315c10.121-1.385,17.9-.159,23.095,3.745a20.907,20.907,0,0,1,8.529,17.307c0,7.823-3.108,15.694-9.332,23.413-10.19,12.731-24.625,20.492-42.88,23.06a73.067,73.067,0,0,1-11.866.692,16.172,16.172,0,0,1-11.291-4.2,13.956,13.956,0,0,1-4.486-10.71,18.692,18.692,0,0,1,5.081-12.7,19.7,19.7,0,0,1,12.191-6.681,15.076,15.076,0,0,1,12.344,3.233,13.943,13.943,0,0,1,5.068,11.222,19.052,19.052,0,0,1-1.122,6.231l-.048.138.125-.035c5.206-1.44,9.692-4.846,13.389-10.121a27.49,27.49,0,0,0,5.3-15.666c0-4.908-1.855-8.7-5.538-11.257-4.154-2.949-10.225-3.891-18.083-2.769l-17.342,2.437M211.627,66.52l-59.149,8.307L136.23,126.749l-.042.118,17.563-2.471c7.816-1.1,13.846-.166,18,2.769,3.635,2.534,5.476,6.272,5.462,11.132a27.182,27.182,0,0,1-5.261,15.556c-3.614,5.192-8.044,8.557-13.153,10.011a18.88,18.88,0,0,0,1.087-6.141,14.04,14.04,0,0,0-5.123-11.34,15.3,15.3,0,0,0-12.461-3.261,19.786,19.786,0,0,0-12.288,6.736,18.81,18.81,0,0,0-5.137,12.787,14.088,14.088,0,0,0,4.528,10.821,16.311,16.311,0,0,0,11.381,4.23,76.193,76.193,0,0,0,36.421-8.4,59.862,59.862,0,0,0,18.456-15.4c6.231-7.761,9.4-15.673,9.38-23.538a21.031,21.031,0,0,0-8.591-17.4c-5.234-3.925-13.029-5.192-23.192-3.766l-9.138,1.281,5.746-17.7,33.714-4.742,8-21.378.048-.125" transform="translate(-124.842 -66.52)"/></g></g><g transform="translate(86.707 45.915)"><g class="aa"><path class="e" d="M211.71,66.56l-58.8,8.266-16.172,51.659,17.307-2.437c7.857-1.108,13.936-.166,18.083,2.769,3.662,2.555,5.538,6.341,5.538,11.257a27.389,27.389,0,0,1-5.3,15.667c-3.683,5.268-8.183,8.681-13.389,10.121l-.125.035.048-.138a18.871,18.871,0,0,0,1.122-6.231,13.943,13.943,0,0,0-5.068-11.222,15.151,15.151,0,0,0-12.343-3.233,19.7,19.7,0,0,0-12.191,6.681,18.692,18.692,0,0,0-5.074,12.648,13.936,13.936,0,0,0,4.486,10.7,16.273,16.273,0,0,0,11.3,4.2,73.017,73.017,0,0,0,11.859-.692c18.263-2.568,32.69-10.329,42.88-23.067,6.231-7.712,9.36-15.583,9.332-23.406a20.962,20.962,0,0,0-8.529-17.307c-5.2-3.911-12.973-5.164-23.095-3.745l-9.36,1.391.035-.118,5.822-17.93L203.8,87.689,211.71,66.56" transform="translate(-125.16 -66.359)"/><path class="f" d="M136.661,126.4l16.172-51.659,58.8-8.266-7.913,21.122-33.694,4.742-5.822,17.93-.035.118,9.36-1.315c10.121-1.385,17.9-.166,23.095,3.745a20.889,20.889,0,0,1,8.529,17.307c0,7.823-3.108,15.694-9.332,23.406-10.191,12.738-24.618,20.5-42.88,23.067a73.022,73.022,0,0,1-11.859.692,16.067,16.067,0,0,1-11.3-4.2,13.936,13.936,0,0,1-4.514-10.772,18.692,18.692,0,0,1,5.081-12.648,19.7,19.7,0,0,1,12.191-6.681,15.075,15.075,0,0,1,12.343,3.233,13.943,13.943,0,0,1,5.068,11.25,18.875,18.875,0,0,1-1.121,6.231l-.049.138.125-.035c5.206-1.44,9.692-4.846,13.389-10.121a27.439,27.439,0,0,0,5.3-15.666c0-4.915-1.855-8.7-5.538-11.257-4.154-2.949-10.225-3.891-18.083-2.769l-17.307,2.437m75.2-60.153-59.149,8.314-16.248,51.922-.042.111L154,124.152c7.816-1.1,13.846-.166,18,2.769,3.628,2.527,5.469,6.272,5.462,11.132a27.155,27.155,0,0,1-5.268,15.549c-3.614,5.2-8.038,8.564-13.154,10.01a19.182,19.182,0,0,0,1.087-6.134,14.067,14.067,0,0,0-5.13-11.34,15.3,15.3,0,0,0-12.461-3.261,19.786,19.786,0,0,0-12.288,6.736,18.837,18.837,0,0,0-5.137,12.78,14.074,14.074,0,0,0,4.534,10.82,16.283,16.283,0,0,0,11.374,4.23,76.193,76.193,0,0,0,36.421-8.4,59.786,59.786,0,0,0,18.456-15.41c6.231-7.754,9.4-15.666,9.381-23.538a21.032,21.032,0,0,0-8.591-17.4c-5.227-3.925-13.029-5.192-23.192-3.766l-9.138,1.281L170.1,92.515l33.714-4.742,8-21.35.048-.125" transform="translate(-125.086 -66.27)"/></g></g><g transform="translate(86.881 45.742)"><g class="ab"><path class="e" d="M211.956,66.279l-58.8,8.266L136.981,126.2l17.307-2.437c7.851-1.108,13.929-.166,18.076,2.769,3.669,2.555,5.538,6.341,5.538,11.257a27.352,27.352,0,0,1-5.3,15.66c-3.676,5.275-8.183,8.688-13.382,10.121l-.132.042.048-.138a18.692,18.692,0,0,0,1.122-6.231,13.915,13.915,0,0,0-5.068-11.222,15.142,15.142,0,0,0-12.337-3.233,19.717,19.717,0,0,0-12.2,6.681,18.692,18.692,0,0,0-5.074,12.648,13.9,13.9,0,0,0,4.479,10.7,16.273,16.273,0,0,0,11.3,4.2,73.021,73.021,0,0,0,11.859-.692c18.263-2.568,32.69-10.329,42.88-23.067,6.231-7.712,9.36-15.583,9.339-23.406a20.987,20.987,0,0,0-8.536-17.307c-5.2-3.911-12.967-5.171-23.095-3.745l-9.36,1.315.035-.118,5.822-17.93,33.721-4.742,7.913-21.122" transform="translate(-125.406 -66.078)"/><path class="f" d="M136.917,126.139l16.172-51.659,58.8-8.266-7.913,21.122-33.721,4.742-5.822,17.93-.035.118,9.36-1.315c10.128-1.426,17.9-.166,23.095,3.745a20.914,20.914,0,0,1,8.536,17.307c0,7.823-3.115,15.694-9.339,23.406-10.19,12.738-24.618,20.5-42.88,23.067a73.014,73.014,0,0,1-11.859.692,16.067,16.067,0,0,1-11.3-4.2,13.9,13.9,0,0,1-4.479-10.7,18.692,18.692,0,0,1,5.074-12.648,19.716,19.716,0,0,1,12.2-6.681,15.094,15.094,0,0,1,12.337,3.233,13.915,13.915,0,0,1,5.068,11.222,18.692,18.692,0,0,1-1.122,6.231l-.048.138.132-.042c5.2-1.433,9.692-4.846,13.382-10.121a27.4,27.4,0,0,0,5.3-15.66c0-4.915-1.848-8.7-5.538-11.257-4.154-2.949-10.225-3.891-18.076-2.769l-17.307,2.437M212.127,66l-59.149,8.307L136.73,126.229l-.035.111,17.563-2.465c7.809-1.1,13.846-.166,18,2.769,3.628,2.527,5.469,6.272,5.462,11.132a27.2,27.2,0,0,1-5.261,15.549c-3.621,5.2-8.044,8.564-13.153,10.011a18.99,18.99,0,0,0,1.087-6.134,14.109,14.109,0,0,0-5.123-11.347,15.345,15.345,0,0,0-12.461-3.261,19.848,19.848,0,0,0-12.3,6.736,18.865,18.865,0,0,0-5.137,12.787,14.074,14.074,0,0,0,4.535,10.82,16.283,16.283,0,0,0,11.374,4.23,76.193,76.193,0,0,0,36.442-8.411,59.7,59.7,0,0,0,18.456-15.41c6.231-7.754,9.408-15.667,9.381-23.538a21.019,21.019,0,0,0-8.591-17.4c-5.227-3.925-13.029-5.2-23.192-3.766l-9.138,1.281,5.746-17.7,33.7-4.763,7.989-21.322.048-.125" transform="translate(-125.342 -66.014)"/></g></g><g transform="translate(87.054 45.569)"><g class="ac"><path class="e" d="M212.206,66.06l-58.8,8.266-16.172,51.652,17.307-2.437c7.851-1.1,13.929-.159,18.076,2.769,3.669,2.555,5.538,6.341,5.538,11.257a27.368,27.368,0,0,1-5.3,15.66c-3.676,5.275-8.183,8.688-13.382,10.121h-.132l.055-.138a18.788,18.788,0,0,0,1.115-6.231,13.936,13.936,0,0,0-5.068-11.229,15.184,15.184,0,0,0-12.337-3.233,19.751,19.751,0,0,0-12.2,6.681,18.692,18.692,0,0,0-5.074,12.655,13.929,13.929,0,0,0,4.493,10.779,16.273,16.273,0,0,0,11.3,4.2,72.981,72.981,0,0,0,11.859-.692c18.263-2.561,32.69-10.322,42.88-23.06,6.231-7.712,9.36-15.583,9.339-23.413a20.791,20.791,0,0,0-8.536-17.266c-5.2-3.911-12.967-5.171-23.095-3.745l-9.36,1.315.042-.118,5.815-17.937L204.3,87.182l7.906-21.122" transform="translate(-125.656 -65.859)"/><path class="f" d="M137.167,125.888l16.172-51.652,58.8-8.266-7.906,21.122-33.728,4.735-5.815,17.937-.042.118,9.36-1.315c10.128-1.426,17.9-.166,23.095,3.745a20.886,20.886,0,0,1,8.536,17.273c0,7.83-3.115,15.7-9.339,23.413-10.19,12.738-24.618,20.5-42.88,23.06a72.981,72.981,0,0,1-11.859.692,16.1,16.1,0,0,1-11.3-4.2,13.929,13.929,0,0,1-4.479-10.7,18.692,18.692,0,0,1,5.074-12.655,19.751,19.751,0,0,1,12.2-6.681,15.111,15.111,0,0,1,12.337,3.233,13.936,13.936,0,0,1,5.1,11.222,18.787,18.787,0,0,1-1.115,6.231l-.055.138h.132c5.2-1.433,9.692-4.846,13.382-10.121a27.419,27.419,0,0,0,5.3-15.66c0-4.915-1.848-8.7-5.538-11.257-4.154-2.949-10.225-3.891-18.076-2.769l-17.307,2.437M212.377,65.77l-59.149,8.307L136.98,126l-.035.111,17.563-2.465c7.809-1.1,13.846-.166,18,2.769,3.628,2.527,5.469,6.272,5.462,11.132a27.229,27.229,0,0,1-5.261,15.549c-3.621,5.192-8.044,8.564-13.153,10.01a18.991,18.991,0,0,0,1.087-6.134,14.1,14.1,0,0,0-5.123-11.347,15.345,15.345,0,0,0-12.461-3.261,19.882,19.882,0,0,0-12.3,6.736,18.9,18.9,0,0,0-5.137,12.787,14.088,14.088,0,0,0,4.534,10.82,16.255,16.255,0,0,0,11.381,4.223,75.937,75.937,0,0,0,36.414-8.4,59.683,59.683,0,0,0,18.456-15.4c6.231-7.754,9.408-15.673,9.381-23.538a21.044,21.044,0,0,0-8.584-17.4c-5.234-3.925-13.036-5.192-23.2-3.759l-9.138,1.281,5.746-17.7,33.721-4.735,8-21.343.042-.125" transform="translate(-125.592 -65.77)"/></g></g><g transform="translate(87.227 45.396)"><g class="ad"><path class="e" d="M212.47,65.788l-58.845,8.259-16.172,51.659,17.307-2.437c7.851-1.1,13.929-.159,18.076,2.769,3.669,2.555,5.538,6.341,5.538,11.257a27.368,27.368,0,0,1-5.3,15.66c-3.676,5.275-8.183,8.681-13.382,10.121h-.132l.055-.138a19.011,19.011,0,0,0,1.122-6.231,13.957,13.957,0,0,0-5.026-11.174,15.364,15.364,0,0,0-12.337-3.212,19.716,19.716,0,0,0-12.191,6.674,18.692,18.692,0,0,0-5.081,12.655,13.929,13.929,0,0,0,4.479,10.7,16.172,16.172,0,0,0,11.3,4.2,72.2,72.2,0,0,0,11.859-.692c18.263-2.561,32.69-10.322,42.88-23.06,6.231-7.712,9.36-15.59,9.339-23.413a20.987,20.987,0,0,0-8.536-17.307c-5.2-3.9-12.967-5.164-23.095-3.738l-9.36,1.315.042-.125,5.822-17.93,33.721-4.735L212.47,65.74" transform="translate(-125.913 -65.588)"/><path class="f" d="M137.417,125.638,153.589,73.98l58.845-8.259-7.947,21.122-33.721,4.735-5.822,17.93-.042.125,9.36-1.315c10.128-1.426,17.9-.166,23.095,3.738a20.913,20.913,0,0,1,8.536,17.307c0,7.823-3.115,15.7-9.339,23.413-10.191,12.738-24.618,20.5-42.88,23.06a72.2,72.2,0,0,1-11.859.692,16.172,16.172,0,0,1-11.3-4.2,13.929,13.929,0,0,1-4.479-10.7,18.692,18.692,0,0,1,5.081-12.7,19.716,19.716,0,0,1,12.191-6.681,15.111,15.111,0,0,1,12.337,3.233,13.956,13.956,0,0,1,5.075,11.229,19.009,19.009,0,0,1-1.122,6.231l-.055.138h.132c5.2-1.44,9.692-4.846,13.382-10.121a27.419,27.419,0,0,0,5.3-15.66c0-4.915-1.848-8.7-5.538-11.257-4.154-2.949-10.225-3.891-18.076-2.769l-17.307,2.437m75.2-60.188-59.149,8.307-16.241,51.922-.042.111,17.563-2.471c7.809-1.094,13.846-.159,18,2.769,3.634,2.527,5.469,6.272,5.462,11.132a27.178,27.178,0,0,1-5.261,15.549c-3.621,5.192-8.044,8.564-13.153,10.011a19.024,19.024,0,0,0,1.087-6.134,14.088,14.088,0,0,0-5.123-11.347,15.321,15.321,0,0,0-12.461-3.261,19.883,19.883,0,0,0-12.3,6.736,18.9,18.9,0,0,0-5.137,12.787,14.06,14.06,0,0,0,4.535,10.814,16.351,16.351,0,0,0,11.381,4.23,71.742,71.742,0,0,0,11.88-.692,72.739,72.739,0,0,0,24.535-7.719,59.682,59.682,0,0,0,18.456-15.4c6.231-7.754,9.408-15.673,9.38-23.538a21.044,21.044,0,0,0-8.584-17.4c-5.234-3.925-13.029-5.192-23.2-3.766l-9.138,1.315,5.753-17.7,33.714-4.735,8-21.385.042-.125" transform="translate(-125.842 -65.52)"/></g></g><g transform="translate(87.408 45.222)"><g class="ae"><path class="e" d="M212.72,65.55l-58.845,8.266-16.137,51.659,17.307-2.437c7.851-1.1,13.936-.159,18.083,2.769,3.662,2.555,5.538,6.348,5.538,11.264a27.436,27.436,0,0,1-5.3,15.66c-3.648,5.289-8.169,8.667-13.34,10.135h-.125l.048-.138a19.012,19.012,0,0,0,1.122-6.231,13.95,13.95,0,0,0-5.068-11.229,15.158,15.158,0,0,0-12.344-3.233,19.716,19.716,0,0,0-12.191,6.681,18.692,18.692,0,0,0-5.116,12.683,13.95,13.95,0,0,0,4.479,10.7,16.172,16.172,0,0,0,11.3,4.2,72.164,72.164,0,0,0,11.859-.692c18.263-2.568,32.69-10.329,42.887-23.06,6.231-7.719,9.36-15.59,9.332-23.413a20.987,20.987,0,0,0-8.536-17.307c-5.2-3.9-12.967-5.164-23.095-3.738l-9.36,1.391.042-.125,5.822-17.93,33.721-4.742,7.913-21.122" transform="translate(-126.17 -65.356)"/><path class="f" d="M137.67,125.388,153.842,73.73l58.845-8.266-7.947,21.122-33.7,4.742-5.822,17.93-.042.125,9.36-1.315c10.128-1.426,17.9-.166,23.095,3.738a20.913,20.913,0,0,1,8.536,17.307c0,7.823-3.108,15.694-9.332,23.413-10.2,12.731-24.625,20.492-42.887,23.06a72.162,72.162,0,0,1-11.859.692,16.172,16.172,0,0,1-11.3-4.2,13.95,13.95,0,0,1-4.5-10.772,18.692,18.692,0,0,1,5.081-12.655,19.716,19.716,0,0,1,12.191-6.681,15.109,15.109,0,0,1,12.343,3.233,13.95,13.95,0,0,1,5.068,11.257,19.01,19.01,0,0,1-1.121,6.231l-.048.138h.125c5.206-1.44,9.692-4.846,13.389-10.121a27.537,27.537,0,0,0,5.3-15.66c0-4.915-1.855-8.709-5.538-11.264-4.154-2.942-10.232-3.884-18.083-2.769l-17.307,2.437m75.2-60.188-59.149,8.307L137.49,125.5l-.042.111,17.563-2.471c7.816-1.094,13.846-.166,18,2.769,3.635,2.534,5.469,6.279,5.462,11.139a27.178,27.178,0,0,1-5.261,15.549c-3.621,5.192-8.044,8.564-13.153,10.01a18.878,18.878,0,0,0,1.087-6.141,14.06,14.06,0,0,0-5.123-11.34,15.3,15.3,0,0,0-12.461-3.261,19.882,19.882,0,0,0-12.3,6.736,18.858,18.858,0,0,0-5.13,12.787,14.04,14.04,0,0,0,4.528,10.814,16.351,16.351,0,0,0,11.381,4.23,71.742,71.742,0,0,0,11.88-.692,72.891,72.891,0,0,0,24.535-7.719,59.884,59.884,0,0,0,18.463-15.4c6.231-7.754,9.4-15.673,9.374-23.538a21.025,21.025,0,0,0-8.584-17.4c-5.234-3.925-13.029-5.192-23.2-3.766l-9.138,1.288,5.753-17.7,33.714-4.735,8-21.35.042-.125" transform="translate(-126.102 -65.27)"/></g></g><g transform="translate(87.581 45.042)"><g class="af"><path class="e" d="M212.985,65.3l-58.8,8.266L138,125.225l17.307-2.437c7.851-1.1,13.936-.166,18.083,2.769,3.662,2.555,5.538,6.348,5.538,11.257a27.389,27.389,0,0,1-5.3,15.667c-3.683,5.275-8.183,8.681-13.389,10.121h-.125l.048-.138a19.051,19.051,0,0,0,1.121-6.231,13.943,13.943,0,0,0-5.068-11.222,15.158,15.158,0,0,0-12.343-3.233,19.7,19.7,0,0,0-12.143,6.743,18.692,18.692,0,0,0-5.081,12.655,13.957,13.957,0,0,0,4.486,10.7,16.207,16.207,0,0,0,11.291,4.2,72.932,72.932,0,0,0,11.859-.692c18.263-2.568,32.7-10.329,42.887-23.06,6.231-7.719,9.36-15.59,9.332-23.413a21,21,0,0,0-8.529-17.307c-5.2-3.9-12.973-5.164-23.1-3.745l-9.36,1.315.042-.118,5.822-17.93,33.721-4.742,7.878-21.08" transform="translate(-126.435 -65.099)"/><path class="f" d="M137.92,125.132,154.1,73.474l58.8-8.266-7.913,21.122-33.721,4.742L165.446,109l-.042.118,9.36-1.315c10.128-1.385,17.9-.159,23.1,3.745a20.926,20.926,0,0,1,8.529,17.307c0,7.823-3.108,15.694-9.332,23.413-10.19,12.731-24.625,20.492-42.887,23.06a72.931,72.931,0,0,1-11.859.692,16.064,16.064,0,0,1-11.291-4.2,13.957,13.957,0,0,1-4.486-10.7,18.692,18.692,0,0,1,5.116-12.7,19.7,19.7,0,0,1,12.191-6.681,15.109,15.109,0,0,1,12.343,3.233,13.943,13.943,0,0,1,5.068,11.222,19.052,19.052,0,0,1-1.122,6.231l-.048.138h.125c5.206-1.44,9.692-4.846,13.389-10.121a27.49,27.49,0,0,0,5.3-15.666c0-4.908-1.855-8.7-5.538-11.257-4.154-2.949-10.232-3.884-18.083-2.769l-17.307,2.437M213.137,65l-59.149,8.307L137.74,125.229l-.042.118,17.563-2.471c7.816-1.094,13.846-.166,18,2.769,3.634,2.534,5.476,6.279,5.462,11.139a27.178,27.178,0,0,1-5.261,15.549c-3.621,5.192-8.044,8.564-13.153,10.011A18.88,18.88,0,0,0,161.4,156.2a14.04,14.04,0,0,0-5.123-11.34,15.3,15.3,0,0,0-12.461-3.261,19.82,19.82,0,0,0-12.288,6.736,18.824,18.824,0,0,0-5.137,12.787,14.088,14.088,0,0,0,4.528,10.814,16.29,16.29,0,0,0,11.381,4.23,71.7,71.7,0,0,0,11.88-.692,73.14,73.14,0,0,0,24.555-7.726,59.939,59.939,0,0,0,18.456-15.4c6.231-7.754,9.4-15.673,9.381-23.538a21.05,21.05,0,0,0-8.591-17.4c-5.234-3.925-13.029-5.192-23.192-3.766l-9.145,1.288,5.753-17.7,33.7-4.763,8-21.322.048-.132" transform="translate(-126.352 -65.007)"/></g></g><g transform="translate(87.754 44.869)"><g class="ag"><path class="e" d="M213.213,65.05l-58.8,8.273-16.179,51.652,17.307-2.437c7.857-1.108,13.936-.166,18.083,2.769,3.662,2.555,5.538,6.341,5.538,11.257a27.389,27.389,0,0,1-5.3,15.667c-3.683,5.275-8.183,8.681-13.389,10.121h-.125l.048-.138a19.052,19.052,0,0,0,1.122-6.231,13.943,13.943,0,0,0-5.068-11.222,15.151,15.151,0,0,0-12.344-3.233,19.7,19.7,0,0,0-12.191,6.681,18.692,18.692,0,0,0-5.081,12.648,13.936,13.936,0,0,0,4.5,10.772,16.144,16.144,0,0,0,11.291,4.2,73.058,73.058,0,0,0,11.866-.692c18.256-2.568,32.69-10.329,42.88-23.067,6.231-7.712,9.36-15.583,9.332-23.406a20.981,20.981,0,0,0-8.529-17.307c-5.2-3.9-12.973-5.164-23.095-3.745l-9.367,1.35.042-.118,5.822-17.93L205.3,86.172l7.913-21.122" transform="translate(-126.663 -64.849)"/><path class="f" d="M138.186,124.885l16.179-51.652,58.8-8.266-7.913,21.115-33.721,4.742-5.822,17.93-.042.118,9.367-1.315c10.121-1.385,17.9-.159,23.095,3.745a20.907,20.907,0,0,1,8.529,17.307c0,7.823-3.108,15.694-9.332,23.406-10.19,12.738-24.625,20.5-42.88,23.067a73.061,73.061,0,0,1-11.866.692,16.144,16.144,0,0,1-11.291-4.237,13.936,13.936,0,0,1-4.486-10.7,18.692,18.692,0,0,1,5.081-12.648,19.7,19.7,0,0,1,12.191-6.681,15.076,15.076,0,0,1,12.344,3.233,13.943,13.943,0,0,1,5.1,11.215,19.052,19.052,0,0,1-1.122,6.231l-.048.138h.125c5.206-1.44,9.692-4.846,13.389-10.121a27.491,27.491,0,0,0,5.3-15.667c0-4.915-1.855-8.7-5.538-11.257-4.154-2.949-10.225-3.891-18.083-2.769l-17.307,2.437m75.21-60.188-59.149,8.307L138.04,124.989l-.042.118,17.563-2.471c7.816-1.1,13.846-.166,18,2.769,3.635,2.527,5.476,6.272,5.462,11.132a27.182,27.182,0,0,1-5.261,15.556c-3.614,5.192-8.044,8.557-13.153,10.01a18.879,18.879,0,0,0,1.087-6.141,14.039,14.039,0,0,0-5.123-11.34,15.3,15.3,0,0,0-12.461-3.261,19.786,19.786,0,0,0-12.288,6.736,18.837,18.837,0,0,0-5.137,12.787,14.088,14.088,0,0,0,4.528,10.814,16.311,16.311,0,0,0,11.381,4.23,76.194,76.194,0,0,0,36.421-8.4,59.862,59.862,0,0,0,18.456-15.4c6.231-7.761,9.4-15.673,9.381-23.538a21.031,21.031,0,0,0-8.591-17.4c-5.234-3.925-13.029-5.192-23.192-3.766l-9.138,1.288L171.679,91l33.714-4.742,8-21.35.048-.125" transform="translate(-126.617 -64.76)"/></g></g><g transform="translate(87.928 44.696)"><g class="ah"><path class="e" d="M213.47,64.8l-58.8,8.266-16.172,51.659,17.307-2.437c7.857-1.108,13.936-.166,18.083,2.769,3.662,2.555,5.538,6.341,5.538,11.257a27.389,27.389,0,0,1-5.3,15.667c-3.683,5.268-8.183,8.681-13.382,10.114l-.132.042.048-.138a18.872,18.872,0,0,0,1.121-6.231,13.936,13.936,0,0,0-5.061-11.215,15.361,15.361,0,0,0-12.344-3.212,19.716,19.716,0,0,0-12.191,6.674,18.692,18.692,0,0,0-5.081,12.648,13.936,13.936,0,0,0,4.486,10.7,16.274,16.274,0,0,0,11.3,4.2,73.022,73.022,0,0,0,11.859-.692c18.263-2.568,32.69-10.329,42.88-23.067,6.231-7.712,9.36-15.583,9.332-23.406a20.962,20.962,0,0,0-8.529-17.307c-5.2-3.911-12.973-5.164-23.095-3.745l-9.36,1.315.035-.118,5.822-17.93,33.721-4.742L213.47,64.8" transform="translate(-126.92 -64.599)"/><path class="f" d="M138.409,124.632,154.58,72.974l58.8-8.266-7.913,21.122-33.721,4.742-5.822,17.93-.035.118,9.36-1.315c10.121-1.385,17.9-.166,23.095,3.745a20.889,20.889,0,0,1,8.529,17.307c0,7.823-3.108,15.694-9.332,23.406-10.19,12.738-24.618,20.5-42.88,23.067a73.022,73.022,0,0,1-11.859.692,16.067,16.067,0,0,1-11.3-4.2,13.936,13.936,0,0,1-4.486-10.7,18.692,18.692,0,0,1,5.081-12.7,19.716,19.716,0,0,1,12.191-6.681,15.076,15.076,0,0,1,12.344,3.233A13.936,13.936,0,0,1,161.7,155.7a18.871,18.871,0,0,1-1.121,6.231l-.048.138.132-.042c5.2-1.433,9.692-4.846,13.382-10.114a27.439,27.439,0,0,0,5.3-15.666c0-4.915-1.855-8.7-5.538-11.257-4.154-2.949-10.225-3.891-18.083-2.769l-17.307,2.437m75.2-60.146L154.47,72.814l-16.248,51.922v.111l17.556-2.465c7.816-1.1,13.846-.166,18,2.769,3.628,2.527,5.469,6.272,5.462,11.132a27.155,27.155,0,0,1-5.268,15.549c-3.614,5.2-8.037,8.564-13.154,10.01a19.183,19.183,0,0,0,1.087-6.134,14.088,14.088,0,0,0-5.192-11.374,15.311,15.311,0,0,0-12.461-3.254,19.785,19.785,0,0,0-12.288,6.736,18.837,18.837,0,0,0-5.137,12.78,14.074,14.074,0,0,0,4.535,10.82,16.282,16.282,0,0,0,11.374,4.23,76.193,76.193,0,0,0,36.421-8.4,59.7,59.7,0,0,0,18.456-15.41c6.231-7.754,9.4-15.666,9.381-23.538a21.031,21.031,0,0,0-8.591-17.4c-5.227-3.925-13.029-5.192-23.192-3.766l-9.138,1.281,5.746-17.695,33.714-4.742,8-21.35.048-.125" transform="translate(-126.833 -64.507)"/></g></g><g transform="translate(88.101 44.523)"><g class="ai"><path class="e" d="M213.722,64.55l-58.8,8.266-16.172,51.659,17.342-2.437c7.851-1.108,13.929-.166,18.076,2.769,3.669,2.555,5.538,6.341,5.538,11.257a27.368,27.368,0,0,1-5.3,15.66c-3.683,5.289-8.2,8.674-13.375,10.135l-.132.042.048-.145a18.622,18.622,0,0,0,1.122-6.231A13.936,13.936,0,0,0,157,144.295a15.164,15.164,0,0,0-12.337-3.226,19.716,19.716,0,0,0-12.2,6.681,18.692,18.692,0,0,0-5.1,12.648,13.9,13.9,0,0,0,4.479,10.7,16.273,16.273,0,0,0,11.3,4.2A72.977,72.977,0,0,0,155,174.61c18.263-2.568,32.69-10.329,42.88-23.067,6.231-7.712,9.36-15.583,9.339-23.406a20.978,20.978,0,0,0-8.536-17.307c-5.2-3.911-12.967-5.171-23.095-3.745l-9.36,1.391.035-.118,5.843-17.951,33.721-4.735,7.913-21.122" transform="translate(-127.173 -64.349)"/><path class="f" d="M138.689,124.385l16.172-51.659,58.8-8.266-7.913,21.122-33.7,4.735-5.822,17.937-.035.118,9.36-1.315c10.128-1.426,17.9-.166,23.095,3.745a20.9,20.9,0,0,1,8.536,17.307c0,7.823-3.115,15.694-9.339,23.406-10.19,12.738-24.618,20.5-42.88,23.067a72.976,72.976,0,0,1-11.859.692,16.1,16.1,0,0,1-11.3-4.2,13.9,13.9,0,0,1-4.5-10.765,18.692,18.692,0,0,1,5.075-12.648,19.716,19.716,0,0,1,12.2-6.681,15.081,15.081,0,0,1,12.337,3.226,13.936,13.936,0,0,1,5.068,11.257,18.623,18.623,0,0,1-1.122,6.231l-.048.145.132-.042c5.2-1.433,9.692-4.846,13.382-10.121a27.419,27.419,0,0,0,5.3-15.66c0-4.915-1.848-8.7-5.538-11.257-4.154-2.949-10.225-3.891-18.076-2.769l-17.342,2.437M213.9,64.26l-59.156,8.314L138.5,124.5v.111l17.563-2.465c7.809-1.1,13.846-.166,18,2.769,3.628,2.527,5.469,6.272,5.462,11.132a27.2,27.2,0,0,1-5.261,15.549c-3.621,5.2-8.044,8.564-13.153,10.01a18.988,18.988,0,0,0,1.087-6.134,14.109,14.109,0,0,0-5.123-11.347,15.346,15.346,0,0,0-12.461-3.261,19.869,19.869,0,0,0-12.3,6.736,18.865,18.865,0,0,0-5.137,12.787,14.074,14.074,0,0,0,4.535,10.821,16.255,16.255,0,0,0,11.381,4.223,76.013,76.013,0,0,0,36.414-8.391,59.7,59.7,0,0,0,18.456-15.41c6.231-7.754,9.408-15.666,9.381-23.538a21.019,21.019,0,0,0-8.591-17.4c-5.227-3.932-13.029-5.2-23.192-3.766l-9.138,1.281,5.746-17.7,33.721-4.735,8-21.35.042-.125" transform="translate(-127.114 -64.26)"/></g></g><g transform="translate(88.274 44.349)"><g class="aj"><path class="e" d="M213.988,64.3l-58.8,8.259-16.172,51.659,17.342-2.437c7.851-1.1,13.929-.159,18.076,2.769,3.669,2.555,5.538,6.341,5.538,11.257a27.368,27.368,0,0,1-5.3,15.66c-3.676,5.275-8.183,8.688-13.382,10.121h-.132l.055-.138a18.817,18.817,0,0,0,1.115-6.231,13.936,13.936,0,0,0-5.068-11.229,15.184,15.184,0,0,0-12.337-3.233,19.751,19.751,0,0,0-12.184,6.757,18.692,18.692,0,0,0-5.074,12.655,13.929,13.929,0,0,0,4.479,10.7,16.274,16.274,0,0,0,11.3,4.2,72.986,72.986,0,0,0,11.859-.692c18.263-2.561,32.69-10.322,42.88-23.06,6.231-7.712,9.36-15.583,9.339-23.413a21,21,0,0,0-8.536-17.307c-5.2-3.9-12.967-5.164-23.095-3.738l-9.36,1.315.042-.118,5.815-17.937,33.728-4.735L213.988,64.3" transform="translate(-127.438 -64.099)"/><path class="f" d="M138.942,124.119l16.172-51.659,58.8-8.259-7.906,21.122-33.728,4.735L166.468,108l-.042.118,9.36-1.315c10.128-1.426,17.9-.166,23.095,3.738a20.923,20.923,0,0,1,8.536,17.307c0,7.83-3.115,15.7-9.339,23.413-10.19,12.738-24.618,20.5-42.88,23.06a72.983,72.983,0,0,1-11.859.692,16.1,16.1,0,0,1-11.3-4.2,13.929,13.929,0,0,1-4.479-10.7,18.692,18.692,0,0,1,5.109-12.69,19.751,19.751,0,0,1,12.2-6.681,15.044,15.044,0,0,1,12.337,3.233,13.936,13.936,0,0,1,5.068,11.229,18.817,18.817,0,0,1-1.115,6.231l-.055.138h.132c5.2-1.433,9.692-4.846,13.382-10.121a27.419,27.419,0,0,0,5.3-15.66c0-4.915-1.848-8.7-5.538-11.257-4.154-2.949-10.225-3.891-18.076-2.769L138.956,124.2m75.2-60.2L155,72.3l-16.248,51.922v.111l17.563-2.465c7.809-1.1,13.846-.166,18,2.769,3.635,2.527,5.469,6.272,5.462,11.132a27.229,27.229,0,0,1-5.261,15.549c-3.621,5.192-8.044,8.564-13.153,10.011a18.989,18.989,0,0,0,1.087-6.134,14.1,14.1,0,0,0-5.123-11.347,15.346,15.346,0,0,0-12.461-3.261,19.883,19.883,0,0,0-12.3,6.736,18.9,18.9,0,0,0-5.137,12.787,14.061,14.061,0,0,0,4.535,10.814,16.227,16.227,0,0,0,11.381,4.23,75.937,75.937,0,0,0,36.394-8.418,59.682,59.682,0,0,0,18.456-15.4c6.231-7.754,9.408-15.673,9.381-23.538a21.044,21.044,0,0,0-8.584-17.4c-5.234-3.925-13.036-5.192-23.2-3.759l-9.138,1.281,5.746-17.7,33.708-4.756,8-21.35.042-.125" transform="translate(-127.367 -64.001)"/></g></g><g transform="translate(88.454 44.176)"><g class="ak"><path class="al" d="M214.237,64.05l-58.81,8.273-16.172,51.645,17.342-2.437c7.851-1.1,13.929-.159,18.076,2.769,3.669,2.555,5.538,6.348,5.538,11.264a27.368,27.368,0,0,1-5.3,15.66c-3.676,5.275-8.176,8.681-13.382,10.121h-.125l.048-.138a19.009,19.009,0,0,0,1.122-6.231,13.956,13.956,0,0,0-5.074-11.229,15.16,15.16,0,0,0-12.337-3.233,19.716,19.716,0,0,0-12.191,6.681,18.692,18.692,0,0,0-5.081,12.655,13.95,13.95,0,0,0,4.458,10.779,16.172,16.172,0,0,0,11.3,4.2,72.208,72.208,0,0,0,11.859-.692c18.263-2.561,32.69-10.322,42.88-23.06,6.231-7.712,9.36-15.59,9.339-23.413a20.987,20.987,0,0,0-8.536-17.307c-5.2-3.9-12.967-5.164-23.095-3.738l-9.367,1.35.042-.125,5.822-17.93,33.721-4.735,7.913-21.122" transform="translate(-127.688 -63.849)"/><path class="al" d="M139.192,123.878l16.172-51.645,58.845-8.259-7.947,21.108L172.54,89.818l-5.822,17.93-.042.125,9.36-1.315c10.128-1.426,17.9-.166,23.095,3.738a20.913,20.913,0,0,1,8.536,17.307c0,7.823-3.115,15.7-9.339,23.413-10.19,12.738-24.618,20.5-42.88,23.06a72.206,72.206,0,0,1-11.859.692,16.172,16.172,0,0,1-11.3-4.23,13.95,13.95,0,0,1-4.479-10.7,18.692,18.692,0,0,1,5.081-12.655,19.717,19.717,0,0,1,12.191-6.681,15.02,15.02,0,0,1,12.337,3.233,13.957,13.957,0,0,1,5.1,11.222,19.011,19.011,0,0,1-1.122,6.231l-.048.138h.125c5.206-1.44,9.692-4.846,13.382-10.121a27.419,27.419,0,0,0,5.3-15.66c0-4.915-1.848-8.709-5.538-11.264-4.154-2.942-10.225-3.884-18.076-2.769l-17.342,2.437M214.437,63.76l-59.149,8.307-16.241,51.922-.042.111,17.563-2.471c7.816-1.094,13.846-.159,18,2.769,3.635,2.527,5.469,6.272,5.462,11.132a27.178,27.178,0,0,1-5.261,15.549c-3.621,5.192-8.044,8.564-13.154,10.01a18.835,18.835,0,0,0,1.087-6.134,14.088,14.088,0,0,0-5.123-11.347,15.321,15.321,0,0,0-12.461-3.261,19.882,19.882,0,0,0-12.3,6.736,18.9,18.9,0,0,0-5.137,12.787,14.061,14.061,0,0,0,4.535,10.814,16.351,16.351,0,0,0,11.381,4.23,71.737,71.737,0,0,0,11.88-.692,72.737,72.737,0,0,0,24.535-7.719,59.779,59.779,0,0,0,18.456-15.4c6.231-7.754,9.408-15.673,9.381-23.538a21.025,21.025,0,0,0-8.584-17.4c-5.234-3.925-13.029-5.192-23.2-3.766l-9.138,1.288,5.753-17.7L206.4,85.242l8-21.35.042-.125" transform="translate(-127.624 -63.76)"/></g></g><path class="c" d="M157.844,204.922l4.631-5.4-1.741,6.192,6.318,1.723-6.479.987,1.9,6.928-4.577-6.228-4.559,6.228,2.1-6.8-6.659-1.113,6.515-1.866-1.956-6.048Z" transform="translate(-52.364 -67.272)"/><g class="aq" transform="matrix(1, 0, 0, 1, 0, 0)"><text class="am" transform="translate(170.9 139.96)"><tspan x="0" y="0">Years</tspan></text></g><text class="an" transform="translate(172 90.426)"><tspan x="0" y="0">CELEBR</tspan><tspan class="ao" y="0">A</tspan><tspan y="0">TING</tspan></text><text class="an" transform="translate(209 154.426)"><tspan x="0" y="0">OF E</tspan><tspan class="ap" y="0">X</tspan><tspan y="0">CELLENCE</tspan></text></svg>