<svg xmlns="http://www.w3.org/2000/svg" width="160.294" height="131.158" viewBox="0 0 160.294 131.158"><defs><style>.a{opacity:0.53;}.b{fill:none;stroke:#d81d4a;stroke-miterlimit:10;stroke-width:2.8px;}.c,.d{fill:#d81d4a;}.c{opacity:0.69;}</style></defs><g class="a" transform="matrix(0.602, 0.799, -0.799, 0.602, 125.941, -10.028)"><g transform="translate(0 0)"><path class="b" d="M16.311,70.186V35.971L6.48,26.14" transform="translate(-0.988 -3.986)"/><path class="b" d="M35.94,73.7V52" transform="translate(-7.922 -7.928)"/><path class="b" d="M53.8,66.324V17.439L64.767,6.48" transform="translate(-13.177 -0.988)"/><path class="b" d="M20.484,148v22.934L14,176.146" transform="translate(-3.197 -22.566)"/><path class="b" d="M34.41,147.52v36.774l9.518,12.976" transform="translate(-8.008 -22.492)"/><path class="b" d="M52.686,147.52v14.713L43.6,168.717" transform="translate(-10.118 -22.492)"/><path class="c" d="M48.9,143.757H7.262c-3.613,0-6.542-3.195-6.542-7.136V76.056c0-3.941,2.929-7.136,6.542-7.136H48.9a6.419,6.419,0,0,1,4.623,2.093A7.427,7.427,0,0,1,55.446,76.1v60.522c0,3.941-2.929,7.136-6.542,7.136Z" transform="translate(-0.11 -10.508)"/><circle class="d" cx="5.492" cy="5.492" r="5.492" transform="translate(6.967 149.352)"/><circle class="d" cx="5.492" cy="5.492" r="5.492" transform="translate(29.957 169.286)"/><circle class="d" cx="5.492" cy="5.492" r="5.492" transform="translate(28.541 140.732)"/><circle class="d" cx="5.492" cy="5.492" r="5.492" transform="translate(46.098)"/><circle class="d" cx="5.492" cy="5.492" r="5.492" transform="translate(22.536 38.681)"/><circle class="d" cx="5.492" cy="5.492" r="5.492" transform="translate(0 16.662)"/></g></g></svg>