<svg xmlns="http://www.w3.org/2000/svg" width="73.09" height="118" viewBox="0 0 73.09 118"><defs><style>.a{opacity:0.54;}.b{fill:#d1d3d4;}.b,.c,.e,.f{stroke:#4bc947;}.b,.c,.d,.e,.f{stroke-miterlimit:10;}.b,.d,.e{stroke-width:3.98px;}.c{fill:none;stroke-width:2.35px;}.d{fill:#bcbec0;stroke:#fff;}.e{fill:#4bc947;}.f{fill:#fff;}</style></defs><g class="a" transform="translate(-332 22)"><g transform="translate(332.5 -21.5)"><path class="b" d="M82.867,35.6,38.724,60.9,24.76,112.285,68.918,87.009,82.882,35.626" transform="translate(-12.213 -17.446)"/><path class="c" d="M19.337,148.47l-6.61,31.352L6.04,186.075" transform="translate(-3.175 -71.941)"/><path class="c" d="M48.856,128.86l-6.61,31.352L37.26,166.45" transform="translate(-18.248 -62.473)"/><path class="c" d="M79.88,136.7l-6.61,31.347,10.98,6.093" transform="translate(-35.634 -66.258)"/><path class="c" d="M64.88,68.812l6.61-31.352,3.217-3.739" transform="translate(-31.583 -16.539)"/><path class="c" d="M42.323,55.848,48.932,24.5,39.69,18.31" transform="translate(-19.421 -9.099)"/><path class="c" d="M105.19,40.625,111.8,9.272,105.19,6.04" transform="translate(-51.045 -3.175)"/><path class="d" d="M75.2,33.72l-44.143,25.3L17.11,110.41l44.143-25.3L75.217,33.73" transform="translate(-8.519 -16.539)"/><path class="e" d="M69.117,30.28l-44.153,25.3L11,106.959l44.148-25.3Q62.114,55.969,69.112,30.28" transform="translate(-5.569 -14.878)"/><circle class="f" cx="2.865" cy="2.865" r="2.865" transform="translate(45.751 105.017)"/><circle class="f" cx="2.865" cy="2.865" r="2.865" transform="translate(51.28)"/><circle class="f" cx="2.865" cy="2.865" r="2.865" transform="translate(40.259 14.316)"/><circle class="f" cx="2.865" cy="2.865" r="2.865" transform="translate(17.404 6.346)"/><circle class="f" cx="2.865" cy="2.865" r="2.865" transform="translate(16.147 101.117)"/><circle class="f" cx="2.865" cy="2.865" r="2.865" transform="translate(0 111.269)"/></g></g></svg>